<svg width="41" height="40" viewBox="0 0 41 40" fill="none" xmlns="http://www.w3.org/2000/svg">
<rect x="0.77832" width="40" height="40" rx="5" fill="currentColor"/>
<path d="M12.1436 19C11.5913 19 11.1436 19.4477 11.1436 20C11.1436 20.5523 11.5913 21 12.1436 21V20V19ZM28.1202 20.7071C28.5107 20.3166 28.5107 19.6834 28.1202 19.2929L21.7562 12.9289C21.3657 12.5384 20.7325 12.5384 20.342 12.9289C19.9515 13.3195 19.9515 13.9526 20.342 14.3431L25.9989 20L20.342 25.6569C19.9515 26.0474 19.9515 26.6805 20.342 27.0711C20.7325 27.4616 21.3657 27.4616 21.7562 27.0711L28.1202 20.7071ZM12.1436 20V21H27.4131V20V19H12.1436V20Z" fill="white"/>
</svg>
