<svg viewBox="0 0 16.6299 13.3223" xmlns="http://www.w3.org/2000/svg" xmlns:xlink="http://www.w3.org/1999/xlink" width="16.629883" height="13.322266" fill="none" customFrame="#000000">
	<path id="Arrow 1" d="M1 5.66113L15.6245 5.66113L15.6245 7.66113L1 7.66113L1 5.66113ZM1.02 7.64113L1 7.66113C0.44 7.66113 0 7.22113 0 6.66113C0 6.10113 0.44 5.66113 1 5.66113L1.02 5.68113L1.02 7.64113ZM14.2103 6.66113L9.26055 1.71138C8.86457 1.3154 8.86457 0.693151 9.26055 0.297172C9.65653 -0.0988078 10.2788 -0.0988078 10.6748 0.297172L16.3316 5.95403C16.7276 6.35001 16.7276 6.97226 16.3316 7.36824L10.6748 13.0251C10.2788 13.4211 9.65653 13.4211 9.26055 13.0251C8.86457 12.6291 8.86457 12.0069 9.26055 11.6109L14.2103 6.66113Z" fill="currentColor" fill-rule="nonzero" />
</svg>
