<svg width="37" height="36" viewBox="0 0 37 36" xmlns="http://www.w3.org/2000/svg">
<path fill-rule="evenodd" clip-rule="evenodd" d="M6.40527 15C5.30067 15 4.40527 15.8954 4.40527 17V19C4.40527 20.1046 5.30067 21 6.40527 21H8.40527C9.50987 21 10.4053 20.1046 10.4053 19V17C10.4053 15.8954 9.50987 15 8.40527 15H6.40527ZM6.40527 17V19H8.40527V17H6.40527Z"/>
<path fill-rule="evenodd" clip-rule="evenodd" d="M12.4053 17C12.4053 15.8954 13.3007 15 14.4053 15H16.4053C17.5099 15 18.4053 15.8954 18.4053 17V19C18.4053 20.1046 17.5099 21 16.4053 21H14.4053C13.3007 21 12.4053 20.1046 12.4053 19V17ZM14.4053 17H16.4053V19H14.4053V17Z"/>
<path fill-rule="evenodd" clip-rule="evenodd" d="M22.4053 15C21.3007 15 20.4053 15.8954 20.4053 17V19C20.4053 20.1046 21.3007 21 22.4053 21H24.4053C25.5099 21 26.4053 20.1046 26.4053 19V17C26.4053 15.8954 25.5099 15 24.4053 15H22.4053ZM22.4053 17V19H24.4053V17H22.4053Z"/>
<path fill-rule="evenodd" clip-rule="evenodd" d="M4.40527 25C4.40527 23.8954 5.30067 23 6.40527 23H8.40527C9.50987 23 10.4053 23.8954 10.4053 25V27C10.4053 28.1046 9.50987 29 8.40527 29H6.40527C5.30067 29 4.40527 28.1046 4.40527 27V25ZM8.40527 25V27H6.40527V25H8.40527Z"/>
<path fill-rule="evenodd" clip-rule="evenodd" d="M14.4053 23C13.3007 23 12.4053 23.8954 12.4053 25V27C12.4053 28.1046 13.3007 29 14.4053 29H16.4053C17.5099 29 18.4053 28.1046 18.4053 27V25C18.4053 23.8954 17.5099 23 16.4053 23H14.4053ZM16.4053 25H14.4053V27H16.4053V25Z"/>
<path d="M30.4053 26.5C30.4053 25.9477 29.9576 25.5 29.4053 25.5C28.853 25.5 28.4053 25.9477 28.4053 26.5V29.4142L29.6982 30.7071C30.0887 31.0976 30.7219 31.0976 31.1124 30.7071C31.5029 30.3166 31.5029 29.6834 31.1124 29.2929L30.4053 28.5858V26.5Z"/>
<path fill-rule="evenodd" clip-rule="evenodd" d="M6.40527 1C6.40527 0.44772 6.85297 0 7.40527 0C7.95757 0 8.40527 0.44772 8.40527 1V6C8.40527 6.5523 8.85297 7 9.40527 7C9.95757 7 10.4053 6.5523 10.4053 6V3H20.4053V1C20.4053 0.44772 20.853 0 21.4053 0C21.9576 0 22.4053 0.44772 22.4053 1V6C22.4053 6.5523 22.853 7 23.4053 7C23.9576 7 24.4053 6.5523 24.4053 6V3H27.4053C29.0622 3 30.4053 4.3432 30.4053 6V22.0709C33.7976 22.5561 36.4053 25.4735 36.4053 29C36.4053 32.866 33.2713 36 29.4053 36C27.0266 36 24.9249 34.8135 23.66 33H3.40527C1.74842 33 0.405273 31.6569 0.405273 30V6C0.405273 4.3431 1.74842 3 3.40527 3H6.40527V1ZM22.4053 29C22.4053 25.4735 25.013 22.5561 28.4053 22.0709V12H2.40527V30C2.40527 30.5523 2.85299 31 3.40527 31H22.6952C22.5066 30.3663 22.4053 29.695 22.4053 29ZM34.4053 29C34.4053 31.7614 32.1667 34 29.4053 34C26.6439 34 24.4053 31.7614 24.4053 29C24.4053 26.2386 26.6439 24 29.4053 24C32.1667 24 34.4053 26.2386 34.4053 29Z"/>
</svg>
