<svg width="37" height="37" viewBox="0 0 37 37" xmlns="http://www.w3.org/2000/svg">
<path d="M15.043 11.3369V13.5869H12.793V15.0869H15.043V17.3369H16.543V15.0869H18.793V13.5869H16.543V11.3369H15.043Z"/>
<path d="M13.543 19.5869C13.1287 19.5869 12.793 19.9227 12.793 20.3369C12.793 20.7511 13.1287 21.0869 13.543 21.0869H24.043C24.4572 21.0869 24.793 20.7511 24.793 20.3369C24.793 19.9227 24.4572 19.5869 24.043 19.5869H13.543Z"/>
<path d="M12.793 24.0869C12.793 23.6727 13.1287 23.3369 13.543 23.3369H24.043C24.4572 23.3369 24.793 23.6727 24.793 24.0869C24.793 24.5011 24.4572 24.8369 24.043 24.8369H13.543C13.1287 24.8369 12.793 24.5011 12.793 24.0869Z"/>
<path d="M13.543 27.0869C13.1287 27.0869 12.793 27.4227 12.793 27.8369C12.793 28.2511 13.1287 28.5869 13.543 28.5869H24.043C24.4572 28.5869 24.793 28.2511 24.793 27.8369C24.793 27.4227 24.4572 27.0869 24.043 27.0869H13.543Z"/>
<path fill-rule="evenodd" clip-rule="evenodd" d="M13.543 5.33691C13.543 4.09428 14.5503 3.08691 15.793 3.08691H21.793C23.0356 3.08691 24.043 4.09428 24.043 5.33691H27.043C28.2856 5.33691 29.293 6.34428 29.293 7.58691V30.8369C29.293 32.0796 28.2856 33.0869 27.043 33.0869H10.543C9.30029 33.0869 8.29297 32.0796 8.29297 30.8369V7.58691C8.29297 6.34428 9.30029 5.33691 10.543 5.33691H13.543ZM21.793 9.08691C23.0356 9.08691 24.043 8.07959 24.043 6.83691H27.043C27.4572 6.83691 27.793 7.1727 27.793 7.58691V30.8369C27.793 31.2511 27.4572 31.5869 27.043 31.5869H10.543C10.1287 31.5869 9.79297 31.2511 9.79297 30.8369V7.58691C9.79297 7.1727 10.1287 6.83691 10.543 6.83691H13.543C13.543 8.07959 14.5503 9.08691 15.793 9.08691H21.793ZM15.793 4.58691C15.3787 4.58691 15.043 4.9227 15.043 5.33691V6.83691C15.043 7.25112 15.3787 7.58691 15.793 7.58691H21.793C22.2072 7.58691 22.543 7.25112 22.543 6.83691V5.33691C22.543 4.9227 22.2072 4.58691 21.793 4.58691H15.793Z"/>
</svg>
