<svg width="37" height="38" viewBox="0 0 37 38" xmlns="http://www.w3.org/2000/svg">
<path d="M29.002 21.6849C29.902 20.2203 30.427 18.5245 30.502 16.6745C30.502 16.5203 30.502 16.4432 30.502 16.2891C30.502 10.7391 26.152 6.26823 20.752 6.26823C15.352 6.26823 17.002 6.80781 15.502 7.8099C14.452 7.8099 13.477 8.04115 12.502 8.34948C13.177 7.57865 14.002 6.8849 14.902 6.34531C14.902 6.34531 14.902 6.34531 14.977 6.34531C16.627 5.34323 18.577 4.72656 20.677 4.72656C26.902 4.72656 31.927 9.89115 31.927 16.2891C31.927 22.687 31.927 16.5203 31.927 16.5974C31.927 18.6016 31.327 20.3745 30.502 21.9932C30.502 21.9932 30.502 22.0703 30.427 22.1474C29.902 23.0724 29.227 23.9974 28.402 24.6911C28.702 23.6891 28.852 22.687 28.927 21.6078L29.002 21.6849Z"/>
<path fill-rule="evenodd" clip-rule="evenodd" d="M27.502 20.9141C27.502 27.312 22.477 32.4766 16.252 32.4766C10.027 32.4766 5.00195 27.312 5.00195 20.9141C5.00195 14.5161 10.027 9.35156 16.252 9.35156C22.477 9.35156 27.502 14.5161 27.502 20.9141ZM26.002 20.9141C26.002 26.4641 21.652 30.9349 16.252 30.9349C10.852 30.9349 6.50195 26.4641 6.50195 20.9141C6.50195 15.3641 10.852 10.8932 16.252 10.8932C21.652 10.8932 26.002 15.3641 26.002 20.9141Z"/>
<path d="M18.8016 19.4495C18.8016 18.6016 18.5766 17.985 18.1266 17.5995C17.6766 17.2141 17.0016 16.9829 16.0266 16.9829C15.0516 16.9829 14.5266 17.137 14.0766 17.5225C13.6266 17.9079 13.2516 18.4475 13.1016 19.1412H17.3016V20.2975H12.9516C12.9516 20.4516 12.9516 20.6058 12.9516 20.9141C12.9516 21.2225 12.9516 21.3766 12.9516 21.5308H17.3016V22.687H13.1016C13.2516 23.4579 13.6266 23.9975 14.0766 24.3058C14.5266 24.6141 15.2016 24.8454 16.0266 24.8454C16.8516 24.8454 17.6766 24.6141 18.1266 24.2287C18.5766 23.8433 18.8016 23.2266 18.8016 22.4558C18.8016 22.3787 20.6016 22.3787 20.6016 22.3787C20.6016 23.6891 20.2266 24.6141 19.4016 25.385C18.5766 26.1558 17.5266 26.4641 16.1016 26.4641C14.6766 26.4641 13.8516 26.1558 12.9516 25.462C12.1266 24.7683 11.6016 23.8433 11.3016 22.61H10.1016V21.4537H11.1516C11.1516 21.2995 11.1516 21.1454 11.1516 20.837C11.1516 20.5287 11.1516 20.3745 11.1516 20.2204H10.1016V19.0641H11.3016C11.6016 17.8308 12.1266 16.9058 12.9516 16.212C13.7766 15.5183 14.8266 15.21 16.1016 15.21C17.3766 15.21 18.5766 15.5954 19.4016 16.2891C20.2266 17.06 20.6016 17.985 20.6016 19.2183C20.6016 19.2954 18.8016 19.2954 18.8016 19.2954V19.4495Z"/>
</svg>
