<svg width="41" height="41" viewBox="0 0 41 41" xmlns="http://www.w3.org/2000/svg">
<path d="M5.01172 10.662C5.01172 7.81112 7.32284 5.5 10.1737 5.5C11.3586 5.5 12.451 5.8999 13.322 6.57089C14.1929 5.8999 15.2852 5.5 16.4701 5.5C17.8416 5.5 19.0881 6.03536 20.0118 6.9067C20.9355 6.03536 22.1819 5.5 23.5535 5.5C24.7383 5.5 25.8306 5.89989 26.7016 6.57085C27.5725 5.89989 28.6648 5.5 29.8496 5.5C32.7006 5.5 35.0117 7.81112 35.0117 10.662C35.0117 11.8441 34.6136 12.9342 33.9456 13.8041C34.6168 14.7543 35.0117 15.915 35.0117 17.1667C35.0117 18.5047 34.5605 19.7384 33.8031 20.7223C34.5567 21.6192 35.0117 22.7777 35.0117 24.0417C35.0117 26.8927 32.7006 29.2037 29.8497 29.2037C28.6648 29.2037 27.5726 28.8038 26.7016 28.1329C26.488 28.2975 26.2611 28.4458 26.0226 28.5758C26.0161 28.5906 26.0088 28.6081 26.001 28.6285C25.9487 28.7646 25.8951 28.9663 25.8451 29.2301V35.5H24.1784V29.1538C24.1784 29.1044 24.1828 29.0552 24.1916 29.0065C24.2531 28.6637 24.3338 28.3207 24.4451 28.031C24.5009 27.8857 24.5733 27.7298 24.6706 27.5865C24.7644 27.448 24.914 27.2728 25.1417 27.1564C25.4993 26.9736 25.8218 26.7307 26.0956 26.4407C26.2531 26.2739 26.4722 26.1794 26.7016 26.1794C26.9309 26.1794 27.1501 26.2739 27.3075 26.4407C27.9459 27.1168 28.8481 27.5371 29.8497 27.5371C31.7801 27.5371 33.3451 25.9722 33.3451 24.0417C33.3451 22.9788 32.8717 22.0275 32.1214 21.3851C31.9435 21.2327 31.8378 21.0126 31.8304 20.7784C31.8231 20.5443 31.9145 20.3178 32.0825 20.1546C32.8622 19.3965 33.3451 18.3387 33.3451 17.1667C33.3451 16.0765 32.9275 15.0858 32.2421 14.3427C31.9351 14.0098 31.9501 13.4924 32.2761 13.178C32.9361 12.5412 33.3451 11.6501 33.3451 10.662C33.3451 8.79389 31.8795 7.26804 30.0354 7.17152V7.19622C29.2428 7.19622 28.4271 7.58895 27.8976 8.23195C27.3853 8.85417 27.1501 9.69633 27.469 10.6532C27.6146 11.0898 27.3786 11.5617 26.9419 11.7072C26.5053 11.8528 26.0334 11.6168 25.8878 11.1802C25.5228 10.0852 25.6131 9.04467 25.9992 8.16486C25.368 7.54646 24.5056 7.16667 23.5535 7.16667C22.372 7.16667 21.3271 7.75207 20.6931 8.65238C20.5371 8.874 20.2829 9.00592 20.0118 9.00592C19.7406 9.00592 19.4865 8.874 19.3304 8.65238C18.6964 7.75207 17.6516 7.16667 16.4701 7.16667C15.4684 7.16667 14.5662 7.58693 13.9279 8.26311C13.7705 8.42987 13.5512 8.52437 13.3219 8.52437C13.0926 8.52437 12.8734 8.42987 12.716 8.26311C12.0776 7.58693 11.1755 7.16667 10.1737 7.16667C8.24332 7.16667 6.67839 8.7316 6.67839 10.662C6.67839 11.6637 7.09865 12.5659 7.77483 13.2042C7.94159 13.3617 8.0361 13.5809 8.0361 13.8102C8.0361 14.0396 7.94159 14.2587 7.77484 14.4162C7.09866 15.0545 6.67839 15.9567 6.67839 16.9584C6.67839 18.1398 7.26379 19.1847 8.16411 19.8187C8.3858 19.9747 8.51764 20.2289 8.51764 20.5001C8.51764 20.7712 8.3858 21.0253 8.16411 21.1814C7.26379 21.8154 6.67839 22.8602 6.67839 24.0417C6.67839 25.6945 7.8263 27.0812 9.3693 27.4442C9.74572 27.5328 10.0117 27.8687 10.0117 28.2554V29.9446C10.0117 30.3538 10.3434 30.6853 10.7525 30.6853C11.1616 30.6853 11.4932 30.3537 11.4932 29.9447V27.798C11.4932 27.4996 11.6527 27.224 11.9115 27.0753C12.9636 26.4711 13.6691 25.3383 13.6691 24.0417C13.6691 22.8602 13.0837 21.8154 12.1834 21.1814C12.1364 21.1482 12.0934 21.1107 12.0548 21.0695C11.4836 20.6937 10.8006 20.4999 10.0116 20.4999C9.55139 20.4999 9.1783 20.1268 9.1783 19.6666C9.1783 19.2064 9.55147 18.8333 10.0116 18.8333C10.9541 18.8333 11.8351 19.0405 12.6126 19.4624C13.2653 18.8267 13.6691 17.9397 13.6691 16.9584C13.6691 15.9567 13.2489 15.0545 12.5727 14.4162C12.406 14.2587 12.3114 14.0395 12.3114 13.8102C12.3114 13.5808 12.406 13.3617 12.5727 13.2042C12.6218 13.1578 12.6696 13.1101 12.716 13.061C12.8734 12.8942 13.0926 12.7997 13.3219 12.7997C13.5512 12.7997 13.7705 12.8942 13.9279 13.061C14.5662 13.7372 15.4684 14.1574 16.4701 14.1574C17.6516 14.1574 18.6964 13.572 19.3304 12.6717C19.4865 12.45 19.7406 12.3182 20.0118 12.3182C20.2829 12.3182 20.5371 12.45 20.6931 12.6717C21.3271 13.572 22.372 14.1574 23.5535 14.1574C23.8936 14.1574 24.2211 14.1091 24.5301 14.0194C24.8517 13.926 25.1981 14.0343 25.4093 14.2944C25.6205 14.5545 25.6553 14.9157 25.4979 15.2114C25.1878 15.7936 25.0117 16.4583 25.0117 17.1667C25.0117 17.9203 25.2111 18.6255 25.56 19.2343C26.5092 19.7678 27.1308 20.294 27.4971 20.9045C27.9297 21.6256 27.929 22.3523 27.9284 22.9362V22.9999C27.9284 23.4602 27.5553 23.8333 27.0951 23.8333C26.6348 23.8333 26.2617 23.4602 26.2617 22.9999C26.2617 22.3442 26.2445 22.0562 26.068 21.762C25.9237 21.5216 25.6251 21.2099 24.9431 20.8031C24.8798 20.7956 24.8166 20.7807 24.7549 20.7581C24.3813 20.6213 23.9771 20.5463 23.5535 20.5463C21.623 20.5463 20.0581 22.1112 20.0581 24.0417C20.0581 25.3988 20.8313 26.5768 21.9651 27.1564C22.0533 27.2015 22.1324 27.2545 22.2029 27.3116C22.3982 27.4697 22.5117 27.7078 22.5117 27.9592V35.5H20.8451V28.4368C19.374 27.5285 18.3914 25.9005 18.3914 24.0417C18.3914 21.1908 20.7026 18.8797 23.5535 18.8797L23.6009 18.8799C23.4346 18.3378 23.3451 17.7624 23.3451 17.1667C23.3451 16.705 23.3988 16.2552 23.5006 15.8238C22.1499 15.8102 20.9236 15.2775 20.0118 14.4173C19.0881 15.2887 17.8416 15.8241 16.4701 15.8241C16.0214 15.8241 15.5859 15.7667 15.1707 15.659C15.2785 16.0742 15.3358 16.5097 15.3358 16.9584C15.3358 18.3299 14.8005 19.5763 13.9291 20.5001C14.8005 21.4237 15.3358 22.6702 15.3358 24.0417C15.3358 25.7809 14.4753 27.3183 13.1599 28.2527V29.9447C13.1599 31.2742 12.0821 32.352 10.7525 32.352C9.42288 32.352 8.34505 31.2742 8.34505 29.9446V28.8702C6.39699 28.1319 5.01173 26.2494 5.01173 24.0417C5.01173 22.6702 5.54709 21.4237 6.41843 20.5001C5.54709 19.5763 5.01173 18.3299 5.01173 16.9584C5.01173 15.7735 5.41163 14.6812 6.08262 13.8102C5.41163 12.9392 5.01172 11.8469 5.01172 10.662Z"/>
</svg>
