<svg width="41" height="41" viewBox="0 0 41 41" fill="none" xmlns="http://www.w3.org/2000/svg">
<path d="M20.377 20.2441V30.2441M20.377 30.2441L25.4714 26.9108M20.377 30.2441L15.2827 26.9108M22.0751 5.24559C21.913 5.24414 21.7309 5.24414 21.5228 5.24414H13.9245C12.0225 5.24414 11.0707 5.24414 10.3442 5.60745C9.70519 5.92703 9.18601 6.4366 8.8604 7.0638C8.49023 7.77684 8.49023 8.71096 8.49023 10.5778V29.9111C8.49023 31.778 8.49023 32.7109 8.8604 33.424C9.18601 34.0512 9.70519 34.5616 10.3442 34.8812C11.07 35.2441 12.0206 35.2441 13.919 35.2441H26.8351C28.7335 35.2441 29.6827 35.2441 30.4085 34.8812C31.0475 34.5616 31.5684 34.0511 31.894 33.4239C32.2638 32.7116 32.2638 31.78 32.2638 29.9168V15.7869C32.2638 15.5824 32.2638 15.4035 32.2622 15.2441M22.0751 5.24559C22.5602 5.24992 22.867 5.26722 23.16 5.33624C23.5065 5.4179 23.8375 5.55291 24.1414 5.73568C24.484 5.94175 24.7782 6.23051 25.3652 6.80664L30.6727 12.0158C31.26 12.5923 31.5521 12.8797 31.7621 13.2161C31.9483 13.5144 32.0861 13.8396 32.1693 14.1797C32.2396 14.4671 32.2576 14.7683 32.2622 15.2441M22.0751 5.24559V9.91081C22.0751 11.7776 22.0751 12.7104 22.4453 13.4235C22.7709 14.0507 23.2901 14.5616 23.9291 14.8812C24.6549 15.2441 25.6055 15.2441 27.5039 15.2441H32.2622M32.2622 15.2441H32.2642" stroke="currentColor" stroke-width="2" stroke-linecap="round" stroke-linejoin="round"/>
</svg>
