<svg width="41" height="41" viewBox="0 0 41 41" xmlns="http://www.w3.org/2000/svg">
<path fill-rule="evenodd" clip-rule="evenodd" d="M5.22535 13.1073C4.81601 12.4511 5.0252 11.7107 5.69233 11.1036C6.01715 10.808 6.39423 10.6102 6.71952 10.5346C7.05259 10.4571 7.22085 10.5255 7.28873 10.5799C8.79404 11.7866 9.76846 12.0992 10.6175 12.1734C10.8591 12.1945 11.0416 12.2003 11.1904 12.2051C11.561 12.2168 11.7217 12.222 12.0625 12.4405L12.9622 11.0375C12.2012 10.5496 11.518 10.5348 11.0477 10.5247C10.9413 10.5223 10.8458 10.5203 10.7627 10.5131C10.3187 10.4743 9.64729 10.3345 8.33115 9.2795C7.72752 8.79562 6.97223 8.76457 6.34179 8.91125C5.70358 9.05975 5.07718 9.40992 4.57062 9.87092C3.575 10.7768 2.80988 12.3841 3.81123 13.9894C4.32855 14.8187 4.90287 15.5307 5.43242 16.1073C5.50839 15.9648 5.60602 15.8342 5.72598 15.7185C6.02854 15.4269 6.43541 15.267 6.89509 15.2298C6.35988 14.6748 5.75548 13.9572 5.22535 13.1073Z"/>
<path fill-rule="evenodd" clip-rule="evenodd" d="M10.384 19.7402C10.3046 19.3814 10.0481 18.8949 9.55734 18.4426C9.06659 17.9901 8.54484 17.7593 8.16241 17.6925C7.95036 17.6554 7.83856 17.6726 7.79032 17.6871C7.77604 17.7329 7.76025 17.8386 7.8043 18.0376C7.88375 18.3965 8.14024 18.883 8.631 19.3353C9.12175 19.7876 9.6435 20.0185 10.0259 20.0853C10.2379 20.1224 10.3498 20.1051 10.398 20.0907C10.4123 20.0449 10.4281 19.9392 10.384 19.7402ZM10.3853 20.1191C10.3853 20.1191 10.3863 20.1166 10.3897 20.1121C10.3872 20.1171 10.3853 20.1191 10.3853 20.1191ZM10.4205 20.0824C10.4252 20.0791 10.4278 20.0781 10.4278 20.0781C10.4278 20.0781 10.4258 20.08 10.4205 20.0824ZM7.80307 17.6587C7.80307 17.6587 7.80208 17.6613 7.79865 17.6657C7.80112 17.6608 7.80307 17.6587 7.80307 17.6587ZM7.76777 17.6955C7.76316 17.6988 7.76044 17.6998 7.76044 17.6998C7.76044 17.6998 7.76259 17.6979 7.76777 17.6955ZM11.6296 21.226C12.5482 20.3406 12.1576 18.5766 10.7573 17.2859C9.357 15.9952 7.47723 15.6666 6.55869 16.5519C5.64014 17.4372 6.03068 19.2012 7.43098 20.4919C8.83125 21.7826 10.7111 22.1112 11.6296 21.226Z"/>
<path fill-rule="evenodd" clip-rule="evenodd" d="M34.7984 13.1073C35.2077 12.4511 34.9985 11.7107 34.3314 11.1036C34.0066 10.808 33.6295 10.6103 33.3042 10.5346C32.9711 10.4571 32.8029 10.5255 32.735 10.5799C31.2297 11.7866 30.2553 12.0992 29.4062 12.1734C29.1646 12.1945 28.9821 12.2003 28.8334 12.2051C28.4628 12.2168 28.302 12.222 27.9612 12.4405L27.0615 11.0375C27.8225 10.5496 28.5058 10.5348 28.976 10.5247C29.0824 10.5223 29.1779 10.5203 29.261 10.5131C29.705 10.4743 30.3764 10.3345 31.6926 9.2795C32.2962 8.79562 33.0515 8.76457 33.6819 8.91125C34.3202 9.05975 34.9465 9.40992 35.4531 9.87092C36.4487 10.7768 37.2139 12.3841 36.2125 13.9894C35.6843 14.8362 35.0967 15.5606 34.5579 16.1435C34.4795 15.9868 34.3757 15.8438 34.2457 15.7185C33.9537 15.4371 33.5645 15.2783 33.1244 15.2342C33.6607 14.6785 34.2669 13.9594 34.7984 13.1073Z"/>
<path fill-rule="evenodd" clip-rule="evenodd" d="M29.5875 19.7402C29.6669 19.3814 29.9234 18.8949 30.4142 18.4426C30.9049 17.9901 31.4267 17.7593 31.8091 17.6925C32.0212 17.6554 32.1329 17.6726 32.1812 17.6871C32.1955 17.7329 32.2112 17.8386 32.1672 18.0376C32.0877 18.3965 31.8312 18.883 31.3405 19.3353C30.8497 19.7876 30.328 20.0185 29.9456 20.0853C29.7336 20.1224 29.6217 20.1051 29.5735 20.0907C29.5592 20.0449 29.5434 19.9392 29.5875 19.7402ZM29.5862 20.1191C29.5862 20.1191 29.5852 20.1166 29.5818 20.1121C29.5843 20.1171 29.5862 20.1191 29.5862 20.1191ZM29.551 20.0824C29.5463 20.0791 29.5437 20.0781 29.5437 20.0781C29.5437 20.0781 29.5457 20.08 29.551 20.0824ZM32.1684 17.6587C32.1684 17.6587 32.1694 17.6613 32.1728 17.6657C32.1704 17.6608 32.1684 17.6587 32.1684 17.6587ZM32.2037 17.6955C32.2083 17.6988 32.2111 17.6998 32.2111 17.6998C32.2111 17.6998 32.2089 17.6979 32.2037 17.6955ZM28.3419 21.226C27.4233 20.3406 27.8139 18.5766 29.2142 17.2859C30.6145 15.9952 32.4942 15.6666 33.4128 16.5519C34.3313 17.4372 33.9408 19.2012 32.5405 20.4919C31.1402 21.7826 29.2604 22.1112 28.3419 21.226Z"/>
<path fill-rule="evenodd" clip-rule="evenodd" d="M15.5627 16.5094C15.9236 17.3033 16.3827 17.9516 16.7217 18.2923C17.3427 18.9164 17.6297 19.9193 17.799 20.8947C17.9761 21.9147 18.0558 23.1233 18.1203 24.3343C18.1331 24.5733 18.1452 24.8124 18.1573 25.0512C18.2076 26.0418 18.2574 27.025 18.3472 27.9503C18.427 28.7714 18.5352 29.5087 18.6901 30.1298C18.7979 30.0364 18.9148 29.9368 19.0152 29.8596C19.1247 29.7754 19.2582 29.681 19.4057 29.6053C19.5458 29.5334 19.7612 29.4451 20.0198 29.4451C20.2837 29.4451 20.5008 29.5366 20.6456 29.6159C20.7947 29.6977 20.9247 29.7988 21.0277 29.8872C21.0612 29.9158 21.0954 29.9465 21.1299 29.9784C21.2308 29.4206 21.2871 28.7805 21.3162 28.0732C21.3467 27.3298 21.3465 26.5613 21.3462 25.7711C21.3462 25.3776 21.3461 24.9788 21.3497 24.5751C21.3606 23.3897 21.4047 22.1828 21.5998 21.1168C21.7928 20.0618 22.1529 19.0289 22.8858 18.2923C23.3834 17.7923 23.9387 17.0577 24.3587 16.2428C24.7832 15.4197 25.0324 14.5873 25.01 13.8751C24.9891 13.2078 24.7348 12.6305 24.0732 12.1845C23.3645 11.7067 22.1157 11.3327 20.0198 11.3327C17.9359 11.3327 16.7018 11.7364 15.9972 12.2455C15.3286 12.7287 15.0536 13.3663 15.0159 14.096C14.9765 14.8582 15.2017 15.7153 15.5627 16.5094ZM15.0212 10.8946C16.1242 10.0976 17.7595 9.66602 20.0198 9.66602C22.2682 9.66602 23.9024 10.0593 25.0049 10.8026C26.1546 11.5777 26.6398 12.6753 26.6758 13.8228C26.7105 14.9256 26.3342 16.0483 25.8401 17.0067C25.3416 17.9735 24.6852 18.847 24.0672 19.4679C23.6846 19.8525 23.4087 20.4907 23.2392 21.4167C23.0719 22.3315 23.0271 23.4153 23.0163 24.5903C23.013 24.959 23.013 25.3396 23.0131 25.7243C23.0132 26.5351 23.0133 27.3646 22.9814 28.1416C22.9342 29.2901 22.8154 30.4336 22.4867 31.3909C22.4246 31.5714 22.2949 31.8436 22.0071 32.0194C21.684 32.2168 21.353 32.1806 21.1369 32.1077C20.9407 32.0415 20.7841 31.9302 20.6845 31.8518C20.5765 31.7667 20.4747 31.6708 20.3898 31.5878C20.3211 31.5204 20.2625 31.4614 20.2097 31.408C20.1328 31.3306 20.068 31.2652 20.0012 31.2042C19.9147 31.2725 19.8374 31.3403 19.7469 31.4198C19.6771 31.4811 19.5995 31.5493 19.5037 31.6299C19.34 31.7676 19.0366 32.0201 18.6932 32.1189C18.4908 32.1772 18.1852 32.2086 17.8756 32.0448C17.5741 31.8853 17.4207 31.6203 17.3428 31.413C16.9882 30.4684 16.8039 29.301 16.6884 28.1114C16.5945 27.1438 16.5422 26.1118 16.4918 25.1184C16.48 24.8839 16.4682 24.6517 16.456 24.423C16.3912 23.2057 16.3148 22.0896 16.1569 21.1798C15.9912 20.2253 15.7642 19.693 15.5403 19.4679C15.0346 18.9598 14.4712 18.1358 14.0454 17.1992C13.6196 16.2626 13.2935 15.1308 13.3514 14.0099C13.4111 12.8567 13.8821 11.7175 15.0212 10.8946ZM19.8452 31.0779C19.8426 31.0766 19.8422 31.0762 19.8442 31.0774L19.8452 31.0779Z"/>
</svg>
