<svg width="37" height="37" viewBox="0 0 37 37" xmlns="http://www.w3.org/2000/svg">
<path fill-rule="evenodd" clip-rule="evenodd" d="M14.752 22.8514C14.752 22.8514 13.6291 21.2749 13.252 21.3608C9.1988 22.2839 5.00195 24.9473 5.00195 27.7788V31.8514H32.002V27.7788C32.002 24.9473 27.8051 22.2839 23.752 21.3608C23.3749 21.2749 22.252 22.8514 22.252 22.8514H19.7658C18.9266 22.8515 18.6061 22.8515 18.163 22.8514C17.8892 22.8514 17.5687 22.8514 17.0499 22.8514H14.752ZM19.7658 24.3514C19.7657 24.3514 19.7659 24.3514 19.7658 24.3514C18.9267 24.3515 18.6058 24.3515 18.1627 24.3514C17.8888 24.3514 17.5683 24.3514 17.0499 24.3514H13.9788L13.5302 23.7217L13.5229 23.7115L13.4928 23.67C13.4656 23.6329 13.4255 23.5787 13.3759 23.5133C13.2751 23.3806 13.142 23.2109 13.0034 23.0488C12.9842 23.0263 12.9655 23.0047 12.9473 22.984C11.3089 23.4361 9.70468 24.1805 8.49118 25.0659C7.04924 26.1179 6.50195 27.1015 6.50195 27.7788V30.3514H30.502V27.7788C30.502 27.1015 29.9547 26.1179 28.5127 25.0659C27.2992 24.1805 25.6951 23.4361 24.0566 22.984C24.0385 23.0047 24.0197 23.0263 24.0005 23.0488C23.8619 23.2109 23.7288 23.3806 23.6281 23.5133C23.5784 23.5787 23.5383 23.6329 23.5111 23.67L23.4811 23.7115L23.4743 23.7208L23.4737 23.7217L23.0251 24.3514H19.7658Z"/>
<path fill-rule="evenodd" clip-rule="evenodd" d="M24.502 28.8516V24.3516H26.002V28.8516H24.502Z"/>
<path fill-rule="evenodd" clip-rule="evenodd" d="M27.502 27.3516H23.002V25.8516H27.502V27.3516Z"/>
<path fill-rule="evenodd" clip-rule="evenodd" d="M18.502 18.3516C21.8157 18.3516 24.502 15.6653 24.502 12.3516C24.502 9.03784 21.8157 6.35156 18.502 6.35156C15.1882 6.35156 12.502 9.03784 12.502 12.3516C12.502 15.6653 15.1882 18.3516 18.502 18.3516ZM18.502 19.8516C22.6441 19.8516 26.002 16.4937 26.002 12.3516C26.002 8.20946 22.6441 4.85156 18.502 4.85156C14.3599 4.85156 11.002 8.20946 11.002 12.3516C11.002 16.4937 14.3599 19.8516 18.502 19.8516Z"/>
</svg>
