<svg width="37" height="37" viewBox="0 0 37 37" xmlns="http://www.w3.org/2000/svg">
<path d="M17.168 15.4609V12.8359H18.668V15.4609H21.293V16.9609H18.668V19.5859H17.168V16.9609H14.543V15.4609H17.168Z"/>
<path fill-rule="evenodd" clip-rule="evenodd" d="M5.58603 23.6932C5.55805 23.5787 5.54321 23.4591 5.54321 23.3359V9.08594C5.54321 8.25749 6.21479 7.58594 7.04321 7.58594H29.5432C30.3717 7.58594 31.0432 8.25749 31.0432 9.08594V23.3359C31.0432 23.5188 31.0105 23.694 30.9506 23.856L33.2844 27.4255C33.6105 27.9244 33.2527 28.5859 32.6567 28.5859H3.89279C3.30446 28.5859 2.94521 27.9394 3.25592 27.4399L5.58603 23.6932ZM7.04321 9.08594H29.5432V23.3359H7.04321V9.08594Z"/>
</svg>
