<svg width="41" height="41" viewBox="0 0 41 41" xmlns="http://www.w3.org/2000/svg">
<path fill-rule="evenodd" clip-rule="evenodd" d="M16.6784 3.83398C17.1386 3.83398 17.5117 4.20708 17.5117 4.66732V11.6199C17.5117 12.725 17.0727 13.7848 16.2913 14.5662L15.8715 14.9862C15.1271 15.7305 15.1271 16.9375 15.8715 17.6818C16.4516 18.262 17.3379 18.4058 18.0718 18.0389L18.2738 17.9379C19.3678 17.3909 20.6556 17.3909 21.7496 17.9379L21.9516 18.0389C22.6856 18.4058 23.5718 18.262 24.152 17.6818C24.8964 16.9375 24.8964 15.7305 24.152 14.9862L23.7321 14.5662C22.9507 13.7848 22.5117 12.725 22.5117 11.6199V4.66732C22.5117 4.20708 22.8848 3.83398 23.3451 3.83398C23.8053 3.83398 24.1784 4.20708 24.1784 4.66732V6.08694C30.4356 7.89251 35.0117 13.6622 35.0117 20.5007C35.0117 27.3391 30.4356 33.1088 24.1784 34.9144V36.334C24.1784 36.7942 23.8053 37.1673 23.3451 37.1673C22.8848 37.1673 22.5117 36.7942 22.5117 36.334V29.3814C22.5117 28.2763 22.9507 27.2165 23.7321 26.4351L24.152 26.0152C24.8964 25.2708 24.8964 24.0638 24.152 23.3195C23.5718 22.7393 22.6856 22.5955 21.9516 22.9624L21.7496 23.0634C20.6556 23.6104 19.3678 23.6104 18.2738 23.0634L18.0718 22.9624C17.3379 22.5955 16.4516 22.7393 15.8715 23.3195C15.1271 24.0638 15.1271 25.2708 15.8715 26.0152L16.2913 26.4351C17.0727 27.2165 17.5117 28.2763 17.5117 29.3814V36.334C17.5117 36.7942 17.1386 37.1673 16.6784 37.1673C16.2181 37.1673 15.8451 36.7942 15.8451 36.334V34.9144C9.58788 33.1088 5.01172 27.3391 5.01172 20.5007C5.01172 13.6622 9.58788 7.89251 15.8451 6.08694V4.66732C15.8451 4.20708 16.2181 3.83398 16.6784 3.83398ZM15.8451 7.83129C10.5218 9.58098 6.67839 14.592 6.67839 20.5007C6.67839 26.4094 10.5218 31.4204 15.8451 33.1701V29.3814C15.8451 28.7183 15.5816 28.0824 15.1128 27.6136L14.6929 27.1937C13.2976 25.7984 13.2976 23.5362 14.6929 22.1409C15.7804 21.0535 17.4416 20.7839 18.8171 21.4716L19.0191 21.5727C19.644 21.8851 20.3795 21.8851 21.0043 21.5727L21.2063 21.4716C22.5818 20.7839 24.2431 21.0535 25.3306 22.1409C26.7258 23.5362 26.7258 25.7984 25.3306 27.1937L24.9106 27.6136C24.4418 28.0824 24.1784 28.7183 24.1784 29.3814V33.1701C29.5016 31.4204 33.3451 26.4094 33.3451 20.5007C33.3451 14.592 29.5016 9.58098 24.1784 7.83129V11.6199C24.1784 12.283 24.4418 12.9189 24.9106 13.3877L25.3306 13.8076C26.7258 15.2029 26.7258 17.4651 25.3306 18.8604C24.2431 19.9478 22.5818 20.2174 21.2063 19.5297L21.0043 19.4287C20.3795 19.1162 19.644 19.1162 19.0191 19.4287L18.8171 19.5297C17.4416 20.2174 15.7804 19.9478 14.6929 18.8604C13.2976 17.4651 13.2976 15.2029 14.6929 13.8076L15.1128 13.3877C15.5816 12.9189 15.8451 12.283 15.8451 11.6199V7.83129Z"/>
</svg>
