<svg width="37" height="36" viewBox="0 0 37 36" xmlns="http://www.w3.org/2000/svg">
<path fill-rule="evenodd" clip-rule="evenodd" d="M7.38431 6.375C6.06857 6.375 5.00195 7.45431 5.00195 8.78573V23.25C5.00195 24.5814 6.06857 25.6607 7.38431 25.6607H15.3254V27.2678H12.1489V28.875H24.8548V27.2678H21.6784V25.6607H29.6196C30.9353 25.6607 32.002 24.5814 32.002 23.25V8.78573C32.002 7.45431 30.9353 6.375 29.6196 6.375H7.38431ZM16.9137 27.2678H20.0902V25.6607H16.9137V27.2678ZM6.59019 8.78573C6.59019 8.34195 6.94573 7.98218 7.38431 7.98218H29.6196C30.0582 7.98218 30.4138 8.34195 30.4138 8.78573V23.25C30.4138 23.6938 30.0582 24.0536 29.6196 24.0536H7.38431C6.94573 24.0536 6.59019 23.6938 6.59019 23.25V8.78573ZM12.1489 9.58927H10.5607V11.1965H8.97245V12.8035H10.5607V14.4107H12.1489V12.8035H13.7372V11.1965H12.1489V9.58927ZM9.76655 16.0178C9.32795 16.0178 8.97238 16.3776 8.97238 16.8215V20.0357C8.97238 20.4795 9.32795 20.8393 9.76655 20.8393H12.943C13.3816 20.8393 13.7371 20.4795 13.7371 20.0357V16.8215C13.7371 16.3776 13.3816 16.0178 12.943 16.0178H9.76655ZM10.5607 19.2322V17.625H12.1489V19.2322H10.5607ZM16.1197 10.3928C16.1197 9.94905 16.4753 9.58927 16.9139 9.58927H20.0903C20.5289 9.58927 20.8845 9.94905 20.8845 10.3928V13.6072C20.8845 14.051 20.5289 14.4107 20.0903 14.4107H16.9139C16.4753 14.4107 16.1197 14.051 16.1197 13.6072V10.3928ZM17.708 11.1965V12.8035H19.2962V11.1965H17.708ZM16.9139 16.0178C16.4753 16.0178 16.1197 16.3776 16.1197 16.8215V20.0357C16.1197 20.4795 16.4753 20.8393 16.9139 20.8393H20.0903C20.5289 20.8393 20.8845 20.4795 20.8845 20.0357V16.8215C20.8845 16.3776 20.5289 16.0178 20.0903 16.0178H16.9139ZM17.708 19.2322V17.625H19.2962V19.2322H17.708ZM23.2667 10.3928C23.2667 9.94905 23.6223 9.58927 24.0608 9.58927H27.2373C27.6759 9.58927 28.0315 9.94905 28.0315 10.3928V13.6072C28.0315 14.051 27.6759 14.4107 27.2373 14.4107H24.0608C23.6223 14.4107 23.2667 14.051 23.2667 13.6072V10.3928ZM24.855 11.1965V12.8035H26.4432V11.1965H24.855Z"/>
</svg>
