<svg width="35" height="36" viewBox="0 0 35 36" xmlns="http://www.w3.org/2000/svg">
<path fill-rule="evenodd" clip-rule="evenodd" d="M2.83535 2.49194C2.36025 2.49194 1.97241 2.87978 1.97241 3.35489C1.97241 20.0127 15.479 33.5192 32.1367 33.5192C32.6118 33.5192 32.9997 33.1314 32.9997 32.6563V26.2666C32.9997 25.7915 32.6118 25.4036 32.1367 25.4036C29.7612 25.4036 27.4439 25.0255 25.2913 24.308H25.2817C24.9908 24.2013 24.6514 24.2789 24.409 24.5116L19.881 29.0397L19.2507 28.7197C13.8888 25.9757 9.48683 21.5931 6.76224 16.2312L6.44228 15.601L10.9703 11.0729C11.2127 10.8305 11.2903 10.5009 11.1933 10.1906C10.4855 8.04776 10.1074 5.7498 10.1074 3.35489C10.1074 2.87978 9.71953 2.49194 9.24443 2.49194H2.83535ZM0.0332031 3.35489C0.0332031 1.81322 1.29369 0.552734 2.83535 0.552734H9.24443C10.7861 0.552734 12.0466 1.81322 12.0466 3.35489C12.0466 5.53649 12.3956 7.63083 13.0453 9.58943V9.59913C13.3458 10.5687 13.1228 11.6644 12.3472 12.4401L8.8275 15.9597C11.2806 20.4684 15.0136 24.1916 19.5222 26.6544L23.0419 23.1348C23.7982 22.3785 24.9132 22.1264 25.9022 22.4658C27.8511 23.1057 29.9648 23.4547 32.127 23.4547C33.6687 23.4547 34.9292 24.7152 34.9292 26.2569V32.6466C34.9292 34.1882 33.6687 35.4487 32.127 35.4487C14.4027 35.4584 0.0332031 21.0889 0.0332031 3.35489Z"/>
</svg>
