<svg width="37" height="37" viewBox="0 0 37 37" xmlns="http://www.w3.org/2000/svg">
<path fill-rule="evenodd" clip-rule="evenodd" d="M19.102 25.6484H21.127C26.3047 25.6484 30.502 21.4511 30.502 16.2734C30.502 11.0957 26.3047 6.89844 21.127 6.89844H15.877C10.6993 6.89844 6.50195 11.0957 6.50195 16.2734C6.50195 22.319 9.9491 25.934 13.5746 28.1127C15.3941 29.2062 17.2267 29.9127 18.6118 30.3456C18.7828 30.399 18.9464 30.4481 19.102 30.4932V25.6484ZM20.602 32.3984C20.602 32.3984 20.0287 32.302 19.102 32.051C15.1943 30.9924 5.00195 27.1856 5.00195 16.2734C5.00195 10.2674 9.87088 5.39844 15.877 5.39844H21.127C27.133 5.39844 32.002 10.2674 32.002 16.2734C32.002 22.2795 27.133 27.1484 21.127 27.1484H20.602V32.3984Z"/>
<path fill-rule="evenodd" clip-rule="evenodd" d="M21.2704 10.2596C22.0426 10.7732 22.6252 11.605 22.6252 12.7193C22.6252 13.9033 22.1476 14.7733 21.3742 15.3062C21.0538 15.527 20.7088 15.6713 20.3769 15.7661V16.9154C20.3769 17.5367 19.8732 18.0404 19.2519 18.0404C18.6305 18.0404 18.1269 17.5367 18.1269 16.9154V14.8174C18.1269 14.2253 18.5859 13.7345 19.1767 13.6949C19.5923 13.6671 19.9075 13.5844 20.0975 13.4534C20.1775 13.3984 20.2349 13.3352 20.278 13.2493C20.3227 13.1599 20.3752 12.9989 20.3752 12.7193C20.3752 12.4848 20.2829 12.305 20.0242 12.133C19.7302 11.9374 19.2577 11.7934 18.6904 11.7753C18.129 11.7575 17.5839 11.8672 17.1832 12.0614C16.7805 12.2567 16.6333 12.4753 16.5919 12.6369C16.4373 13.2387 15.8242 13.6013 15.2224 13.4467C14.6206 13.2921 14.258 12.679 14.4126 12.0772C14.671 11.0712 15.4235 10.4141 16.2016 10.0368C16.9819 9.6586 17.8987 9.499 18.7618 9.52645C19.619 9.55367 20.5336 9.76952 21.2704 10.2596Z"/>
<path d="M20.752 21.1484C20.752 21.9769 20.0804 22.6484 19.252 22.6484C18.4235 22.6484 17.752 21.9769 17.752 21.1484C17.752 20.32 18.4235 19.6484 19.252 19.6484C20.0804 19.6484 20.752 20.32 20.752 21.1484Z"/>
</svg>
