<svg width="41" height="41" viewBox="0 0 41 41" xmlns="http://www.w3.org/2000/svg">
<path d="M16.3451 8.56282V5.5H18.0117V8.62777L18.0095 8.6583C17.9906 8.91433 17.9331 9.20383 17.8031 9.50875C18.2091 9.65467 18.2361 10.1332 18.2493 10.3687C18.2515 10.4067 18.2532 10.4383 18.2562 10.4612C18.8526 10.739 19.1951 11.4389 19.0341 12.1133C18.8731 12.7878 18.2642 13.2038 17.6232 13.1117C17.4281 13.391 17.1941 13.6405 16.9262 13.8506C17.0132 14.528 16.6206 15.1718 15.9833 15.3425C15.346 15.5133 14.6841 15.1521 14.4208 14.5219C14.0839 14.4739 13.7564 14.3748 13.4478 14.2306C12.9387 14.6307 12.2034 14.575 11.7267 14.0713C11.3762 13.701 11.2546 13.1825 11.3651 12.7197C10.4758 12.9103 9.3593 13.3141 8.44489 14.0568C7.45927 14.8574 6.67839 16.0708 6.67839 17.9687V27.213H5.01172V17.9687C5.01172 15.5273 6.05226 13.8531 7.39405 12.7632C8.7048 11.6985 10.2717 11.2118 11.3693 11.0215C13.8096 10.5983 15.0594 10.0188 15.6901 9.53392C16.2466 9.106 16.3273 8.74967 16.3451 8.56282Z"/>
<path d="M24.488 5.5V8.81696C24.5248 9.04775 24.6469 9.39075 25.1295 9.76792C25.6771 10.1959 26.7139 10.685 28.6541 11.0215C29.7517 11.2118 31.3187 11.6985 32.6295 12.7632C33.9712 13.8531 35.0118 15.5273 35.0118 17.9687V27.213H33.3451V17.9687C33.3451 16.0708 32.5642 14.8574 31.5786 14.0568C30.562 13.231 29.2956 12.8243 28.3694 12.6637C26.2898 12.303 24.952 11.7446 24.1031 11.0812C23.2215 10.3921 22.9074 9.62033 22.8276 8.97733L22.8213 8.92625V5.5H24.488Z"/>
<path d="M28.9164 14.9453C27.7559 14.9453 26.8449 15.8801 26.8449 17.0254V17.6654C26.2408 17.1371 25.2731 17.0034 24.4898 17.3896C23.6442 17.8065 23.3057 18.6855 23.659 19.4375C23.355 19.7668 23.1049 20.134 22.9197 20.5294C21.9811 20.6447 21.2598 21.3341 21.2598 22.1676C21.2598 23.0011 21.9811 23.6905 22.9197 23.8058C23.1049 24.2012 23.355 24.5683 23.6589 24.8976C23.3057 25.6497 23.6443 26.5286 24.4898 26.9456C25.2731 27.3317 26.2408 27.198 26.8449 26.6696V35.5008H28.5116V17.0254C28.5116 16.7853 28.6915 16.612 28.9164 16.612C29.1112 16.612 29.2379 16.6486 29.3184 16.6854C29.3991 16.7223 29.4553 16.7695 29.4965 16.8173C29.5398 16.8676 29.5688 16.9214 29.5858 16.9651C29.5899 16.976 29.5929 16.9848 29.5949 16.9914V27.2138H31.2616V16.9486C31.2616 16.6121 31.1045 16.13 30.7588 15.729C30.3738 15.2824 29.765 14.9453 28.9164 14.9453Z"/>
<path d="M9.26447 15.729C9.64955 15.2824 10.2583 14.9453 11.107 14.9453C12.4696 14.9453 13.3451 16.0933 13.3451 17.2926V27.3509C13.6245 27.1426 14.0246 27.1026 14.3541 27.2786C14.7445 27.487 14.9007 27.9265 14.7376 28.3025C14.878 28.4671 14.9934 28.6508 15.0789 28.8485C15.5121 28.9061 15.8451 29.2509 15.8451 29.6676C15.8451 30.0843 15.5121 30.4291 15.0789 30.4867C14.9934 30.6844 14.878 30.868 14.7376 31.0326C14.9007 31.4086 14.7445 31.8481 14.3541 32.0566C14.0246 32.2325 13.6245 32.1926 13.3451 31.9842V35.5008H11.6784V17.2926C11.6784 16.8461 11.39 16.612 11.107 16.612C10.9121 16.612 10.7855 16.6486 10.705 16.6854C10.6242 16.7223 10.5681 16.7695 10.5268 16.8173C10.4834 16.8676 10.4545 16.9214 10.4376 16.9651C10.4334 16.976 10.4304 16.9848 10.4284 16.9914V27.2138H8.76172V16.9486C8.76172 16.6121 8.9188 16.13 9.26447 15.729Z"/>
<path d="M20.8451 13.0007C21.3053 13.0007 21.6784 12.6276 21.6784 12.1673C21.6784 11.7071 21.3053 11.334 20.8451 11.334C20.3848 11.334 20.0117 11.7071 20.0117 12.1673C20.0117 12.6276 20.3848 13.0007 20.8451 13.0007Z"/>
<path d="M19.1781 15.5007C19.6383 15.5007 20.0114 15.1276 20.0114 14.6673C20.0114 14.2071 19.6383 13.834 19.1781 13.834C18.7178 13.834 18.3447 14.2071 18.3447 14.6673C18.3447 15.1276 18.7178 15.5007 19.1781 15.5007Z"/>
<path d="M17.0954 27.3548C17.0954 27.8151 16.7223 28.1882 16.262 28.1882C15.8018 28.1882 15.4287 27.8151 15.4287 27.3548C15.4287 26.8946 15.8018 26.5215 16.262 26.5215C16.7223 26.5215 17.0954 26.8946 17.0954 27.3548Z"/>
<path d="M17.512 30.5007C17.9723 30.5007 18.3454 30.1276 18.3454 29.6673C18.3454 29.2071 17.9723 28.834 17.512 28.834C17.0518 28.834 16.6787 29.2071 16.6787 29.6673C16.6787 30.1276 17.0518 30.5007 17.512 30.5007Z"/>
<path d="M23.227 27.315C23.6795 27.3991 23.9781 27.8341 23.894 28.2866C23.8098 28.7391 23.3748 29.0377 22.9223 28.9535C22.4698 28.8695 22.1712 28.4345 22.2554 27.982C22.3395 27.5295 22.7745 27.2309 23.227 27.315Z"/>
<path d="M21.9692 24.9634C22.4217 25.0475 22.7203 25.4825 22.6362 25.935C22.552 26.3875 22.117 26.6861 21.6646 26.602C21.2121 26.5178 20.9134 26.0828 20.9976 25.6303C21.0817 25.1778 21.5167 24.8793 21.9692 24.9634Z"/>
<path d="M21.6781 18C22.1383 18 22.5114 18.3731 22.5114 18.8333C22.5114 19.2936 22.1383 19.6667 21.6781 19.6667C21.2178 19.6667 20.8447 19.2936 20.8447 18.8333C20.8447 18.3731 21.2178 18 21.6781 18Z"/>
</svg>
