<svg width="104" height="111" viewBox="0 0 104 111" xmlns="http://www.w3.org/2000/svg">
<path d="M55.7334 0C60.7382 0 64.7959 4.05774 64.7959 9.0625V27.918L80.2363 17.1074C84.336 14.2369 89.9868 15.2334 92.8574 19.333L98.8604 27.9062C101.731 32.0058 100.734 37.6558 96.6348 40.5264L75.4287 55.374L96.6377 70.2246C100.737 73.0952 101.733 78.7452 98.8633 82.8447L92.8594 91.418C89.9888 95.5176 84.3389 96.514 80.2393 93.6436L64.7959 82.8291V101.681C64.7959 106.685 60.7382 110.743 55.7334 110.743H45.2676C40.2628 110.743 36.2061 106.685 36.2061 101.681V82.8389L20.7656 93.6504C16.6659 96.521 11.0152 95.5245 8.14453 91.4248L2.1416 82.8525C-0.729024 78.7529 0.267509 73.1021 4.36719 70.2314L25.585 55.374L4.37012 40.5195C0.270439 37.6489 -0.726094 31.9981 2.14453 27.8984L8.14746 19.3262C11.0181 15.2265 16.6689 14.23 20.7686 17.1006L36.2061 27.9092V9.0625C36.2061 4.05774 40.2628 0 45.2676 0H55.7334Z"/>
</svg>
