<svg width="41" height="41" viewBox="0 0 41 41" xmlns="http://www.w3.org/2000/svg">
<path fill-rule="evenodd" clip-rule="evenodd" d="M25.1145 8.32485C24.0897 9.34973 23.7457 10.7977 24.0828 12.1065H23.9615C22.3265 12.1065 20.9991 13.4301 20.9991 15.0672V22.0526C20.6702 22.0044 20.3386 21.9811 20.0117 21.9811C19.6847 21.9811 19.3531 22.0044 19.0242 22.0526V15.0672C19.0242 13.4301 17.6969 12.1065 16.0618 12.1065H15.9408C16.2778 10.7977 15.9339 9.34973 14.909 8.32485C13.3665 6.78234 10.8655 6.78234 9.32304 8.32485C8.08062 9.56737 7.16999 11.2859 7.17482 13.0939C7.16999 14.9017 8.08072 16.6075 9.32314 17.8501C10.8656 19.3926 13.3666 19.3926 14.9091 17.8501C15.9305 16.8285 16.2756 15.3868 15.9442 14.0814H16.0618C16.6083 14.0814 17.0493 14.5229 17.0493 15.0672V22.7033C16.9465 22.761 16.8461 22.8224 16.7484 22.8875C15.7802 23.533 15.0744 24.5604 15.0744 25.9309C15.0744 28.3196 16.7706 30.312 19.0242 30.7695V32.8431C19.0242 33.3885 19.4663 33.8306 20.0117 33.8306C20.557 33.8306 20.9991 33.3885 20.9991 32.8431V30.7695C23.2527 30.312 24.949 28.3196 24.949 25.9309C24.949 24.5604 24.2431 23.533 23.2749 22.8876C23.1773 22.8224 23.0768 22.761 22.974 22.7033V15.0672C22.974 14.5229 23.415 14.0814 23.9615 14.0814H24.0793C23.7479 15.3868 24.0929 16.8285 25.1144 17.8501C26.6569 19.3926 29.1578 19.3926 30.7003 17.8501C31.9427 16.6075 32.8535 14.9017 32.8486 13.0939C32.8535 11.2859 31.9428 9.56737 30.7004 8.32485C29.1579 6.78234 26.657 6.78234 25.1145 8.32485ZM29.3039 9.72141C28.5326 8.95011 27.2822 8.95011 26.511 9.72141C25.877 10.3554 25.7642 11.3131 26.1724 12.0624C26.6068 11.9564 26.9292 11.5648 26.9292 11.0978C26.9292 10.5525 27.3713 10.1104 27.9167 10.1104C28.462 10.1104 28.9041 10.5525 28.9041 11.0978C28.9041 11.8588 28.6177 12.5528 28.1468 13.0781C28.6177 13.6033 28.9041 14.2974 28.9041 15.0583C28.9041 15.6037 28.462 16.0458 27.9167 16.0458C27.3713 16.0458 26.9292 15.6037 26.9292 15.0583C26.9292 14.5946 26.6112 14.2052 26.1815 14.096C25.7624 14.8476 25.8722 15.8149 26.5108 16.4536C27.2821 17.2248 28.5325 17.2248 29.3038 16.4536C30.2759 15.4814 30.8769 14.2483 30.8738 13.0939C30.8769 11.9393 30.2761 10.6935 29.3039 9.72141ZM22.6396 24.9435C22.5175 24.7903 22.3633 24.6533 22.1794 24.5308C21.6371 24.1692 20.8527 23.956 20.0117 23.956C19.1707 23.956 18.3862 24.1692 17.8439 24.5307C17.66 24.6533 17.5058 24.7903 17.3837 24.9435H22.6396ZM22.8055 26.9184C22.3988 28.069 21.3015 28.8933 20.0117 28.8933C18.7219 28.8933 17.6245 28.069 17.2179 26.9184H22.8055ZM13.5125 9.72141C12.7412 8.95011 11.4908 8.95011 10.7195 9.72141C9.74745 10.6935 9.14658 11.9393 9.14964 13.0939C9.14658 14.2483 9.74755 15.4814 10.7197 16.4536C11.4909 17.2248 12.7413 17.2248 13.5126 16.4536C14.1513 15.8149 14.2611 14.8476 13.8419 14.0959C13.4122 14.2051 13.0941 14.5945 13.0941 15.0583C13.0941 15.6037 12.6521 16.0458 12.1067 16.0458C11.5613 16.0458 11.1192 15.6037 11.1192 15.0583C11.1192 14.2974 11.4057 13.6033 11.8765 13.0781C11.4057 12.5528 11.1192 11.8588 11.1192 11.0978C11.1192 10.5525 11.5613 10.1104 12.1067 10.1104C12.6521 10.1104 13.0941 10.5525 13.0941 11.0978C13.0941 11.5648 13.4166 11.9565 13.851 12.0624C14.2593 11.3132 14.1465 10.3554 13.5125 9.72141Z"/>
</svg>
