<svg xmlns="http://www.w3.org/2000/svg" data-name="Layer 2" viewBox="0 0 66.45 66.45"><g data-name="Layer 1"><path d="M61.25 13.6c-1.08-1.7-2.33-3.26-3.73-4.67C51.84 3.25 43.62 0 33.22 0S15.07 3.07 9.42 8.46l-.96.96c-5.5 5.8-8.46 14-8.46 23.8 0 7.64 1.8 14.31 5.2 19.62 1.09 1.7 2.33 3.26 3.74 4.67 5.67 5.68 13.89 8.93 24.29 8.93s18.21-3.1 23.87-8.52l.87-.87c5.52-5.8 8.48-14.01 8.48-23.83 0-7.64-1.8-14.31-5.2-19.62" style="fill:#a2c73a"/><path d="m17.68 48.58 4.13-6.83c3.71 3.28 8.52 3.81 11.7 3.81 3.76 0 5.88-1.59 5.88-3.71 0-2.54-3.86-3.81-6.83-4.66-6.4-1.8-13.71-4.29-13.71-12.44 0-7.15 5.4-11.75 14.66-11.75 5.4 0 9.64 1.01 13.87 3.81l-3.28 6.67c-3.92-1.96-7.52-2.59-10.59-2.59s-5.29 1.22-5.29 3.12c0 2.49 3.39 3.55 6.51 4.45 6.94 2.01 14.03 4.82 14.03 12.65 0 7.36-5.29 12.34-15.25 12.34-4.92 0-11.28-.9-15.83-4.87" style="fill:#fff"/></g></svg>