<svg viewBox="0 0 103 111" xmlns="http://www.w3.org/2000/svg" xmlns:xlink="http://www.w3.org/1999/xlink" width="103.000000" height="111.000000" fill="none" customFrame="#000000">
	<rect id="snz 3" width="103.000000" height="111.000000" x="0.000000" y="0.000000" fill="rgb(255,255,255)" fill-opacity="0" />
	<path id="snz 1" d="M55.2314 0C60.2362 0 64.2939 4.05774 64.2939 9.0625L64.2939 27.918L79.7344 17.1074C83.834 14.2369 89.4849 15.2334 92.3555 19.333L98.3584 27.9062C101.229 32.0058 100.232 37.6558 96.1328 40.5264L74.9268 55.374L96.1357 70.2246C100.235 73.0952 101.231 78.7452 98.3613 82.8447L92.3574 91.418C89.4868 95.5176 83.837 96.514 79.7373 93.6436L64.2939 82.8291L64.2939 101.681C64.2939 106.685 60.2362 110.743 55.2314 110.743L44.7656 110.743C39.7608 110.743 35.7041 106.685 35.7041 101.681L35.7041 82.8389L20.2637 93.6504C16.164 96.521 10.5132 95.5245 7.64258 91.4248L1.63965 82.8525C-1.23098 78.7529 -0.234444 73.1021 3.86523 70.2314L25.083 55.374L3.86816 40.5195C-0.231514 37.6489 -1.22805 31.9981 1.64258 27.8984L7.64551 19.3262C10.5161 15.2265 16.1669 14.23 20.2666 17.1006L35.7041 27.9092L35.7041 9.0625C35.7041 4.05774 39.7608 0 44.7656 0L55.2314 0Z" fill="rgb(151,191,13)" fill-rule="nonzero" />
</svg>
