<svg width="61" height="79" viewBox="0 0 61 79" fill="none" xmlns="http://www.w3.org/2000/svg">
<g clip-path="url(#clip0_746_133)">
<path d="M0.501953 68.9697L8.47293 55.8048C15.6333 62.1323 24.9253 63.1519 31.0499 63.1519C38.3153 63.1519 42.3984 60.0931 42.3984 55.9997C42.3984 51.0966 34.9378 48.6525 29.2185 47.0182C16.8642 43.5545 2.75364 38.7563 2.75364 23.0274C2.75364 9.24768 13.1715 0.371094 31.0649 0.371094C41.4977 0.371094 49.6638 2.30535 57.845 7.71827L51.5102 20.5833C43.9445 16.8048 36.9943 15.5752 31.0649 15.5752C25.1354 15.5752 20.8422 17.9293 20.8422 21.6029C20.8422 26.4011 27.3871 28.4403 33.4216 30.1796C46.8117 34.0631 60.502 39.4761 60.502 54.5752C60.502 68.7598 50.2793 78.3561 31.0649 78.3561C21.5627 78.3561 9.29855 76.6168 0.501953 68.9697Z" fill="#F7A212"/>
</g>
<defs>
<clipPath id="clip0_746_133">
<rect width="60" height="78" fill="white" transform="translate(0.501953 0.371094)"/>
</clipPath>
</defs>
</svg>
