<svg width="135" height="32" viewBox="0 0 135 32" fill="none" xmlns="http://www.w3.org/2000/svg">
<path d="M124.727 3.5918H125.477V3.59179L124.727 3.5918ZM124.727 8.48828H123.977V9.929L125.157 9.10265L124.727 8.48828ZM128.736 5.68066L129.167 6.29503L129.167 6.29503L128.736 5.68066ZM132.015 6.25879L132.629 5.82869L132.629 5.82858L132.015 6.25879ZM133.573 8.48535L132.959 8.91545L132.959 8.91553L133.573 8.48535ZM132.995 11.7637L133.425 12.3781L133.425 12.378L132.995 11.7637ZM127.488 15.6182L127.058 15.0037L126.181 15.618L127.058 16.2325L127.488 15.6182ZM132.996 19.4756L132.566 20.0899L132.566 20.09L132.996 19.4756ZM133.574 22.7539L132.96 22.3237L132.96 22.3238L133.574 22.7539ZM132.016 24.9805L132.63 25.4107L132.63 25.4106L132.016 24.9805ZM128.737 25.5576L128.307 26.172L128.307 26.172L128.737 25.5576ZM124.727 22.749L125.157 22.1347L123.977 21.3082V22.749H124.727ZM124.727 27.6455L125.477 27.6455V27.6455H124.727ZM117.302 27.6455H116.552V27.6455L117.302 27.6455ZM117.302 22.752H118.052V21.3112L116.872 22.1376L117.302 22.752ZM113.292 25.5596L112.862 24.9452L112.862 24.9452L113.292 25.5596ZM110.015 24.9814L110.629 24.5513L110.629 24.551L110.015 24.9814ZM108.455 22.7559L107.841 23.186L107.841 23.1863L108.455 22.7559ZM109.033 19.4775L109.463 20.0919L109.463 20.0918L109.033 19.4775ZM114.543 15.6182L114.973 16.2325L115.85 15.618L114.973 15.0038L114.543 15.6182ZM109.034 11.7617L108.604 12.3761L108.604 12.3761L109.034 11.7617ZM108.456 8.4834L109.07 8.91358L109.07 8.9135L108.456 8.4834ZM110.015 6.25684L109.4 5.82664L109.4 5.82674L110.015 6.25684ZM113.293 5.67969L112.863 6.29405L112.863 6.29408L113.293 5.67969ZM117.302 8.48633L116.872 9.10072L118.052 9.92696V8.48633H117.302ZM117.302 3.5918L116.552 3.59179V3.5918H117.302ZM122.373 1.23828V1.98828C123.259 1.98828 123.977 2.70625 123.977 3.5918L124.727 3.5918L125.477 3.59179C125.477 1.87783 124.087 0.488281 122.373 0.488281V1.23828ZM124.727 3.5918H123.977V8.48828H124.727H125.477V3.5918H124.727ZM124.727 8.48828L125.157 9.10265L129.167 6.29503L128.736 5.68066L128.306 5.0663L124.296 7.87391L124.727 8.48828ZM128.736 5.68066L129.167 6.29503C129.892 5.78715 130.892 5.96357 131.4 6.68899L132.015 6.25879L132.629 5.82858C131.646 4.42472 129.71 4.08318 128.306 5.0663L128.736 5.68066ZM132.015 6.25879L131.4 6.68889L132.959 8.91545L133.573 8.48535L134.188 8.05525L132.629 5.82869L132.015 6.25879ZM133.573 8.48535L132.959 8.91553C133.467 9.6409 133.29 10.6414 132.565 11.1493L132.995 11.7637L133.425 12.378C134.829 11.395 135.171 9.45921 134.188 8.05517L133.573 8.48535ZM132.995 11.7637L132.565 11.1492L127.058 15.0037L127.488 15.6182L127.918 16.2326L133.425 12.3781L132.995 11.7637ZM127.488 15.6182L127.058 16.2325L132.566 20.0899L132.996 19.4756L133.426 18.8613L127.919 15.0038L127.488 15.6182ZM132.996 19.4756L132.566 20.09C133.291 20.5979 133.468 21.5984 132.96 22.3237L133.574 22.7539L134.189 23.1841C135.172 21.7801 134.83 19.8443 133.426 18.8612L132.996 19.4756ZM133.574 22.7539L132.96 22.3238L131.401 24.5504L132.016 24.9805L132.63 25.4106L134.189 23.184L133.574 22.7539ZM132.016 24.9805L131.401 24.5502C130.894 25.2752 129.893 25.4514 129.167 24.9433L128.737 25.5576L128.307 26.172C129.711 27.1548 131.647 26.8149 132.63 25.4107L132.016 24.9805ZM128.737 25.5576L129.168 24.9433L125.157 22.1347L124.727 22.749L124.296 23.3634L128.307 26.172L128.737 25.5576ZM124.727 22.749H123.977V27.6455H124.727H125.477V22.749H124.727ZM124.727 27.6455L123.977 27.6455C123.977 28.531 123.259 29.249 122.373 29.249V29.999V30.749C124.087 30.749 125.476 29.3594 125.477 27.6455L124.727 27.6455ZM122.373 29.999V29.249H119.655V29.999V30.749H122.373V29.999ZM119.655 29.999V29.249C118.77 29.249 118.052 28.531 118.052 27.6455L117.302 27.6455L116.552 27.6455C116.552 29.3594 117.941 30.749 119.655 30.749V29.999ZM117.302 27.6455H118.052V22.752H117.302H116.552V27.6455H117.302ZM117.302 22.752L116.872 22.1376L112.862 24.9452L113.292 25.5596L113.722 26.1739L117.732 23.3663L117.302 22.752ZM113.292 25.5596L112.862 24.9452C112.137 25.4531 111.137 25.2768 110.629 24.5513L110.015 24.9814L109.4 25.4116C110.383 26.8155 112.318 27.1571 113.722 26.1739L113.292 25.5596ZM110.015 24.9814L110.629 24.551L109.069 22.3255L108.455 22.7559L107.841 23.1863L109.4 25.4118L110.015 24.9814ZM108.455 22.7559L109.069 22.3257C108.562 21.6003 108.738 20.5999 109.463 20.0919L109.033 19.4775L108.603 18.8632C107.199 19.8462 106.858 21.782 107.841 23.186L108.455 22.7559ZM109.033 19.4775L109.463 20.0918L114.973 16.2325L114.543 15.6182L114.113 15.0039L108.603 18.8632L109.033 19.4775ZM114.543 15.6182L114.973 15.0038L109.464 11.1473L109.034 11.7617L108.604 12.3761L114.113 16.2326L114.543 15.6182ZM109.034 11.7617L109.464 11.1474C108.739 10.6394 108.563 9.63895 109.07 8.91358L108.456 8.4834L107.842 8.05322C106.859 9.45725 107.2 11.393 108.604 12.3761L109.034 11.7617ZM108.456 8.4834L109.07 8.9135L110.629 6.68693L110.015 6.25684L109.4 5.82674L107.842 8.0533L108.456 8.4834ZM110.015 6.25684L110.629 6.68704C111.137 5.96208 112.137 5.78585 112.863 6.29405L113.293 5.67969L113.723 5.06532C112.32 4.08253 110.384 4.42229 109.4 5.82664L110.015 6.25684ZM113.293 5.67969L112.863 6.29408L116.872 9.10072L117.302 8.48633L117.732 7.87194L113.723 5.0653L113.293 5.67969ZM117.302 8.48633H118.052V3.5918H117.302H116.552V8.48633H117.302ZM117.302 3.5918L118.052 3.5918C118.052 2.70625 118.77 1.98828 119.655 1.98828V1.23828V0.488281C117.941 0.488281 116.552 1.87783 116.552 3.59179L117.302 3.5918ZM119.655 1.23828V1.98828H122.373V1.23828V0.488281H119.655V1.23828Z" fill="#97BF0D"/>
<path d="M68.9093 7.60916C71.1047 3.36409 73.3001 1.23828 77.6843 1.23828C82.5258 1.23828 86.4265 5.04511 86.4592 9.73497C86.518 18.3232 71.4575 24.6549 68.7656 29.9988C66.237 24.8773 50.5754 19.0035 51.3595 9.73497C51.7581 5.06473 55.2929 1.23828 60.1344 1.23828C64.5251 1.23828 66.714 3.36409 68.9093 7.60916Z" stroke="#F7736C" stroke-width="1.5"/>
<path d="M19.8994 3.5918H20.6494V3.59178L19.8994 3.5918ZM19.8994 11.0996H19.1494V11.8496H19.8994V11.0996ZM19.8994 20.1377V19.3877H19.1494V20.1377H19.8994ZM10.8613 20.1377H11.6113V19.3877H10.8613V20.1377ZM10.8613 11.0996V11.8496H11.6113V11.0996H10.8613ZM10.8613 3.5918L10.1113 3.59178V3.5918H10.8613ZM17.5459 1.23828V1.98828C18.4314 1.98828 19.1494 2.70624 19.1494 3.59181L19.8994 3.5918L20.6494 3.59178C20.6494 1.87784 19.2599 0.488281 17.5459 0.488281V1.23828ZM19.8994 3.5918H19.1494V11.0996H19.8994H20.6494V3.5918H19.8994ZM19.8994 11.0996V11.8496H27.4072V11.0996V10.3496H19.8994V11.0996ZM27.4072 11.0996V11.8496C28.2928 11.8496 29.0107 12.5676 29.0107 13.4531H29.7607H30.5107C30.5107 11.7391 29.1212 10.3496 27.4072 10.3496V11.0996ZM29.7607 13.4531H29.0107V17.7842H29.7607H30.5107V13.4531H29.7607ZM29.7607 17.7842H29.0107C29.0107 18.6697 28.2928 19.3877 27.4072 19.3877V20.1377V20.8877C29.1212 20.8877 30.5107 19.4982 30.5107 17.7842H29.7607ZM27.4072 20.1377V19.3877H19.8994V20.1377V20.8877H27.4072V20.1377ZM19.8994 20.1377H19.1494V27.6455H19.8994H20.6494V20.1377H19.8994ZM19.8994 27.6455H19.1494C19.1494 28.5311 18.4315 29.249 17.5459 29.249V29.999V30.749C19.2599 30.749 20.6494 29.3595 20.6494 27.6455H19.8994ZM17.5459 29.999V29.249H13.2148V29.999V30.749H17.5459V29.999ZM13.2148 29.999V29.249C12.3293 29.249 11.6113 28.5311 11.6113 27.6455H10.8613H10.1113C10.1113 29.3595 11.5009 30.749 13.2148 30.749V29.999ZM10.8613 27.6455H11.6113V20.1377H10.8613H10.1113V27.6455H10.8613ZM10.8613 20.1377V19.3877H3.35352V20.1377V20.8877H10.8613V20.1377ZM3.35352 20.1377V19.3877C2.46795 19.3877 1.75 18.6697 1.75 17.7842H1H0.25C0.25 19.4982 1.63952 20.8877 3.35352 20.8877V20.1377ZM1 17.7842H1.75V13.4531H1H0.25V17.7842H1ZM1 13.4531H1.75C1.75 12.5676 2.46795 11.8496 3.35352 11.8496V11.0996V10.3496C1.63952 10.3496 0.25 11.7391 0.25 13.4531H1ZM3.35352 11.0996V11.8496H10.8613V11.0996V10.3496H3.35352V11.0996ZM10.8613 11.0996H11.6113V3.5918H10.8613H10.1113V11.0996H10.8613ZM10.8613 3.5918L11.6113 3.59181C11.6113 2.70624 12.3293 1.98828 13.2148 1.98828V1.23828V0.488281C11.5009 0.488281 10.1114 1.87784 10.1113 3.59178L10.8613 3.5918ZM13.2148 1.23828V1.98828H17.5459V1.23828V0.488281H13.2148V1.23828Z" fill="#71B6CD"/>
</svg>
