<svg xmlns="http://www.w3.org/2000/svg" width="179" height="40" fill="none" viewBox="0 0 179 40"><g clip-path="url(#a)"><path fill="#97BF0D" d="M28.633 11.159c0-6.69 4.12-11.161 11.241-11.161 7.12 0 11.241 4.47 11.241 11.16 0 6.692-4.117 11.162-11.241 11.162s-11.241-4.47-11.241-11.161Zm17.095 0c0-4.063-1.94-6.69-5.858-6.69-3.917 0-5.854 2.627-5.854 6.69 0 4.063 1.94 6.69 5.855 6.69 3.913 0 5.857-2.627 5.857-6.69ZM54.087.35h7.046l6.753 13.527V.35h5.148v21.617h-7.046L59.235 8.44v13.527h-5.148V.35ZM76.273 19.628l2.298-3.769c2.058 1.81 4.738 2.104 6.504 2.104 2.09 0 3.267-.875 3.267-2.044 0-1.402-2.147-2.104-3.796-2.571-3.56-.995-7.62-2.366-7.62-6.865 0-3.945 3-6.485 8.148-6.485 3 0 5.355.556 7.71 2.104l-1.827 3.68c-2.176-1.08-4.177-1.43-5.886-1.43-1.709 0-2.943.672-2.943 1.724 0 1.374 1.883 1.959 3.62 2.455 3.857 1.108 7.8 2.66 7.8 6.981 0 4.063-2.944 6.808-8.477 6.808-2.736 0-6.268-.496-8.798-2.689v-.003Z"/><path fill="#B1B3B4" d="m0 19.628 2.297-3.769c2.059 1.81 4.738 2.104 6.504 2.104 2.09 0 3.268-.875 3.268-2.044 0-1.402-2.148-2.104-3.796-2.571C4.709 12.356.649 10.982.649 6.483c0-3.945 3-6.485 8.148-6.485 3 0 5.355.556 7.71 2.104l-1.827 3.68c-2.176-1.08-4.178-1.43-5.886-1.43-1.71 0-2.944.672-2.944 1.724 0 1.374 1.884 1.959 3.621 2.455 3.857 1.108 7.799 2.66 7.799 6.981 0 4.063-2.943 6.808-8.476 6.808-2.737 0-6.269-.496-8.798-2.689L0 19.628ZM20.51.35h5.148v21.616H20.51V.35ZM96.783 21.966V.35h9.65c4.649 0 7.446 2.189 7.446 6.046 0 1.87-.617 3.156-2.091 4.325 2.298 1.023 3.09 3.33 3.09 5.054 0 4.003-2.915 6.195-7.738 6.195H96.783v-.003Zm5.152-12.938h4.117c1.502 0 2.529-.525 2.529-2.133s-1.031-2.16-2.529-2.16h-4.117v4.293Zm0 8.557h4.941c1.619 0 2.707-.496 2.707-2.338 0-1.725-1.088-2.249-2.707-2.249h-4.941v4.587ZM118.12.35h15.626v4.47h-10.474v4.03h9.739v4.325h-9.739V17.5h10.856v4.47H118.12V.35ZM151.577 15.13c.999 1.782 1.794 2.338 3.824 2.777v4.18c-3.913 0-5.943-.992-7.855-4.381l-1.206-2.133h-3.853v6.397h-5.148V.35h9.325c5.12 0 8.562 2.66 8.562 7.654 0 2.862-1.733 5.083-4.177 6.191l.528.935Zm-9.094-10.399v6.574h3.914c1.912 0 3.442-1.052 3.442-3.301 0-2.25-1.53-3.273-3.382-3.273h-3.974ZM168.996 13.174v-3.68H179v1.052c0 7.392-3.825 11.774-10.507 11.774-7.121 0-11.241-4.47-11.241-11.161 0-6.69 3.917-11.161 11.391-11.161 2.736 0 5.797.875 7.681 2.572l-2.091 3.623c-1.648-1.197-3.089-1.725-5.297-1.725-4.21 0-6.297 2.777-6.297 6.69 0 3.915 1.941 6.692 5.854 6.692 2.854 0 4.827-1.52 5.209-4.676h-4.709.003ZM63.255 36.61c0-2.005 1.017-3.354 3.276-3.354 2.054 0 3.139 1.35 3.139 3.375 0 .294-.01.432-.046.691H65.15c.171.896.856 1.2 1.848 1.2.524 0 1.198-.077 1.916-.385l.478 1.268c-.753.396-1.541.556-2.601.556-2.465 0-3.539-1.35-3.539-3.354l.003.003Zm4.588-.397c0-.963-.456-1.52-1.313-1.52-.934 0-1.38.578-1.38 1.52h2.693ZM71.507 37.394V34.9h-.82v-1.112l.82-.397.489-1.246h1.438v1.246h1.883v1.506h-1.883v2.493c0 .84.388 1.02.82 1.02.353 0 .639-.067.945-.19v1.427c-.4.18-.924.318-1.448.318-1.245 0-2.248-.418-2.248-2.571h.004ZM84.307 33.395h2.123l-2.715 6.435h-1.302l-1.05-2.71-1.048 2.71h-1.302l-2.715-6.435h2.123l.73 2.174c.161.464.354 1.123.49 1.598.16-.475.342-1.134.467-1.598l.275-1.01-.457-1.164h2.112l.582 2.174c.124.464.306 1.123.467 1.598.171-.475.389-1.134.535-1.598l.685-2.175ZM87.204 36.61c0-2.005 1.017-3.354 3.275-3.354 2.055 0 3.14 1.35 3.14 3.375 0 .294-.011.432-.047.691h-4.474c.171.896.856 1.2 1.848 1.2.525 0 1.199-.077 1.916-.385l.478 1.268c-.753.396-1.541.556-2.6.556-2.466 0-3.54-1.35-3.54-3.354l.004.003Zm4.588-.397c0-.963-.457-1.52-1.313-1.52-.935 0-1.38.578-1.38 1.52h2.693ZM95.224 33.395h1.587l.182 1.03c.321-.7.992-1.179 1.713-1.179.239 0 .513.046.695.124v1.757a2.439 2.439 0 0 0-.799-.149c-.924 0-1.448.5-1.448 1.71v3.14h-1.93V33.39v.004ZM107.011 39.909c-1.495-.093-2.112-.613-2.979-1.96l-.446-.69-.878 1.03v1.542h-1.93v-8.115l1.93-.407v4.93l2.009-2.844h2.237l-2.102 2.56.65 1.02c.378.603.685.975 1.505 1.212v1.722h.004ZM117.895 38.13v1.7h-6.86l.022-.158c.228-1.598 1.758-3.514 2.75-4.704.664-.794 1.131-1.36 1.474-1.892-.264.046-.65.068-1.246.068h-2.486v-1.7h6.289l-.035.293c-.172 1.506-1.495 3.15-2.558 4.407-.764.896-1.302 1.53-1.677 2.107.457-.113.992-.124 1.245-.124h3.082v.004ZM119.391 32.771v-1.562h2.065v1.562h-2.065Zm.067 7.06v-6.437h1.93v6.436h-1.93ZM122.994 36.61c0-2.005 1.017-3.354 3.275-3.354 2.055 0 3.139 1.35 3.139 3.375 0 .294-.011.432-.046.691h-4.474c.171.896.856 1.2 1.848 1.2.525 0 1.199-.077 1.916-.385l.478 1.268c-.753.396-1.541.556-2.601.556-2.465 0-3.539-1.35-3.539-3.354l.004.003Zm4.588-.397c0-.963-.457-1.52-1.313-1.52-.935 0-1.381.578-1.381 1.52h2.694ZM137.245 39.909c-1.495-.093-2.112-.613-2.979-1.96l-.446-.69-.877 1.03v1.542h-1.93v-8.115l1.93-.407v4.93l2.008-2.844h2.237l-2.101 2.56.649 1.02c.378.603.685.975 1.506 1.212v1.722h.003ZM138.295 36.61c0-2.005 1.016-3.354 3.275-3.354 2.054 0 3.139 1.35 3.139 3.375 0 .294-.011.432-.046.691h-4.474c.171.896.856 1.2 1.848 1.2a4.83 4.83 0 0 0 1.916-.385l.478 1.268c-.753.396-1.541.556-2.601.556-2.465 0-3.539-1.35-3.539-3.354l.004.003Zm4.587-.397c0-.963-.456-1.52-1.312-1.52-.935 0-1.381.578-1.381 1.52h2.693ZM146.314 33.394h1.588l.182 1.031c.353-.701 1.027-1.165 1.972-1.165 1.474 0 2.284.86 2.284 2.628v3.942h-1.93v-3.942c0-.67-.343-1.01-.971-1.01-.763 0-1.198.34-1.198 1.325v3.627h-1.93v-6.436h.003ZM154.266 39.83v-8.114l1.916-.407v2.978c.364-.68.959-1.03 1.848-1.03 1.405 0 2.258.86 2.258 2.628v3.942h-1.93v-3.942c0-.67-.343-1.01-.97-1.01-.764 0-1.199.397-1.199 1.382v3.57h-1.93l.007.004ZM162.015 37.337v-3.943h1.93v3.91c0 .716.389 1.078.991 1.078.603 0 1.017-.362 1.017-1.077v-3.91h1.93v3.942c0 1.562-1.12 2.628-2.943 2.628s-2.922-1.066-2.922-2.628h-.003ZM169.738 32.771v-1.562h2.066v1.562h-2.066Zm.068 7.06v-6.437h1.93v6.436h-1.93ZM173.342 39.196l.674-1.304c.582.397 1.506.49 1.816.49.606 0 .867-.104.867-.376 0-.273-.332-.432-.903-.602-1.245-.376-2.272-.794-2.272-2.097 0-1.304.845-2.051 2.465-2.051.913 0 1.573.103 2.387.489l-.536 1.381c-.731-.248-1.291-.319-1.655-.319-.467 0-.696.149-.696.376 0 .248.218.396.764.566 1.427.454 2.408.886 2.408 2.257 0 1.066-.835 1.958-2.683 1.958-.845 0-1.837-.159-2.636-.772v.004ZM54.158 31.45h2.73l2.614 5.238v-5.239h1.995v8.373h-2.73l-2.615-5.238v5.238h-1.994V31.45Z"/></g><defs><clipPath id="a"><path fill="#fff" d="M0-.002h179v40H0z"/></clipPath></defs></svg>