<svg width="34" height="35" viewBox="0 0 34 35" xmlns="http://www.w3.org/2000/svg">
<g clip-path="url(#clip0_685_2683)">
<path d="M30.8121 12.5566C30.7484 12.5192 30.7211 12.4428 30.7469 12.3755C31.7136 9.84414 30.6528 6.75146 28.3809 5.48056C28.0182 5.27698 27.2579 5.0689 26.7025 4.91771C26.1273 4.76053 25.9179 4.69916 25.8314 4.6273C25.716 4.5315 25.6569 4.34139 25.5719 4.03601C25.5203 3.85189 25.4656 3.66028 25.4004 3.54951C24.1256 1.37894 22.0268 0.281687 19.6487 0.536167C19.2056 0.584069 18.4711 0.892439 17.8822 1.14093C17.3268 1.37445 17.0521 1.48523 16.911 1.47475C16.697 1.45679 16.4967 1.31607 16.3024 1.18135C16.1567 1.07956 16.005 0.974771 15.8593 0.928365C13.0518 0.0391831 10.572 0.745739 9.05746 2.86541C8.88294 3.10941 8.6386 3.66627 8.45953 4.07344C8.27135 4.50306 8.23341 4.5824 8.18029 4.62581C8.09379 4.69766 7.88284 4.75904 7.30616 4.91771C6.72189 5.07788 5.99496 5.27698 5.63074 5.47906C4.10101 6.33382 2.8839 8.3966 2.85962 10.1735C2.85507 10.4684 2.96433 10.904 3.05842 11.2887C3.17831 11.7722 3.24964 12.0776 3.2117 12.2707C3.18438 12.4069 2.98406 12.621 2.41648 13.1973C1.96728 13.6539 1.4088 14.2212 1.22669 14.5385C0.478521 15.8529 0.302481 17.6552 0.769898 19.2434C1.15688 20.5592 1.943 21.5891 2.98558 22.143C3.05387 22.1789 3.08271 22.2598 3.05387 22.3301C1.78061 25.4497 3.14644 28.4661 6.44872 29.8343C6.55647 29.8792 6.69305 29.8897 6.83874 29.9016C7.08307 29.9211 7.35928 29.9436 7.56567 30.1426C7.71136 30.2834 7.80696 30.5738 7.91775 30.9106C7.99363 31.1381 8.07102 31.3746 8.15601 31.5213C8.98765 32.9539 10.2032 33.9149 11.6677 34.2996C13.3325 34.7368 15.2234 34.4149 16.9914 33.391C17.0157 33.3775 17.0415 33.37 17.0688 33.37C17.0977 33.37 17.128 33.379 17.1538 33.3955C18.6304 34.373 20.4303 34.7233 22.089 34.3565C23.6187 34.0182 24.9072 33.0961 25.7176 31.7593C25.8284 31.5782 25.9422 31.2728 26.053 30.9779C26.2184 30.5393 26.3261 30.2639 26.4521 30.1441C26.5765 30.0259 26.8952 29.9166 27.4491 29.7355C28.0091 29.5514 28.7042 29.3238 29.0669 29.0723C31.2203 27.5769 32.0171 24.7417 30.9624 22.3316C30.932 22.2628 30.9578 22.1819 31.0231 22.1445C32.5907 21.2164 33.521 19.468 33.5119 17.4681C33.5013 15.3948 32.4678 13.5131 30.8136 12.5551L30.8121 12.5566ZM16.3965 8.48641C16.3419 8.94298 16.0854 9.25884 15.6514 9.39805C14.6725 9.71391 13.0912 9.05675 12.5434 8.47444C12.3673 8.28732 12.2656 8.05081 12.1837 7.86069C12.1291 7.73495 12.0775 7.6152 12.0274 7.5658C11.7315 7.27689 11.3308 7.3218 11.088 7.5149C10.8057 7.73944 10.6524 8.20649 11.0652 8.84418C12.0426 10.3531 14.4373 11.2168 16.1901 10.6944C16.2357 10.6809 16.2857 10.6899 16.3252 10.7169C16.3631 10.7453 16.3859 10.7902 16.3859 10.8366L16.3829 31.2983C16.3829 31.3073 16.3829 31.3177 16.3798 31.3267C16.3222 31.6246 16.1309 31.8836 15.8107 32.0947C15.1142 32.5557 13.932 32.7159 13.026 32.7174C12.6511 32.7174 12.3248 32.6904 12.0987 32.644C10.8649 32.397 9.53398 31.2953 9.34277 29.3957C9.18797 27.8553 9.93918 26.5455 11.305 25.9782C11.5448 25.8779 11.8756 25.818 12.2247 25.7551C12.9319 25.6264 13.7332 25.4812 13.7772 24.9977C13.7954 24.7986 13.7529 24.6489 13.6497 24.5411C13.3644 24.2462 12.6314 24.2791 12.0972 24.3031C11.912 24.3121 11.7375 24.3195 11.5964 24.3136C11.5539 24.3121 11.5144 24.2926 11.4871 24.2612C11.4598 24.2297 11.4461 24.1878 11.4522 24.1459C11.5463 23.363 11.393 21.7254 10.7496 21.2418C10.5341 21.0802 10.2806 21.0622 9.97408 21.1865C9.63263 21.3242 9.75403 22.0457 9.88151 22.8076C10.0151 23.604 10.1653 24.5052 9.8633 25.1339C9.75555 25.3569 9.55826 25.4931 9.38526 25.6129C9.25626 25.7012 9.13334 25.7851 9.05594 25.8943L8.99524 25.9797C8.52327 26.6443 8.0346 27.3299 8.08924 28.1502C8.09227 28.1936 8.07558 28.237 8.04371 28.267C8.01184 28.2969 7.96935 28.3119 7.92382 28.3089C6.32731 28.1607 5.11779 27.2925 4.60485 25.9303C4.06914 24.5082 4.4364 22.8256 5.53665 21.5772C4.31044 21.2149 3.32856 20.4859 2.75491 19.5069C2.18733 18.5369 2.0644 17.4052 2.39979 16.2316C2.81865 14.7661 4.13288 13.6404 5.74608 13.3649C7.29402 13.1 8.73421 13.6568 9.59924 14.8544C9.61138 14.8709 9.61897 14.8888 9.62352 14.9083C9.67664 15.1418 9.40802 15.3589 8.96033 15.7166C8.37303 16.1882 7.57326 16.8304 7.71591 17.4755L8.15298 17.9022C8.58549 18.0025 9.00283 17.6118 9.48238 17.1597C9.87089 16.7944 10.3095 16.3813 10.8346 16.1792C11.179 16.046 11.6495 15.9951 12.1048 15.9442C13.1489 15.8289 13.8288 15.7106 13.7772 15.1418C13.7605 14.9577 13.6937 14.82 13.5738 14.7212C13.2354 14.4442 12.5221 14.5101 12.0016 14.5595C11.7041 14.5879 11.4704 14.6089 11.3202 14.573C11.0227 14.4996 10.7663 14.1448 10.4931 13.7706C10.3444 13.5655 10.1896 13.353 10.0545 13.2347C8.5521 11.9129 6.69154 11.8276 5.07075 11.9189C5.00094 11.9219 4.9372 11.8785 4.91747 11.8126C4.43488 10.2438 4.67011 8.81425 5.58066 7.78435C6.5155 6.72751 8.01487 6.25597 9.71458 6.47752C9.72065 5.10034 10.2078 3.93123 11.0971 3.17228C11.9803 2.41782 13.2157 2.13041 14.5754 2.35944C15.0474 2.43878 16.046 2.85193 16.2751 3.35491C16.4785 3.80249 16.4679 7.89512 16.398 8.48641H16.3965ZM31.618 18.6297C31.2052 20.0682 30.0958 21.1086 28.4811 21.5816C29.5798 22.8286 29.9471 24.5112 29.4129 25.9332C28.9 27.2955 27.6904 28.1637 26.0924 28.3134C26.0363 28.3179 25.9862 28.2954 25.9543 28.252C25.9224 28.2086 25.9179 28.1517 25.9391 28.1038C26.2502 27.4227 25.2684 26.318 24.6826 25.6578C24.3699 25.306 24.2303 25.1444 24.2091 25.0216C24.1924 24.9243 24.247 24.815 24.4215 24.4827C24.6826 23.9887 25.1697 23.0681 24.9573 22.5741C24.8905 22.4184 24.7554 22.3122 24.546 22.2508C23.8737 22.0532 23.681 22.4933 23.3941 23.2882C23.2469 23.6983 23.0952 24.122 22.8205 24.4558C22.35 25.0291 21.7961 25.2701 21.3059 25.4827C20.8051 25.6997 20.3711 25.8883 20.0661 26.3763C20.1602 26.7566 20.3165 26.9961 20.532 27.0889C20.9796 27.2805 21.6777 26.8703 22.2392 26.541C22.6004 26.3284 22.8857 26.1608 23.1028 26.1413C23.2818 26.1249 23.4594 26.1907 23.6324 26.3404C24.2501 26.8703 24.675 28.3269 24.6962 28.8253C24.766 30.4196 23.9951 31.7084 22.5807 32.3611C21.9934 32.6321 21.3575 32.7638 20.7217 32.7638C19.6184 32.7638 18.5166 32.3656 17.6743 31.6096C17.6425 31.5812 17.6243 31.5408 17.6243 31.4989V19.5997C17.6243 19.5593 17.6409 19.5219 17.6698 19.4934C17.6986 19.465 17.7396 19.453 17.7775 19.45L20.0676 19.4755C20.1359 19.4755 20.1951 19.5219 20.2117 19.5862C20.5092 20.6835 20.8598 21.0218 21.0995 21.1131C21.268 21.1775 21.4501 21.1445 21.655 21.0128C22.1118 20.7209 21.9509 20.1536 21.6307 19.2539C21.4562 18.7644 21.2756 18.2569 21.2741 17.7914C21.2741 17.5669 21.3302 17.3423 21.3848 17.1253C21.5138 16.6163 21.5745 16.29 21.1785 16.0205C20.8507 15.9038 20.6078 15.8948 20.4348 15.9951C20.1222 16.1762 20.0357 16.7256 19.9522 17.257C19.9173 17.4755 19.8824 17.7001 19.8308 17.9037C19.8141 17.9695 19.7534 18.0174 19.6836 18.0174L18.0886 18.0114C18.0386 18.0114 17.993 17.9875 17.9642 17.9471L17.647 17.498C17.6288 17.4725 17.6197 17.4426 17.6197 17.4127L17.6243 3.70968C17.6243 3.68423 17.6318 3.65878 17.644 3.63483C18.2343 2.61542 19.4059 2.11244 20.7763 2.29058C22.3698 2.49866 23.7219 3.54801 24.0649 4.84137C24.1089 5.00902 24.1226 5.11531 24.0604 5.19914C24.0027 5.27847 23.9147 5.28296 23.8631 5.28596C23.8282 5.28745 23.8008 5.28895 23.7735 5.30392L23.681 5.35482C21.6793 6.44609 21.2316 7.09576 21.2088 7.44754C21.1982 7.60921 21.2801 7.75142 21.4592 7.88165C21.9767 8.25589 22.2514 8.01787 22.6566 7.60023C22.7977 7.45353 22.9449 7.30234 23.1088 7.20354C24.7296 6.22154 26.5538 6.23801 27.8665 7.24545C29.1913 8.26337 29.6618 10.0148 29.0912 11.8171C29.073 11.8725 29.0244 11.9144 28.9652 11.9204C28.5646 11.9698 28.1563 11.9548 27.7602 11.9384C27.3717 11.9234 26.9696 11.9069 26.5902 11.9563C26.3883 11.9818 26.0742 12.106 25.798 12.2153C25.4049 12.371 25.1545 12.4653 24.9891 12.4473C24.8874 12.4368 24.76 12.3515 24.4534 12.1419C23.9541 11.8006 23.0238 11.1674 22.5261 11.3441C22.3667 11.401 22.2575 11.5432 22.1907 11.7767C22.042 12.3051 22.6839 12.7003 23.3638 13.1194C23.7644 13.3664 24.1787 13.6209 24.4215 13.9158C24.722 14.2811 24.8905 14.79 25.0544 15.281C25.3609 16.2091 25.584 16.7675 26.2776 16.5639C26.4506 16.507 26.5689 16.4112 26.6357 16.275C26.83 15.8813 26.5826 15.2002 26.3853 14.6508C26.2062 14.1553 26.0772 13.7976 26.226 13.6C26.2472 13.573 26.276 13.5521 26.3109 13.5446C28.0137 13.1179 29.5328 13.4697 30.586 14.537C31.621 15.5849 32.0232 17.1926 31.6104 18.6327L31.618 18.6297Z"/>
</g>
<defs>
<clipPath id="clip0_685_2683">
<rect width="33" height="34" transform="translate(0.511719 0.5)"/>
</clipPath>
</defs>
</svg>
