<svg width="41" height="41" viewBox="0 0 41 41" xmlns="http://www.w3.org/2000/svg">
<path d="M13.5531 13.834C12.2343 13.834 11.2155 14.2393 10.5298 14.9566C9.85423 15.6633 9.59473 16.5762 9.59473 17.4219C9.59473 18.7292 10.403 19.9071 11.1357 20.7242C11.8952 21.5712 12.7334 22.2057 13.0908 22.4441L13.7841 22.9062L14.7087 21.5195L14.0153 21.0572C13.7477 20.8789 13.0234 20.3328 12.3766 19.6116C11.7031 18.8605 11.2614 18.0823 11.2614 17.422C11.2614 16.9018 11.4199 16.4374 11.7346 16.1082C12.0391 15.7897 12.5827 15.5007 13.5531 15.5007H14.3864V13.834H13.5531Z"/>
<path d="M25.0293 20.084C27.1776 20.084 28.584 20.5752 29.4918 21.2787C30.4065 21.9877 30.7194 22.8382 30.8219 23.3612C30.9607 24.0703 30.4494 24.5901 29.932 24.7192L28.3679 25.1097V25.9173C28.3679 27.5281 27.0601 28.834 25.4467 28.834H21.7315C21.4815 28.834 21.2326 28.8587 20.9874 28.9076C19.2125 29.2621 17.9349 30.818 17.9349 32.6252V33.6513C17.9349 33.6513 17.809 33.7117 17.095 33.789C16.3809 33.8662 16.2942 33.8268 16.2942 33.8268L16.2655 32.6252C16.2655 30.0236 18.1048 27.7836 20.66 27.2733C21.0129 27.2028 21.3715 27.1673 21.7315 27.1673H25.4467C26.1381 27.1673 26.6986 26.6077 26.6986 25.9173V25.3501C25.878 25.4328 24.771 25.5005 23.345 25.5005C22.8847 25.5005 22.5116 25.1274 22.5116 24.6672C22.5116 24.2069 22.8847 23.8338 23.345 23.8338C25.0652 23.8338 26.2797 23.7316 27.0538 23.6322C27.4409 23.5826 27.7179 23.5336 27.893 23.4985C27.9805 23.4809 28.0426 23.4668 28.0803 23.4578C28.0991 23.4533 28.1119 23.4502 28.1186 23.4484L28.124 23.4469C28.1625 23.4364 28.201 23.4287 28.2395 23.4237L29.0188 23.2292C28.9115 23.0307 28.7409 22.8066 28.4682 22.5952C27.939 22.1851 26.9324 21.7507 25.0293 21.7507H22.108C18.4205 21.7507 15.4309 24.7354 15.4309 28.4172V33.7478C15.4309 33.7478 15.1127 33.7048 14.595 33.5757C14.077 33.4465 13.6963 33.2529 13.6963 33.2529L13.7616 28.4172C13.7616 23.8149 17.4985 20.084 22.108 20.084H25.0293Z"/>
<path fill-rule="evenodd" clip-rule="evenodd" d="M33.1072 21.6382C33.1072 21.6382 35.2711 23.5849 34.9858 25.1468C34.7005 26.7087 31.8826 27.1388 31.8826 27.1388C31.8826 33.4494 25.8563 33.0477 22.8485 32.4542C21.8482 32.2568 21.1818 32.0382 21.1818 32.0382V33.2241C21.1818 33.2241 21.1191 33.4228 20.9259 33.7024C20.4668 34.3667 19.2707 35.4877 16.4259 35.4877C14.5224 35.6384 11.2643 34.3924 10.4006 32.6355V27.262C7.35689 24.9871 5.01172 21.9224 5.01172 17.9498C5.01172 14.6479 6.38965 11.4813 8.84239 9.1465C11.2951 6.81169 14.6217 5.50001 18.0905 5.50001C20.7392 5.49715 23.3567 6.04568 25.7593 7.10717C27.6528 7.86618 29.3106 9.07409 30.5747 10.6158C31.729 12.2353 32.3689 14.1371 32.4176 16.0937C32.4281 16.5433 32.4218 16.9696 32.4157 17.3821C32.3942 18.8384 32.3752 20.1212 33.1072 21.6382ZM31.7487 22.6579C30.8276 20.7491 30.718 18.6823 30.7458 17.1815C30.7526 16.8156 30.7591 16.4658 30.7514 16.134C30.7114 14.5343 30.1937 12.9717 29.2499 11.6288C28.1725 10.3302 26.7068 9.2815 25.0858 8.63168C22.8977 7.66499 20.5106 7.16407 18.0922 7.16668C15.0398 7.16668 12.1261 8.32172 9.99155 10.3537C7.85972 12.3829 6.67839 15.1172 6.67839 17.9498C6.67839 21.1853 8.57114 23.8139 11.3985 25.927L12.0673 26.4269V32.1521C12.3459 32.4826 12.8855 32.8943 13.6964 33.2523C14.6908 33.6912 15.8451 33.8333 16.2943 33.8262C17.9846 33.8262 18.9134 33.3564 19.2571 33.072C19.3755 32.9739 19.4586 32.882 19.5151 32.809V32.0356C19.5151 30.9027 20.6236 30.101 21.7001 30.4542C21.7649 30.4737 21.9485 30.5288 22.0788 30.5643C22.3401 30.6353 22.7193 30.73 23.176 30.82C24.1035 31.0027 25.285 31.1528 26.4242 31.0788C27.5816 31.0036 28.5106 30.7099 29.1306 30.1825C29.6878 29.7084 30.2159 28.8583 30.2159 27.1388V25.7072L31.9369 25.4268C32.1521 25.375 32.4274 25.2958 32.6961 25.1858C32.9755 25.0717 33.2211 24.9127 33.3411 24.8101C33.3346 24.7657 33.3167 24.686 33.2677 24.5648C33.1761 24.3386 33.0184 24.0743 32.8145 23.7991C32.6153 23.5304 32.4033 23.2928 32.2379 23.1203C32.1565 23.0354 32.2821 23.1628 32.2379 23.1203L31.7487 22.6579Z"/>
</svg>
