<svg width="30" height="30" viewBox="0 0 30 30" xmlns="http://www.w3.org/2000/svg">
<path d="M15.452 29.1852C23.487 29.1852 30.0007 22.6716 30.0007 14.6366C30.0007 6.60156 23.487 0.0878906 15.452 0.0878906C7.41699 0.0878906 0.90332 6.60156 0.90332 14.6366C0.90332 22.6716 7.41699 29.1852 15.452 29.1852Z"/>
<g clip-path="url(#clip0_685_1194)">
<path d="M19.6981 13.7607L19.4941 15.2735C19.4596 15.5263 19.228 15.7164 18.9532 15.7164H16.301V22.0416C16.0213 22.0649 15.7379 22.0769 15.4515 22.0769C14.8107 22.0769 14.1854 22.0177 13.5811 21.905V15.7164H11.5412C11.354 15.7164 11.2012 15.5746 11.2012 15.401V13.508C11.2012 13.3344 11.354 13.1926 11.5412 13.1926H13.5811V10.3536C13.5811 8.61134 15.1034 7.19922 16.9818 7.19922H19.3617C19.549 7.19922 19.7018 7.34094 19.7018 7.51454V9.40762C19.7018 9.58122 19.549 9.72294 19.3617 9.72294H17.6613C16.9103 9.72294 16.3016 10.2876 16.3016 10.9848V13.1932H19.1578C19.4855 13.1932 19.7387 13.4596 19.6987 13.7612L19.6981 13.7607Z" fill="white"/>
</g>
<defs>
<clipPath id="clip0_685_1194">
<rect width="8.50121" height="14.8771" fill="white" transform="translate(11.2012 7.19922)"/>
</clipPath>
</defs>
</svg>
