<svg width="37" height="37" viewBox="0 0 37 37" xmlns="http://www.w3.org/2000/svg">
<path fill-rule="evenodd" clip-rule="evenodd" d="M18.2443 22.642C17.963 22.6738 17.6771 22.6901 17.3874 22.6901H12.9395V26.3359C12.9395 26.3359 12.335 26.2135 11.4395 25.869C8.87918 24.8839 3.93945 22.0835 3.93945 15.138C3.93945 10.9671 7.32063 7.58594 11.4915 7.58594H17.3874C21.0263 7.58594 24.0641 10.1596 24.7798 13.5859H27.8981C31.2348 13.5859 33.9398 16.2909 33.9398 19.6276C33.9398 25.0869 29.5685 27.3451 27.1898 28.1697C26.3006 28.4779 25.6898 28.5859 25.6898 28.5859V25.6693H23.4814C21.4175 25.6693 19.5954 24.6344 18.5055 23.0553C18.413 22.9213 18.3259 22.7835 18.2443 22.642ZM11.4395 21.1901V24.2467C10.7975 23.9636 10.0558 23.5705 9.3186 23.0373C7.37665 21.6325 5.43945 19.2514 5.43945 15.138C5.43945 11.7955 8.14906 9.08594 11.4915 9.08594H17.3874C20.611 9.08594 23.246 11.6062 23.4293 14.7839C23.4259 14.8502 23.4215 14.9162 23.4164 14.9821C23.254 17.0704 22.242 18.9204 20.7259 20.1868C19.7689 20.8208 18.6212 21.1901 17.3874 21.1901H11.4395ZM21.6206 21.3931C21.1067 21.814 20.5459 22.1794 19.9469 22.4805C20.7803 23.5113 22.055 24.1693 23.4814 24.1693H27.1898V26.5701C27.7513 26.3477 28.3856 26.0476 29.014 25.6509C30.7891 24.5302 32.4398 22.7093 32.4398 19.6276C32.4398 17.1193 30.4064 15.0859 27.8981 15.0859H24.9393C24.9394 15.1033 24.9395 15.1207 24.9395 15.138C24.9395 17.7402 23.6234 20.035 21.6206 21.3931Z"/>
</svg>
