<svg width="37" height="37" viewBox="0 0 37 37" xmlns="http://www.w3.org/2000/svg">
<path fill-rule="evenodd" clip-rule="evenodd" d="M15.6465 3.08594C14.4038 3.08594 13.3965 4.0933 13.3965 5.33594H11.1465C9.90381 5.33594 8.89648 6.3433 8.89648 7.58594V28.5859C8.89648 29.8286 9.90381 30.8359 11.1465 30.8359H20.1465V29.3359H11.1465C10.7323 29.3359 10.3965 29.0002 10.3965 28.5859V7.58594C10.3965 7.17173 10.7323 6.83594 11.1465 6.83594H13.3965C13.3965 8.07861 14.4038 9.08594 15.6465 9.08594H21.6465C22.8892 9.08594 23.8965 8.07861 23.8965 6.83594H26.1465C26.5607 6.83594 26.8965 7.17173 26.8965 7.58594V18.8359H28.3965V7.58594C28.3965 6.3433 27.3892 5.33594 26.1465 5.33594H23.8965C23.8965 4.0933 22.8892 3.08594 21.6465 3.08594H15.6465ZM14.8965 5.33594C14.8965 4.92173 15.2323 4.58594 15.6465 4.58594H21.6465C22.0607 4.58594 22.3965 4.92173 22.3965 5.33594V6.83594C22.3965 7.25015 22.0607 7.58594 21.6465 7.58594H15.6465C15.2323 7.58594 14.8965 7.25015 14.8965 6.83594V5.33594ZM17.8965 14.3359V12.0859H19.3965V14.3359H21.6465V15.8359H19.3965V18.0859H17.8965V15.8359H15.6465V14.3359H17.8965ZM20.8965 21.0859C20.8965 20.6717 21.2323 20.3359 21.6465 20.3359H30.6465C31.0607 20.3359 31.3965 20.6717 31.3965 21.0859V26.1776C31.3965 27.933 30.5192 29.5722 29.0587 30.5459L26.5625 32.21C26.3106 32.3779 25.9824 32.3779 25.7305 32.21L23.2343 30.5459C21.7738 29.5722 20.8965 27.933 20.8965 26.1776V21.0859ZM22.3965 21.8359V26.1776C22.3965 27.4315 23.0231 28.6023 24.0664 29.2978L26.1465 30.6845L28.2266 29.2978C29.2699 28.6023 29.8965 27.4315 29.8965 26.1776V21.8359H22.3965ZM25.9268 27.6163L28.9268 24.6163L27.8661 23.5557L25.3965 26.0254L24.4268 25.0557L23.3661 26.1163L24.8661 27.6163C25.159 27.9092 25.6339 27.9092 25.9268 27.6163Z"/>
</svg>
