<svg width="36" height="37" viewBox="0 0 36 37" xmlns="http://www.w3.org/2000/svg">
<path d="M15 15.3359H12V17.5859H15V15.3359Z"/>
<path d="M12 19.0859H15V21.3359H12V19.0859Z"/>
<path d="M15 22.8359H12V25.0859H15V22.8359Z"/>
<path d="M16.5 15.3359H19.5V17.5859H16.5V15.3359Z"/>
<path d="M19.5 19.0859H16.5V21.3359H19.5V19.0859Z"/>
<path d="M16.5 22.8359H19.5V25.0859H16.5V22.8359Z"/>
<path d="M24 15.3359H21V17.5859H24V15.3359Z"/>
<path d="M21 19.0859H24V21.3359H21V19.0859Z"/>
<path d="M24 22.8359H21V25.0859H24V22.8359Z"/>
<path d="M18.75 11.5859V9.33594H21V7.83594H18.75V5.58594H17.25V7.83594H15V9.33594H17.25V11.5859H18.75Z"/>
<path fill-rule="evenodd" clip-rule="evenodd" d="M12.75 4.83594C12.75 4.00751 13.4215 3.33594 14.25 3.33594H21.75C22.5784 3.33594 23.25 4.00751 23.25 4.83594H29.25V6.33594H27.75V31.8359H29.25C29.6642 31.8359 30 32.1717 30 32.5859C30 33.0002 29.6642 33.3359 29.25 33.3359H6.75C6.33579 33.3359 6 33.0002 6 32.5859C6 32.1717 6.33579 31.8359 6.75 31.8359H8.25V6.33594H7.5V4.83594H12.75ZM12.75 8.58594H9.75V31.8359H12.75V28.8359H12V27.3359H24V28.8359H23.25V31.8359H26.25V8.58594H23.25V12.3359C23.25 13.1644 22.5784 13.8359 21.75 13.8359H14.25C13.4215 13.8359 12.75 13.1644 12.75 12.3359V8.58594ZM12.75 7.08594H9.75V6.33594H12.75V7.08594ZM14.25 4.83594H21.75V12.3359H14.25V4.83594ZM17.25 31.8359H14.25V28.8359H17.25V31.8359ZM21.75 31.8359V28.8359H18.75V31.8359H21.75ZM26.25 7.08594V6.33594H23.25V7.08594H26.25Z"/>
</svg>
