<svg width="30" height="30" viewBox="0 0 30 30" xmlns="http://www.w3.org/2000/svg">
<path d="M14.9745 29.1853C23.0095 29.1853 29.5232 22.6716 29.5232 14.6366C29.5232 6.60156 23.0095 0.0878906 14.9745 0.0878906C6.93945 0.0878906 0.425781 6.60156 0.425781 14.6366C0.425781 22.6716 6.93945 29.1853 14.9745 29.1853Z"/>
<path d="M21.6145 16.0721V20.983H18.7666V16.3995C18.7666 15.2469 18.354 14.4621 17.3225 14.4621C16.5377 14.4621 16.0668 14.9913 15.8605 15.5026C15.7842 15.6864 15.7663 15.9376 15.7663 16.1977V20.9785H12.9184C12.9184 20.9785 12.9588 13.2198 12.9184 12.417H15.7663V13.6324C15.7663 13.6324 15.7528 13.6504 15.7483 13.6593H15.7663V13.6324C16.143 13.0494 16.8202 12.2197 18.3316 12.2197C20.2062 12.2197 21.61 13.444 21.61 16.0721H21.6145ZM9.945 8.29102C8.9718 8.29102 8.33496 8.93234 8.33496 9.771C8.33496 10.6097 8.95386 11.251 9.90913 11.251H9.92707C10.9182 11.251 11.5371 10.5917 11.5371 9.771C11.5192 8.93234 10.9182 8.29102 9.945 8.29102ZM8.50538 20.983H11.3532V12.417H8.50538V20.983Z" fill="white"/>
</svg>
