<svg width="41" height="41" viewBox="0 0 41 41" xmlns="http://www.w3.org/2000/svg">
<path fill-rule="evenodd" clip-rule="evenodd" d="M19.1784 5.50011C19.1784 5.50011 19.1784 5.5 20.0117 5.5H20.1585C20.2228 5.5 20.2811 5.5 20.334 5.5C20.845 5.50001 20.845 5.50011 20.845 5.50011V17.5833C20.845 18.7481 21.3151 19.2017 21.6816 19.4156C21.7225 19.4394 21.7637 19.4611 21.8047 19.4808C21.8039 19.3807 21.8028 19.2763 21.8016 19.1682V19.1669C21.7701 16.2263 21.7088 10.4997 26.2411 10.4997C32.45 10.4997 36.8849 32.1718 34.224 34.3832C31.563 36.5947 26.2411 35.2678 23.5802 32.6141C21.4319 30.4716 21.6177 25.4653 21.7511 21.8714L21.7512 21.8703C21.7593 21.6516 21.7673 21.4382 21.7745 21.2309C21.5034 21.1635 21.175 21.0496 20.8419 20.8552C20.5449 20.682 20.2596 20.4535 20.0117 20.1599C19.7639 20.4535 19.4786 20.682 19.1816 20.8552C18.8485 21.0496 18.5201 21.1635 18.249 21.2309C18.2562 21.4384 18.2641 21.6522 18.2723 21.8711C18.4057 25.4649 18.5916 30.4718 16.4433 32.6143C13.7823 35.2681 8.46047 36.5949 5.79952 34.3835C3.13857 32.1721 7.57349 10.5 13.7823 10.5C18.3147 10.5 18.2534 16.2264 18.2219 19.1669C18.2217 19.1805 18.2215 19.194 18.2214 19.2074C18.2204 19.3016 18.2195 19.3928 18.2187 19.4808C18.2598 19.4612 18.301 19.4395 18.3419 19.4156C18.7084 19.2017 19.1784 18.7481 19.1784 17.5833V5.50011ZM26.2411 12.1664C25.446 12.1664 24.9986 12.4168 24.6855 12.7391C24.3244 13.1109 24.0227 13.7089 23.8109 14.5538C23.4401 16.0329 23.4559 17.7349 23.4686 19.1077C23.4708 19.3452 23.4729 19.5728 23.4729 19.7877C23.4729 20.4211 23.4447 21.1794 23.4155 21.9684C23.404 22.2791 23.3922 22.5944 23.382 22.9087C23.3447 24.0547 23.3235 25.2546 23.3788 26.4152C23.4344 27.5821 23.5652 28.6529 23.8095 29.5497C24.0565 30.4569 24.3875 31.0653 24.757 31.434C25.8222 32.4962 27.504 33.3542 29.2194 33.6869C30.9152 34.0157 32.2804 33.7724 33.0799 33.1641C33.084 33.1547 33.0886 33.1438 33.0937 33.1312C33.143 33.0079 33.2029 32.7962 33.2515 32.4736C33.349 31.8278 33.3742 30.9268 33.3085 29.8169C33.178 27.6088 32.7022 24.8074 31.9507 22.0505C31.1964 19.283 30.1928 16.6665 29.0551 14.7819C28.4857 13.8385 27.9243 13.1488 27.4036 12.7112C26.8882 12.2781 26.5063 12.1664 26.2411 12.1664ZM13.7823 12.1667C14.5774 12.1667 15.0249 12.4171 15.3379 12.7393C15.699 13.1112 16.0007 13.7092 16.2125 14.5541C16.5833 16.0332 16.5676 17.7352 16.5549 19.108C16.5526 19.3455 16.5505 19.5731 16.5505 19.788C16.5505 20.4213 16.5787 21.1797 16.608 21.9687C16.6195 22.2792 16.6312 22.5948 16.6415 22.909C16.6788 24.055 16.7 25.2548 16.6447 26.4154C16.5891 27.5823 16.4583 28.6532 16.214 29.5499C15.9669 30.4572 15.636 31.0656 15.2664 31.4342C14.2013 32.4964 12.5195 33.3545 10.8041 33.6872C9.1083 34.016 7.74312 33.7727 6.94357 33.1643C6.93943 33.155 6.9348 33.1441 6.92973 33.1314C6.88039 33.0082 6.82056 32.7964 6.77192 32.4738C6.67454 31.828 6.64922 30.9271 6.71488 29.8172C6.84552 27.609 7.32127 24.8077 8.07275 22.0508C8.82713 19.2832 9.83063 16.6667 10.9683 14.7822C11.5378 13.8387 12.0991 13.1491 12.6199 12.7115C13.1352 12.2783 13.5171 12.1667 13.7823 12.1667Z"/>
</svg>
