<svg width="20" height="20" viewBox="0 0 20 20" xmlns="http://www.w3.org/2000/svg">
<path fill-rule="evenodd" clip-rule="evenodd" d="M19.1279 8.41667C19.1279 12.7867 15.5813 16.3333 11.2113 16.3333C9.23737 16.3333 7.43237 15.6103 6.0496 14.4175L5.3371 15.13L5.25265 15.8689L1.62154 19.5L0.12793 18.0064L3.78543 14.3489L4.68793 14.2856L5.30015 13.6733C4.0546 12.2747 3.29987 10.4328 3.29987 8.41139C3.2946 4.04667 6.84126 0.5 11.2113 0.5C15.5813 0.5 19.1279 4.04667 19.1279 8.41667ZM18.0724 8.41667C18.0724 12.2061 15.0007 15.2778 11.2113 15.2778C7.42182 15.2778 4.35015 12.2061 4.35015 8.41667C4.35015 4.62722 7.42182 1.55556 11.2113 1.55556C15.0007 1.55556 18.0724 4.62722 18.0724 8.41667Z"/>
</svg>
