<svg width="105" height="111" viewBox="0 0 105 111" fill="none" xmlns="http://www.w3.org/2000/svg">
<g clip-path="url(#clip0_92_1950)">
<path d="M20.502 85.9697L28.4729 72.8048C35.6333 79.1323 44.9253 80.1519 51.0499 80.1519C58.3153 80.1519 62.3984 77.0931 62.3984 72.9997C62.3984 68.0966 54.9378 65.6525 49.2185 64.0182C36.8642 60.5545 22.7536 55.7563 22.7536 40.0274C22.7536 26.2477 33.1715 17.3711 51.0649 17.3711C61.4977 17.3711 69.6638 19.3054 77.845 24.7183L71.5102 37.5833C63.9445 33.8048 56.9943 32.5752 51.0649 32.5752C45.1354 32.5752 40.8422 34.9293 40.8422 38.6029C40.8422 43.4011 47.3871 45.4403 53.4216 47.1796C66.8117 51.0631 80.502 56.4761 80.502 71.5752C80.502 85.7598 70.2793 95.3561 51.0649 95.3561C41.5627 95.3561 29.2986 93.6168 20.502 85.9697Z" fill="#F7A212"/>
</g>
<defs>
<clipPath id="clip0_92_1950">
<rect width="60" height="78" fill="white" transform="translate(20.502 17.3711)"/>
</clipPath>
</defs>
</svg>
