<svg  viewBox="0 0 41 41" xmlns="http://www.w3.org/2000/svg">
<g clip-path="url(#clip0_685_3170)">
<path d="M23.5374 23.312L33.8136 12.974C34.5382 12.2742 35.4502 11.9238 36.3892 11.9238C37.3283 11.9238 38.2402 12.2742 38.9648 12.974C39.6624 13.7011 40.0115 14.6161 40.0115 15.5583C40.0115 16.5005 39.6624 17.4156 38.9648 18.1162L29.3319 27.7816C29.0904 28.0239 28.7954 28.1319 28.5005 28.1319C28.2319 28.1319 27.964 28.0511 27.7225 27.8896C26.8639 27.62 26.1927 27.5936 25.6028 27.8088C25.0392 27.9975 24.5027 28.4279 23.9925 29.0469C24.0731 30.5011 23.7239 32.008 23.0264 33.4349C22.3018 34.8346 21.2551 36.1272 19.9677 37.123C18.6795 38.1188 17.1505 38.7923 15.5139 38.9266C14.1452 39.061 12.7231 38.7923 11.2746 38.0924C11.167 38.0116 11.0602 37.9308 10.9797 37.85L10.9526 37.7965C10.8992 37.6885 10.845 37.6077 10.845 37.5005C10.8178 37.3661 10.8178 37.231 10.8721 37.0966C10.8992 36.9886 10.9797 36.8814 11.0602 36.7735L23.2153 24.6046C23.1619 24.4702 23.1619 24.3622 23.1619 24.2279C23.1619 23.9855 23.2424 23.716 23.3763 23.5008C23.4298 23.4472 23.484 23.3664 23.5374 23.312ZM30.782 22.6386C31.0506 22.8001 31.104 23.1505 30.943 23.4192C30.782 23.6888 30.4065 23.7424 30.165 23.5808L28.2334 22.2882C27.9648 22.1267 27.8843 21.7763 28.0724 21.5076C28.2334 21.238 28.5826 21.1573 28.8505 21.346L30.782 22.6386ZM29.1988 24.2271C29.4675 24.4158 29.5209 24.7654 29.3598 25.0077C29.1717 25.2773 28.8233 25.358 28.5547 25.1693L26.6232 23.8767C26.3816 23.7152 26.3011 23.3648 26.4893 23.0961C26.6503 22.8265 26.9994 22.7729 27.2673 22.9345L29.1988 24.2271ZM24.3959 24.3079H24.423L28.2869 26.8922L28.314 26.9193C28.3945 26.9729 28.4479 26.9729 28.5021 26.9729H28.5292L38.1621 17.3348C38.6452 16.8229 38.8867 16.2038 38.8867 15.5583C38.8867 14.9129 38.6452 14.2658 38.1621 13.7811C37.679 13.2964 37.0349 13.054 36.3916 13.054C35.7483 13.054 35.1034 13.2964 34.6211 13.7811L24.3449 24.1191H24.3178C24.2907 24.1463 24.2907 24.1999 24.2907 24.2271L24.3983 24.2807V24.3079H24.3959ZM24.0204 25.4116L12.1874 37.2574C13.2875 37.7421 14.3875 37.8764 15.4071 37.7957C16.8292 37.6613 18.1709 37.0958 19.2981 36.2072C20.4252 35.3457 21.3643 34.1884 22.0084 32.923C22.6525 31.6576 22.9475 30.2843 22.8398 29.0189C22.8398 28.911 22.867 28.8038 22.8933 28.6958C22.9204 28.615 22.9738 28.507 23.0272 28.4263C23.7247 27.6184 24.3959 27.0265 25.2274 26.7298C25.3884 26.649 25.5765 26.6218 25.7638 26.5682L24.0197 25.4108L24.0204 25.4116Z"/>
<path d="M7.97498 22.3142C8.80642 21.4799 9.9065 21.0488 11.0066 21.0488C12.1067 21.0488 13.2068 21.4799 14.0382 22.3142C14.8696 23.1484 15.2993 24.2522 15.2993 25.356C15.2993 26.4598 14.8696 27.5636 14.0382 28.425C13.2068 29.2593 12.1067 29.6632 11.0066 29.6632C9.9065 29.6632 8.80642 29.2593 7.97498 28.425V28.3978C7.11643 27.5636 6.71387 26.4598 6.71387 25.356C6.71387 24.2522 7.11643 23.1484 7.97498 22.3142ZM8.78011 23.122C8.16311 23.7411 7.84105 24.549 7.84105 25.3568C7.84105 26.1646 8.16311 26.9989 8.78011 27.618C9.39711 28.237 10.2022 28.533 11.0074 28.533C11.8125 28.533 12.6176 28.237 13.2347 27.618C13.8517 26.9989 14.1737 26.1638 14.1737 25.3568C14.1737 24.5498 13.8517 23.7411 13.2347 23.122C12.6176 22.5029 11.8125 22.207 11.0074 22.207C10.2022 22.207 9.39711 22.5029 8.78011 23.122Z"/>
<path d="M7.97461 22.3154L20.9612 9.28506L19.7001 6.86233L25.0395 1.50496L38.3489 0.0508348C38.5633 0.02364 38.7785 0.0508348 38.9659 0.158814C39.154 0.266793 39.315 0.401167 39.4219 0.616326L39.7439 1.20901C39.8244 1.34339 39.8778 1.50496 39.8778 1.66652C39.9049 1.82809 39.8778 1.96247 39.7973 2.12404C39.7439 2.28561 39.6634 2.41998 39.5558 2.52796C39.4482 2.63594 39.3142 2.71672 39.1532 2.77031L29.2788 6.24325L16.5337 19.004L15.2192 25.1156L14.3073 26.0306L14.1191 24.8997C14.092 24.5765 13.9852 24.2534 13.8242 23.9303C13.6903 23.6343 13.475 23.3648 13.2343 23.1224C12.6173 22.5033 11.8121 22.1802 11.007 22.1802C10.2019 22.1802 9.45095 22.4761 8.83395 23.0416L8.78054 23.0952L7.97541 22.3146L7.97461 22.3154ZM22.0621 9.76977L10.8197 21.05H11.0078C12.1079 21.05 13.208 21.4811 14.0394 22.3154C14.2275 22.5041 14.3886 22.6921 14.5225 22.908L15.515 18.4393C19.8882 14.0513 24.2622 9.66259 28.6355 5.24744L38.7243 1.69372L38.4557 1.18182L25.5767 2.58155L21.0959 7.07749L22.357 9.47382L22.0621 9.76977Z"/>
<path d="M6.17702 20.1075C6.87454 19.5956 7.30421 18.8422 7.43813 18.0343C7.54575 17.2265 7.38472 16.365 6.84823 15.6652C6.33805 14.9653 5.58712 14.5342 4.78199 14.3998C3.97686 14.2918 3.14542 14.4806 2.4208 14.9917C1.72328 15.5036 1.29361 16.2571 1.18679 17.0649C1.05287 17.8728 1.2402 18.7342 1.75038 19.4341C2.28687 20.1339 3.0386 20.565 3.84293 20.6722C4.62096 20.8066 5.47951 20.6186 6.17702 20.1067V20.1075ZM8.56532 18.1959C8.37719 19.2725 7.81439 20.3227 6.84823 21.0226C5.90918 21.7224 4.75568 21.9648 3.6556 21.8032C2.58262 21.6416 1.56305 21.0497 0.838429 20.1067C0.140115 19.1381 -0.101425 17.9807 0.0596017 16.9041C0.220628 15.8004 0.810528 14.7774 1.77669 14.0775C2.71575 13.3776 3.86924 13.1081 4.94302 13.2968C6.0431 13.4584 7.06267 14.0239 7.76019 14.9933C8.48481 15.9627 8.72635 17.1201 8.56532 18.1967V18.1959Z"/>
<path d="M6.20405 20.0819C6.90156 19.57 7.30413 18.8165 7.43805 18.0087C7.54567 17.2281 7.35754 16.3666 6.84815 15.6668C6.66002 15.3972 6.41848 15.1549 6.17774 14.9669H6.12433C5.88279 14.7781 5.58784 14.6166 5.29289 14.5358C5.02425 14.4822 4.83691 14.2398 4.83691 13.9703C4.83691 13.6471 5.07845 13.4048 5.40051 13.4048L11.4111 13.0009L20.105 6.5933L20.1584 6.5661C20.4533 6.40453 20.7754 6.51251 20.9364 6.78126L22.1441 9.09681C22.3051 9.33917 22.2517 9.6623 22.0102 9.85027L6.87685 20.9961C6.60821 21.1849 6.25985 21.1305 6.07172 20.8881C5.88359 20.6458 5.93779 20.2691 6.20564 20.0803L6.20405 20.0819ZM8.51183 18.3854L20.9348 9.20479L20.2373 7.91224L11.946 14.0239C11.8655 14.1047 11.7579 14.1318 11.6511 14.1318L7.25072 14.4278C7.43885 14.5894 7.62618 14.7781 7.7609 14.9933C8.45842 15.9627 8.72706 17.0929 8.56604 18.1967L8.51263 18.3854H8.51183Z"/>
<path d="M35.5582 2.87695L38.4559 3.28088C38.6703 3.30807 38.8584 3.41525 39.0195 3.55042C39.1805 3.6848 39.2881 3.87356 39.3415 4.08872L39.5296 4.76139C39.5567 4.92296 39.5567 5.08453 39.5296 5.2461C39.5025 5.38047 39.4491 5.54204 39.3415 5.67722C39.261 5.78519 39.1534 5.89237 39.0195 5.97316C38.8855 6.05394 38.7245 6.10753 38.5635 6.10753L26.7041 7.21132L28.6356 5.2461C30.9163 4.46545 33.1699 3.6576 35.4243 2.87695H35.5582ZM38.2685 4.41186L35.5319 4.03513L30.8095 5.70441L38.4033 5.00454L38.2693 4.41186H38.2685Z"/>
<path d="M24.0744 7.77791C23.8599 7.99307 23.4845 7.99307 23.2692 7.77791C23.0548 7.53556 23.0548 7.18523 23.2692 6.97007L24.1278 6.10863C24.3422 5.89348 24.6914 5.89348 24.9329 6.10863C25.1473 6.32379 25.1473 6.70052 24.9329 6.91648L24.0744 7.77791Z"/>
</g>
</svg>
