<svg width="179" height="40" viewBox="0 0 179 40" fill="none" xmlns="http://www.w3.org/2000/svg">
<g clip-path="url(#clip0_685_1212)">
<path d="M28.6328 11.1589C28.6328 4.46807 32.7533 -0.00195312 39.874 -0.00195312C46.9948 -0.00195312 51.1153 4.46807 51.1153 11.1589C51.1153 17.8498 46.9984 22.3198 39.874 22.3198C32.7497 22.3198 28.6328 17.8498 28.6328 11.1589ZM45.7283 11.1589C45.7283 7.09625 43.7876 4.46807 39.8705 4.46807C35.9534 4.46807 34.0162 7.09625 34.0162 11.1589C34.0162 15.2216 35.9569 17.8498 39.8705 17.8498C43.784 17.8498 45.7283 15.2216 45.7283 11.1589Z" fill="#97BF0D"/>
<path d="M54.0869 0.349609H61.1328L67.8861 13.8766V0.349609H73.034V21.9665H65.9881L59.2348 8.43958V21.9665H54.0869V0.349609Z" fill="#97BF0D"/>
<path d="M76.2734 19.6279L78.5709 15.8592C80.6294 17.6692 83.3086 17.9632 85.0745 17.9632C87.1651 17.9632 88.3423 17.0883 88.3423 15.9194C88.3423 14.5168 86.1947 13.8155 84.5465 13.3479C80.9861 12.3526 76.9263 10.9818 76.9263 6.48348C76.9263 2.53767 79.9266 -0.00195312 85.0745 -0.00195312C88.0748 -0.00195312 90.4293 0.554144 92.7839 2.10201L90.9573 5.78216C88.7811 4.70185 86.7798 4.35119 85.0709 4.35119C83.3621 4.35119 82.1277 5.02417 82.1277 6.07615C82.1277 7.45045 84.0114 8.03489 85.7488 8.53077C89.6052 9.63942 93.5473 11.1908 93.5473 15.5121C93.5473 19.5748 90.6041 22.3198 85.0709 22.3198C82.3346 22.3198 78.8028 21.824 76.2734 19.6315V19.6279Z" fill="#97BF0D"/>
<path d="M-0.000338737 19.6279L2.29714 15.8592C4.3556 17.6692 7.0348 17.9632 8.80072 17.9632C10.8913 17.9632 12.0686 17.0883 12.0686 15.9194C12.0686 14.5168 9.92092 13.8155 8.27273 13.3479C4.70878 12.3561 0.648949 10.9818 0.648949 6.48348C0.648949 2.53767 3.64923 -0.00195312 8.79715 -0.00195312C11.7974 -0.00195312 14.152 0.554144 16.5065 2.10201L14.68 5.78216C12.5038 4.70185 10.5024 4.35119 8.79358 4.35119C7.08474 4.35119 5.85038 5.02417 5.85038 6.07615C5.85038 7.45045 7.73403 8.03489 9.47141 8.53077C13.3279 9.63942 17.27 11.1908 17.27 15.5121C17.27 19.5748 14.3268 22.3198 8.79358 22.3198C6.0573 22.3198 2.52546 21.824 -0.00390625 19.6315L-0.000338737 19.6279Z" fill="#B1B3B4"/>
<path d="M20.5098 0.349609H25.6577V21.9665H20.5098V0.349609Z" fill="#B1B3B4"/>
<path d="M96.7832 21.9665V0.349609H106.433C111.082 0.349609 113.879 2.53858 113.879 6.39583C113.879 8.26602 113.262 9.55177 111.788 10.7206C114.086 11.7443 114.878 14.0501 114.878 15.7751C114.878 19.7776 111.963 21.9701 107.14 21.9701H96.7832V21.9665ZM101.935 9.02755H106.052C107.554 9.02755 108.581 8.50333 108.581 6.89526C108.581 5.28718 107.55 4.73463 106.052 4.73463H101.935V9.02755ZM101.935 17.5851H106.876C108.495 17.5851 109.583 17.0892 109.583 15.2473C109.583 13.5224 108.495 12.9982 106.876 12.9982H101.935V17.5851Z" fill="#B1B3B4"/>
<path d="M118.12 0.349609H133.746V4.81964H123.272V8.85045H133.011V13.1753H123.272V17.5001H134.128V21.9701H118.12V0.349609Z" fill="#B1B3B4"/>
<path d="M151.577 15.1304C152.576 16.9121 153.371 17.4682 155.401 17.9074V22.087C151.488 22.087 149.458 21.0952 147.546 17.7055L146.34 15.5732H142.487V21.9701H137.339V0.349609H146.664C151.784 0.349609 155.226 3.00966 155.226 8.00391C155.226 10.8659 153.493 13.0867 151.049 14.1954L151.577 15.1304ZM142.483 4.73108V11.3051H146.397C148.309 11.3051 149.839 10.2531 149.839 8.00391C149.839 5.75473 148.309 4.73108 146.457 4.73108H142.487H142.483Z" fill="#B1B3B4"/>
<path d="M168.996 13.1744V9.4942H179V10.5462C179 17.9384 175.175 22.3198 168.493 22.3198C161.372 22.3198 157.252 17.8498 157.252 11.1589C157.252 4.46807 161.169 -0.00195312 168.643 -0.00195312C171.379 -0.00195312 174.44 0.872925 176.324 2.56955L174.233 6.19304C172.585 4.99583 171.144 4.46807 168.936 4.46807C164.726 4.46807 162.639 7.24502 162.639 11.1589C162.639 15.0729 164.58 17.8498 168.493 17.8498C171.347 17.8498 173.32 16.3303 173.702 13.1744H168.993H168.996Z" fill="#B1B3B4"/>
<path d="M63.2555 36.6102C63.2555 34.6054 64.2723 33.2559 66.5305 33.2559C68.5854 33.2559 69.6699 34.6054 69.6699 36.6314C69.6699 36.9254 69.6592 37.0635 69.6235 37.3221H65.1499C65.3211 38.2182 66.0061 38.5228 66.9978 38.5228C67.5223 38.5228 68.1965 38.4449 68.9136 38.1368L69.3916 39.4048C68.6389 39.8015 67.8505 39.9609 66.7909 39.9609C64.3258 39.9609 63.252 38.6114 63.252 36.6066L63.2555 36.6102ZM67.8433 36.2134C67.8433 35.25 67.3867 34.6939 66.5305 34.6939C65.5958 34.6939 65.1499 35.2713 65.1499 36.2134H67.8433Z" fill="#B1B3B4"/>
<path d="M71.5071 37.3938V34.9002H70.6865V33.788L71.5071 33.3913L71.9958 32.1445H73.4335V33.3913H75.3172V34.8967H73.4335V37.3903C73.4335 38.2297 73.8224 38.4104 74.254 38.4104C74.6072 38.4104 74.8926 38.3431 75.1994 38.2191V39.6465C74.7999 39.8272 74.2754 39.9653 73.751 39.9653C72.506 39.9653 71.5035 39.5473 71.5035 37.3938H71.5071Z" fill="#B1B3B4"/>
<path d="M84.3069 33.3945H86.4296L83.7147 39.8304H82.4126L81.3637 37.1207L80.3149 39.8304H79.0127L76.2979 33.3945H78.4205L79.1519 35.5693C79.3124 36.0333 79.5051 36.6921 79.6406 37.1668C79.8012 36.6921 79.9831 36.0333 80.108 35.5693L80.3827 34.5599L79.926 33.3945H82.038L82.6195 35.5693C82.7443 36.0333 82.9263 36.6921 83.0868 37.1668C83.2581 36.6921 83.4757 36.0333 83.622 35.5693L84.3069 33.3945Z" fill="#B1B3B4"/>
<path d="M87.2038 36.6102C87.2038 34.6054 88.2205 33.2559 90.4787 33.2559C92.5336 33.2559 93.6182 34.6054 93.6182 36.6314C93.6182 36.9254 93.6075 37.0635 93.5718 37.3221H89.0981C89.2694 38.2182 89.9543 38.5228 90.9461 38.5228C91.4705 38.5228 92.1448 38.4449 92.8618 38.1368L93.3399 39.4048C92.5871 39.8015 91.7987 39.9609 90.7392 39.9609C88.274 39.9609 87.2002 38.6114 87.2002 36.6066L87.2038 36.6102ZM91.7916 36.2134C91.7916 35.25 91.3349 34.6939 90.4787 34.6939C89.5441 34.6939 89.0981 35.2713 89.0981 36.2134H91.7916Z" fill="#B1B3B4"/>
<path d="M95.2236 33.3949H96.8112L96.9931 34.4256C97.3142 33.7243 97.9849 33.2461 98.7055 33.2461C98.9445 33.2461 99.2192 33.2921 99.4012 33.3701V35.1269C99.1158 35.0242 98.8304 34.9781 98.6021 34.9781C97.6781 34.9781 97.1536 35.4776 97.1536 36.6889V39.8272H95.2236V33.3913V33.3949Z" fill="#B1B3B4"/>
<path d="M107.011 39.9086C105.516 39.8165 104.899 39.2958 104.032 37.9499L103.586 37.2592L102.708 38.2899V39.8307H100.778V31.7159L102.708 31.3086V36.2391L104.717 33.3948H106.954L104.852 35.9557L105.502 36.9758C105.88 37.578 106.187 37.9499 107.007 38.1872V39.9086H107.011Z" fill="#B1B3B4"/>
<path d="M117.895 38.1307V39.8309H111.035L111.057 39.6715C111.285 38.074 112.815 36.1578 113.807 34.9677C114.471 34.1743 114.938 33.6075 115.281 33.0762C115.017 33.1223 114.631 33.1435 114.035 33.1435H111.549V31.4434H117.838L117.803 31.7373C117.631 33.2427 116.308 34.8862 115.245 36.1436C114.481 37.0397 113.943 37.6738 113.568 38.2511C114.025 38.1378 114.56 38.1271 114.813 38.1271H117.895V38.1307Z" fill="#B1B3B4"/>
<path d="M119.391 32.771V31.209H121.456V32.771H119.391ZM119.458 39.8303V33.3944H121.388V39.8303H119.458Z" fill="#B1B3B4"/>
<path d="M122.994 36.6102C122.994 34.6054 124.011 33.2559 126.269 33.2559C128.324 33.2559 129.408 34.6054 129.408 36.6314C129.408 36.9254 129.397 37.0635 129.362 37.3221H124.888C125.059 38.2182 125.744 38.5228 126.736 38.5228C127.261 38.5228 127.935 38.4449 128.652 38.1368L129.13 39.4048C128.377 39.8015 127.589 39.9609 126.529 39.9609C124.064 39.9609 122.99 38.6114 122.99 36.6066L122.994 36.6102ZM127.582 36.2134C127.582 35.25 127.125 34.6939 126.269 34.6939C125.334 34.6939 124.888 35.2713 124.888 36.2134H127.582Z" fill="#B1B3B4"/>
<path d="M137.245 39.9086C135.75 39.8165 135.133 39.2958 134.266 37.9499L133.82 37.2592L132.943 38.2899V39.8307H131.013V31.7159L132.943 31.3086V36.2391L134.951 33.3948H137.188L135.087 35.9557L135.736 36.9758C136.114 37.578 136.421 37.9499 137.242 38.1872V39.9086H137.245Z" fill="#B1B3B4"/>
<path d="M138.295 36.6102C138.295 34.6054 139.311 33.2559 141.57 33.2559C143.624 33.2559 144.709 34.6054 144.709 36.6314C144.709 36.9254 144.698 37.0635 144.663 37.3221H140.189C140.36 38.2182 141.045 38.5228 142.037 38.5228C142.561 38.5228 143.236 38.4449 143.953 38.1368L144.431 39.4048C143.678 39.8015 142.89 39.9609 141.83 39.9609C139.365 39.9609 138.291 38.6114 138.291 36.6066L138.295 36.6102ZM142.882 36.2134C142.882 35.25 142.426 34.6939 141.57 34.6939C140.635 34.6939 140.189 35.2713 140.189 36.2134H142.882Z" fill="#B1B3B4"/>
<path d="M146.314 33.3944H147.902L148.084 34.4251C148.437 33.7238 149.111 33.2598 150.056 33.2598C151.53 33.2598 152.34 34.1205 152.34 35.8879V39.8302H150.41V35.8879C150.41 35.2185 150.067 34.8785 149.439 34.8785C148.676 34.8785 148.241 35.2185 148.241 36.2032V39.8302H146.311V33.3944H146.314Z" fill="#B1B3B4"/>
<path d="M154.266 39.8307V31.7159L156.182 31.3086V34.2874C156.546 33.6074 157.141 33.2567 158.03 33.2567C159.435 33.2567 160.288 34.1174 160.288 35.8849V39.8271H158.358V35.8849C158.358 35.2154 158.015 34.8754 157.388 34.8754C156.624 34.8754 156.189 35.2721 156.189 36.2568V39.8271H154.259L154.266 39.8307Z" fill="#B1B3B4"/>
<path d="M162.015 37.3368V33.3945H163.945V37.3049C163.945 38.0204 164.334 38.3817 164.936 38.3817C165.539 38.3817 165.953 38.0204 165.953 37.3049V33.3945H167.883V37.3368C167.883 38.8988 166.763 39.965 164.94 39.965C163.117 39.965 162.018 38.8988 162.018 37.3368H162.015Z" fill="#B1B3B4"/>
<path d="M169.738 32.771V31.209H171.804V32.771H169.738ZM169.806 39.8303V33.3944H171.736V39.8303H169.806Z" fill="#B1B3B4"/>
<path d="M173.342 39.1958L174.016 37.8924C174.598 38.2891 175.522 38.3812 175.832 38.3812C176.438 38.3812 176.699 38.2784 176.699 38.0057C176.699 37.733 176.367 37.5736 175.796 37.4036C174.551 37.0281 173.524 36.6101 173.524 35.3067C173.524 34.0032 174.369 33.2559 175.989 33.2559C176.902 33.2559 177.562 33.3586 178.376 33.7447L177.84 35.126C177.109 34.8781 176.549 34.8073 176.185 34.8073C175.718 34.8073 175.489 34.956 175.489 35.1827C175.489 35.4307 175.707 35.5794 176.253 35.7494C177.68 36.2028 178.661 36.6349 178.661 38.0057C178.661 39.0719 177.826 39.9644 175.978 39.9644C175.133 39.9644 174.141 39.805 173.342 39.1923V39.1958Z" fill="#B1B3B4"/>
<path d="M54.1582 31.4492H56.8874L59.5023 36.6879V31.4492H61.4966V39.8225H58.7674L56.1524 34.5839V39.8225H54.1582V31.4492Z" fill="#B1B3B4"/>
</g>
<defs>
<clipPath id="clip0_685_1212">
<rect width="179" height="40" fill="white" transform="translate(0 -0.00195312)"/>
</clipPath>
</defs>
</svg>
