<svg width="163" height="45" viewBox="0 0 163 45" fill="none" xmlns="http://www.w3.org/2000/svg">
<g clip-path="url(#clip0_685_1352)">
<path d="M22.7026 13.6625C22.1622 13.6625 21.7227 13.2292 21.7227 12.6965C21.7227 12.1638 22.1622 11.7305 22.7026 11.7305C23.243 11.7305 23.6825 12.1638 23.6825 12.6965C23.6825 13.2292 23.243 13.6625 22.7026 13.6625Z" fill="#333333"/>
<path d="M25.059 13.6625C24.5186 13.6625 24.0791 13.2292 24.0791 12.6965C24.0791 12.1638 24.5186 11.7305 25.059 11.7305C25.5995 11.7305 26.039 12.1638 26.039 12.6965C26.039 13.2292 25.5995 13.6625 25.059 13.6625Z" fill="#333333"/>
<path d="M27.4155 13.6625C26.8751 13.6625 26.4355 13.2292 26.4355 12.6965C26.4355 12.1638 26.8751 11.7305 27.4155 11.7305C27.9559 11.7305 28.3954 12.1638 28.3954 12.6965C28.3954 13.2292 27.9559 13.6625 27.4155 13.6625Z" fill="#333333"/>
<path d="M29.771 13.6625C29.2305 13.6625 28.791 13.2292 28.791 12.6965C28.791 12.1638 29.2305 11.7305 29.771 11.7305C30.3114 11.7305 30.7509 12.1638 30.7509 12.6965C30.7509 13.2292 30.3114 13.6625 29.771 13.6625Z" fill="#333333"/>
<path d="M22.7026 15.9828C22.1622 15.9828 21.7227 15.5495 21.7227 15.0168C21.7227 14.4841 22.1622 14.0508 22.7026 14.0508C23.243 14.0508 23.6825 14.4841 23.6825 15.0168C23.6825 15.5495 23.243 15.9828 22.7026 15.9828Z" fill="#333333"/>
<path d="M25.059 15.9828C24.5186 15.9828 24.0791 15.5495 24.0791 15.0168C24.0791 14.4841 24.5186 14.0508 25.059 14.0508C25.5995 14.0508 26.039 14.4841 26.039 15.0168C26.039 15.5495 25.5995 15.9828 25.059 15.9828Z" fill="#333333"/>
<path d="M27.4155 15.9828C26.8751 15.9828 26.4355 15.5495 26.4355 15.0168C26.4355 14.4841 26.8751 14.0508 27.4155 14.0508C27.9559 14.0508 28.3954 14.4841 28.3954 15.0168C28.3954 15.5495 27.9559 15.9828 27.4155 15.9828Z" fill="#333333"/>
<path d="M22.7026 18.3051C22.1622 18.3051 21.7227 17.8718 21.7227 17.3391C21.7227 16.8063 22.1622 16.373 22.7026 16.373C23.243 16.373 23.6825 16.8063 23.6825 17.3391C23.6825 17.8718 23.243 18.3051 22.7026 18.3051Z" fill="#333333"/>
<path d="M25.059 18.3051C24.5186 18.3051 24.0791 17.8718 24.0791 17.3391C24.0791 16.8063 24.5186 16.373 25.059 16.373C25.5995 16.373 26.039 16.8063 26.039 17.3391C26.039 17.8718 25.5995 18.3051 25.059 18.3051Z" fill="#333333"/>
<path d="M27.4155 18.3051C26.8751 18.3051 26.4355 17.8718 26.4355 17.3391C26.4355 16.8063 26.8751 16.373 27.4155 16.373C27.9559 16.373 28.3954 16.8063 28.3954 17.3391C28.3954 17.8718 27.9559 18.3051 27.4155 18.3051Z" fill="#333333"/>
<path d="M22.7026 20.6273C22.1622 20.6273 21.7227 20.1941 21.7227 19.6613C21.7227 19.1286 22.1622 18.6953 22.7026 18.6953C23.243 18.6953 23.6825 19.1286 23.6825 19.6613C23.6825 20.1941 23.243 20.6273 22.7026 20.6273Z" fill="#333333"/>
<path d="M25.059 20.6273C24.5186 20.6273 24.0791 20.1941 24.0791 19.6613C24.0791 19.1286 24.5186 18.6953 25.059 18.6953C25.5995 18.6953 26.039 19.1286 26.039 19.6613C26.039 20.1941 25.5995 20.6273 25.059 20.6273Z" fill="#333333"/>
<path d="M27.4155 20.6273C26.8751 20.6273 26.4355 20.1941 26.4355 19.6613C26.4355 19.1286 26.8751 18.6953 27.4155 18.6953C27.9559 18.6953 28.3954 19.1286 28.3954 19.6613C28.3954 20.1941 27.9559 20.6273 27.4155 20.6273Z" fill="#333333"/>
<path d="M15.6381 20.6273C15.0977 20.6273 14.6582 20.1941 14.6582 19.6613C14.6582 19.1286 15.0977 18.6953 15.6381 18.6953C16.1786 18.6953 16.6181 19.1286 16.6181 19.6613C16.6181 20.1941 16.1786 20.6273 15.6381 20.6273Z" fill="#333333"/>
<path d="M13.2817 20.6273C12.7413 20.6273 12.3018 20.1941 12.3018 19.6613C12.3018 19.1286 12.7413 18.6953 13.2817 18.6953C13.8221 18.6953 14.2616 19.1286 14.2616 19.6613C14.2616 20.1941 13.8221 20.6273 13.2817 20.6273Z" fill="#333333"/>
<path d="M15.6381 18.3051C15.0977 18.3051 14.6582 17.8718 14.6582 17.3391C14.6582 16.8063 15.0977 16.373 15.6381 16.373C16.1786 16.373 16.6181 16.8063 16.6181 17.3391C16.6181 17.8718 16.1786 18.3051 15.6381 18.3051Z" fill="#333333"/>
<path d="M13.2817 18.3051C12.7413 18.3051 12.3018 17.8718 12.3018 17.3391C12.3018 16.8063 12.7413 16.373 13.2817 16.373C13.8221 16.373 14.2616 16.8063 14.2616 17.3391C14.2616 17.8718 13.8221 18.3051 13.2817 18.3051Z" fill="#333333"/>
<path d="M15.6381 15.9828C15.0977 15.9828 14.6582 15.5495 14.6582 15.0168C14.6582 14.4841 15.0977 14.0508 15.6381 14.0508C16.1786 14.0508 16.6181 14.4841 16.6181 15.0168C16.6181 15.5495 16.1786 15.9828 15.6381 15.9828Z" fill="#333333"/>
<path d="M13.2817 15.9828C12.7413 15.9828 12.3018 15.5495 12.3018 15.0168C12.3018 14.4841 12.7413 14.0508 13.2817 14.0508C13.8221 14.0508 14.2616 14.4841 14.2616 15.0168C14.2616 15.5495 13.8221 15.9828 13.2817 15.9828Z" fill="#333333"/>
<path d="M15.6381 13.6625C15.0977 13.6625 14.6582 13.2292 14.6582 12.6965C14.6582 12.1638 15.0977 11.7305 15.6381 11.7305C16.1786 11.7305 16.6181 12.1638 16.6181 12.6965C16.6181 13.2292 16.1786 13.6625 15.6381 13.6625Z" fill="#333333"/>
<path d="M13.2817 13.6625C12.7413 13.6625 12.3018 13.2292 12.3018 12.6965C12.3018 12.1638 12.7413 11.7305 13.2817 11.7305C13.8221 11.7305 14.2616 12.1638 14.2616 12.6965C14.2616 13.2292 13.8221 13.6625 13.2817 13.6625Z" fill="#333333"/>
<path d="M17.9936 20.6273C17.4532 20.6273 17.0137 20.1941 17.0137 19.6613C17.0137 19.1286 17.4532 18.6953 17.9936 18.6953C18.534 18.6953 18.9736 19.1286 18.9736 19.6613C18.9736 20.1941 18.534 20.6273 17.9936 20.6273Z" fill="#333333"/>
<path d="M20.3462 20.6273C19.8057 20.6273 19.3662 20.1941 19.3662 19.6613C19.3662 19.1286 19.8057 18.6953 20.3462 18.6953C20.8866 18.6953 21.3261 19.1286 21.3261 19.6613C21.3261 20.1941 20.8866 20.6273 20.3462 20.6273Z" fill="#333333"/>
<path d="M22.7026 22.9496C22.1622 22.9496 21.7227 22.5163 21.7227 21.9836C21.7227 21.4509 22.1622 21.0176 22.7026 21.0176C23.243 21.0176 23.6825 21.4509 23.6825 21.9836C23.6825 22.5163 23.243 22.9496 22.7026 22.9496Z" fill="#333333"/>
<path d="M25.059 22.9496C24.5186 22.9496 24.0791 22.5163 24.0791 21.9836C24.0791 21.4509 24.5186 21.0176 25.059 21.0176C25.5995 21.0176 26.039 21.4509 26.039 21.9836C26.039 22.5163 25.5995 22.9496 25.059 22.9496Z" fill="#333333"/>
<path d="M27.4155 22.9496C26.8751 22.9496 26.4355 22.5163 26.4355 21.9836C26.4355 21.4509 26.8751 21.0176 27.4155 21.0176C27.9559 21.0176 28.3954 21.4509 28.3954 21.9836C28.3954 22.5163 27.9559 22.9496 27.4155 22.9496Z" fill="#333333"/>
<path d="M15.6381 22.9496C15.0977 22.9496 14.6582 22.5163 14.6582 21.9836C14.6582 21.4509 15.0977 21.0176 15.6381 21.0176C16.1786 21.0176 16.6181 21.4509 16.6181 21.9836C16.6181 22.5163 16.1786 22.9496 15.6381 22.9496Z" fill="#333333"/>
<path d="M13.2817 22.9496C12.7413 22.9496 12.3018 22.5163 12.3018 21.9836C12.3018 21.4509 12.7413 21.0176 13.2817 21.0176C13.8221 21.0176 14.2616 21.4509 14.2616 21.9836C14.2616 22.5163 13.8221 22.9496 13.2817 22.9496Z" fill="#333333"/>
<path d="M10.9253 22.9496C10.3848 22.9496 9.94531 22.5163 9.94531 21.9836C9.94531 21.4509 10.3848 21.0176 10.9253 21.0176C11.4657 21.0176 11.9052 21.4509 11.9052 21.9836C11.9052 22.5163 11.4657 22.9496 10.9253 22.9496Z" fill="#333333"/>
<path d="M17.9936 22.9496C17.4532 22.9496 17.0137 22.5163 17.0137 21.9836C17.0137 21.4509 17.4532 21.0176 17.9936 21.0176C18.534 21.0176 18.9736 21.4509 18.9736 21.9836C18.9736 22.5163 18.534 22.9496 17.9936 22.9496Z" fill="#333333"/>
<path d="M20.3462 22.9496C19.8057 22.9496 19.3662 22.5163 19.3662 21.9836C19.3662 21.4509 19.8057 21.0176 20.3462 21.0176C20.8866 21.0176 21.3261 21.4509 21.3261 21.9836C21.3261 22.5163 20.8866 22.9496 20.3462 22.9496Z" fill="#333333"/>
<path d="M22.7026 25.2738C22.1622 25.2738 21.7227 24.8405 21.7227 24.3078C21.7227 23.7751 22.1622 23.3418 22.7026 23.3418C23.243 23.3418 23.6825 23.7751 23.6825 24.3078C23.6825 24.8405 23.243 25.2738 22.7026 25.2738Z" fill="#333333"/>
<path d="M25.059 25.2738C24.5186 25.2738 24.0791 24.8405 24.0791 24.3078C24.0791 23.7751 24.5186 23.3418 25.059 23.3418C25.5995 23.3418 26.039 23.7751 26.039 24.3078C26.039 24.8405 25.5995 25.2738 25.059 25.2738Z" fill="#333333"/>
<path d="M27.4155 25.2738C26.8751 25.2738 26.4355 24.8405 26.4355 24.3078C26.4355 23.7751 26.8751 23.3418 27.4155 23.3418C27.9559 23.3418 28.3954 23.7751 28.3954 24.3078C28.3954 24.8405 27.9559 25.2738 27.4155 25.2738Z" fill="#333333"/>
<path d="M15.6381 25.2738C15.0977 25.2738 14.6582 24.8405 14.6582 24.3078C14.6582 23.7751 15.0977 23.3418 15.6381 23.3418C16.1786 23.3418 16.6181 23.7751 16.6181 24.3078C16.6181 24.8405 16.1786 25.2738 15.6381 25.2738Z" fill="#333333"/>
<path d="M13.2817 25.2738C12.7413 25.2738 12.3018 24.8405 12.3018 24.3078C12.3018 23.7751 12.7413 23.3418 13.2817 23.3418C13.8221 23.3418 14.2616 23.7751 14.2616 24.3078C14.2616 24.8405 13.8221 25.2738 13.2817 25.2738Z" fill="#333333"/>
<path d="M10.9253 25.2738C10.3848 25.2738 9.94531 24.8405 9.94531 24.3078C9.94531 23.7751 10.3848 23.3418 10.9253 23.3418C11.4657 23.3418 11.9052 23.7751 11.9052 24.3078C11.9052 24.8405 11.4657 25.2738 10.9253 25.2738Z" fill="#333333"/>
<path d="M17.9936 25.2738C17.4532 25.2738 17.0137 24.8405 17.0137 24.3078C17.0137 23.7751 17.4532 23.3418 17.9936 23.3418C18.534 23.3418 18.9736 23.7751 18.9736 24.3078C18.9736 24.8405 18.534 25.2738 17.9936 25.2738Z" fill="#333333"/>
<path d="M20.3462 25.2738C19.8057 25.2738 19.3662 24.8405 19.3662 24.3078C19.3662 23.7751 19.8057 23.3418 20.3462 23.3418C20.8866 23.3418 21.3261 23.7751 21.3261 24.3078C21.3261 24.8405 20.8866 25.2738 20.3462 25.2738Z" fill="#333333"/>
<path d="M20.3462 27.5961C19.8057 27.5961 19.3662 27.1628 19.3662 26.6301C19.3662 26.0974 19.8057 25.6641 20.3462 25.6641C20.8866 25.6641 21.3261 26.0974 21.3261 26.6301C21.3261 27.1628 20.8866 27.5961 20.3462 27.5961Z" fill="#333333"/>
<path d="M22.7026 27.5961C22.1622 27.5961 21.7227 27.1628 21.7227 26.6301C21.7227 26.0974 22.1622 25.6641 22.7026 25.6641C23.243 25.6641 23.6825 26.0974 23.6825 26.6301C23.6825 27.1628 23.243 27.5961 22.7026 27.5961Z" fill="#333333"/>
<path d="M25.059 27.5961C24.5186 27.5961 24.0791 27.1628 24.0791 26.6301C24.0791 26.0974 24.5186 25.6641 25.059 25.6641C25.5995 25.6641 26.039 26.0974 26.039 26.6301C26.039 27.1628 25.5995 27.5961 25.059 27.5961Z" fill="#333333"/>
<path d="M13.2817 27.5961C12.7413 27.5961 12.3018 27.1628 12.3018 26.6301C12.3018 26.0974 12.7413 25.6641 13.2817 25.6641C13.8221 25.6641 14.2616 26.0974 14.2616 26.6301C14.2616 27.1628 13.8221 27.5961 13.2817 27.5961Z" fill="#333333"/>
<path d="M10.9253 27.5961C10.3848 27.5961 9.94531 27.1628 9.94531 26.6301C9.94531 26.0974 10.3848 25.6641 10.9253 25.6641C11.4657 25.6641 11.9052 26.0974 11.9052 26.6301C11.9052 27.1628 11.4657 27.5961 10.9253 27.5961Z" fill="#333333"/>
<path d="M8.56881 27.5961C8.0284 27.5961 7.58887 27.1628 7.58887 26.6301C7.58887 26.0974 8.0284 25.6641 8.56881 25.6641C9.10922 25.6641 9.54875 26.0974 9.54875 26.6301C9.54875 27.1628 9.10922 27.5961 8.56881 27.5961Z" fill="#333333"/>
<path d="M15.6381 27.5961C15.0977 27.5961 14.6582 27.1628 14.6582 26.6301C14.6582 26.0974 15.0977 25.6641 15.6381 25.6641C16.1786 25.6641 16.6181 26.0974 16.6181 26.6301C16.6181 27.1628 16.1786 27.5961 15.6381 27.5961Z" fill="#333333"/>
<path d="M17.9936 27.5961C17.4532 27.5961 17.0137 27.1628 17.0137 26.6301C17.0137 26.0974 17.4532 25.6641 17.9936 25.6641C18.534 25.6641 18.9736 26.0974 18.9736 26.6301C18.9736 27.1628 18.534 27.5961 17.9936 27.5961Z" fill="#333333"/>
<path d="M20.3462 29.9145C19.8057 29.9145 19.3662 29.4812 19.3662 28.9484C19.3662 28.4157 19.8057 27.9824 20.3462 27.9824C20.8866 27.9824 21.3261 28.4157 21.3261 28.9484C21.3261 29.4812 20.8866 29.9145 20.3462 29.9145Z" fill="#333333"/>
<path d="M22.7026 29.9145C22.1622 29.9145 21.7227 29.4812 21.7227 28.9484C21.7227 28.4157 22.1622 27.9824 22.7026 27.9824C23.243 27.9824 23.6825 28.4157 23.6825 28.9484C23.6825 29.4812 23.243 29.9145 22.7026 29.9145Z" fill="#333333"/>
<path d="M25.059 29.9145C24.5186 29.9145 24.0791 29.4812 24.0791 28.9484C24.0791 28.4157 24.5186 27.9824 25.059 27.9824C25.5995 27.9824 26.039 28.4157 26.039 28.9484C26.039 29.4812 25.5995 29.9145 25.059 29.9145Z" fill="#333333"/>
<path d="M13.2817 29.9145C12.7413 29.9145 12.3018 29.4812 12.3018 28.9484C12.3018 28.4157 12.7413 27.9824 13.2817 27.9824C13.8221 27.9824 14.2616 28.4157 14.2616 28.9484C14.2616 29.4812 13.8221 29.9145 13.2817 29.9145Z" fill="#333333"/>
<path d="M10.9253 29.9145C10.3848 29.9145 9.94531 29.4812 9.94531 28.9484C9.94531 28.4157 10.3848 27.9824 10.9253 27.9824C11.4657 27.9824 11.9052 28.4157 11.9052 28.9484C11.9052 29.4812 11.4657 29.9145 10.9253 29.9145Z" fill="#333333"/>
<path d="M8.56881 29.9145C8.0284 29.9145 7.58887 29.4812 7.58887 28.9484C7.58887 28.4157 8.0284 27.9824 8.56881 27.9824C9.10922 27.9824 9.54875 28.4157 9.54875 28.9484C9.54875 29.4812 9.10922 29.9145 8.56881 29.9145Z" fill="#333333"/>
<path d="M15.6381 29.9145C15.0977 29.9145 14.6582 29.4812 14.6582 28.9484C14.6582 28.4157 15.0977 27.9824 15.6381 27.9824C16.1786 27.9824 16.6181 28.4157 16.6181 28.9484C16.6181 29.4812 16.1786 29.9145 15.6381 29.9145Z" fill="#333333"/>
<path d="M17.9936 29.9145C17.4532 29.9145 17.0137 29.4812 17.0137 28.9484C17.0137 28.4157 17.4532 27.9824 17.9936 27.9824C18.534 27.9824 18.9736 28.4157 18.9736 28.9484C18.9736 29.4812 18.534 29.9145 17.9936 29.9145Z" fill="#333333"/>
<path d="M20.3462 32.2367C19.8057 32.2367 19.3662 31.8034 19.3662 31.2707C19.3662 30.738 19.8057 30.3047 20.3462 30.3047C20.8866 30.3047 21.3261 30.738 21.3261 31.2707C21.3261 31.8034 20.8866 32.2367 20.3462 32.2367Z" fill="#333333"/>
<path d="M22.7026 32.2367C22.1622 32.2367 21.7227 31.8034 21.7227 31.2707C21.7227 30.738 22.1622 30.3047 22.7026 30.3047C23.243 30.3047 23.6825 30.738 23.6825 31.2707C23.6825 31.8034 23.243 32.2367 22.7026 32.2367Z" fill="#333333"/>
<path d="M25.059 32.2367C24.5186 32.2367 24.0791 31.8034 24.0791 31.2707C24.0791 30.738 24.5186 30.3047 25.059 30.3047C25.5995 30.3047 26.039 30.738 26.039 31.2707C26.039 31.8034 25.5995 32.2367 25.059 32.2367Z" fill="#333333"/>
<path d="M27.4155 32.2367C26.8751 32.2367 26.4355 31.8034 26.4355 31.2707C26.4355 30.738 26.8751 30.3047 27.4155 30.3047C27.9559 30.3047 28.3954 30.738 28.3954 31.2707C28.3954 31.8034 27.9559 32.2367 27.4155 32.2367Z" fill="#333333"/>
<path d="M13.2817 32.2367C12.7413 32.2367 12.3018 31.8034 12.3018 31.2707C12.3018 30.738 12.7413 30.3047 13.2817 30.3047C13.8221 30.3047 14.2616 30.738 14.2616 31.2707C14.2616 31.8034 13.8221 32.2367 13.2817 32.2367Z" fill="#333333"/>
<path d="M10.9253 32.2367C10.3848 32.2367 9.94531 31.8034 9.94531 31.2707C9.94531 30.738 10.3848 30.3047 10.9253 30.3047C11.4657 30.3047 11.9052 30.738 11.9052 31.2707C11.9052 31.8034 11.4657 32.2367 10.9253 32.2367Z" fill="#333333"/>
<path d="M8.56881 32.2367C8.0284 32.2367 7.58887 31.8034 7.58887 31.2707C7.58887 30.738 8.0284 30.3047 8.56881 30.3047C9.10922 30.3047 9.54875 30.738 9.54875 31.2707C9.54875 31.8034 9.10922 32.2367 8.56881 32.2367Z" fill="#333333"/>
<path d="M6.21334 32.2367C5.67293 32.2367 5.2334 31.8034 5.2334 31.2707C5.2334 30.738 5.67293 30.3047 6.21334 30.3047C6.75375 30.3047 7.19328 30.738 7.19328 31.2707C7.19328 31.8034 6.75375 32.2367 6.21334 32.2367Z" fill="#333333"/>
<path d="M15.6381 32.2367C15.0977 32.2367 14.6582 31.8034 14.6582 31.2707C14.6582 30.738 15.0977 30.3047 15.6381 30.3047C16.1786 30.3047 16.6181 30.738 16.6181 31.2707C16.6181 31.8034 16.1786 32.2367 15.6381 32.2367Z" fill="#333333"/>
<path d="M17.9936 32.2367C17.4532 32.2367 17.0137 31.8034 17.0137 31.2707C17.0137 30.738 17.4532 30.3047 17.9936 30.3047C18.534 30.3047 18.9736 30.738 18.9736 31.2707C18.9736 31.8034 18.534 32.2367 17.9936 32.2367Z" fill="#333333"/>
<path d="M20.3462 34.5609C19.8057 34.5609 19.3662 34.1277 19.3662 33.5949C19.3662 33.0622 19.8057 32.6289 20.3462 32.6289C20.8866 32.6289 21.3261 33.0622 21.3261 33.5949C21.3261 34.1277 20.8866 34.5609 20.3462 34.5609Z" fill="#333333"/>
<path d="M22.7026 34.5609C22.1622 34.5609 21.7227 34.1277 21.7227 33.5949C21.7227 33.0622 22.1622 32.6289 22.7026 32.6289C23.243 32.6289 23.6825 33.0622 23.6825 33.5949C23.6825 34.1277 23.243 34.5609 22.7026 34.5609Z" fill="#333333"/>
<path d="M25.059 34.5609C24.5186 34.5609 24.0791 34.1277 24.0791 33.5949C24.0791 33.0622 24.5186 32.6289 25.059 32.6289C25.5995 32.6289 26.039 33.0622 26.039 33.5949C26.039 34.1277 25.5995 34.5609 25.059 34.5609Z" fill="#333333"/>
<path d="M27.4155 34.5609C26.8751 34.5609 26.4355 34.1277 26.4355 33.5949C26.4355 33.0622 26.8751 32.6289 27.4155 32.6289C27.9559 32.6289 28.3954 33.0622 28.3954 33.5949C28.3954 34.1277 27.9559 34.5609 27.4155 34.5609Z" fill="#333333"/>
<path d="M25.059 36.8832C24.5186 36.8832 24.0791 36.4499 24.0791 35.9172C24.0791 35.3845 24.5186 34.9512 25.059 34.9512C25.5995 34.9512 26.039 35.3845 26.039 35.9172C26.039 36.4499 25.5995 36.8832 25.059 36.8832Z" fill="#333333"/>
<path d="M27.4155 36.8832C26.8751 36.8832 26.4355 36.4499 26.4355 35.9172C26.4355 35.3845 26.8751 34.9512 27.4155 34.9512C27.9559 34.9512 28.3954 35.3845 28.3954 35.9172C28.3954 36.4499 27.9559 36.8832 27.4155 36.8832Z" fill="#333333"/>
<path d="M25.059 41.5277C24.5186 41.5277 24.0791 41.0945 24.0791 40.5617C24.0791 40.029 24.5186 39.5957 25.059 39.5957C25.5995 39.5957 26.039 40.029 26.039 40.5617C26.039 41.0945 25.5995 41.5277 25.059 41.5277Z" fill="#333333"/>
<path d="M27.4155 41.5277C26.8751 41.5277 26.4355 41.0945 26.4355 40.5617C26.4355 40.029 26.8751 39.5957 27.4155 39.5957C27.9559 39.5957 28.3954 40.029 28.3954 40.5617C28.3954 41.0945 27.9559 41.5277 27.4155 41.5277Z" fill="#333333"/>
<path d="M27.4155 39.2055C26.8751 39.2055 26.4355 38.7722 26.4355 38.2395C26.4355 37.7067 26.8751 37.2734 27.4155 37.2734C27.9559 37.2734 28.3954 37.7067 28.3954 38.2395C28.3954 38.7722 27.9559 39.2055 27.4155 39.2055Z" fill="#333333"/>
<path d="M25.059 43.8481C24.5186 43.8481 24.0791 43.4148 24.0791 42.882C24.0791 42.3493 24.5186 41.916 25.059 41.916C25.5995 41.916 26.039 42.3493 26.039 42.882C26.039 43.4148 25.5995 43.8481 25.059 43.8481Z" fill="#333333"/>
<path d="M27.4155 43.8481C26.8751 43.8481 26.4355 43.4148 26.4355 42.882C26.4355 42.3493 26.8751 41.916 27.4155 41.916C27.9559 41.916 28.3954 42.3493 28.3954 42.882C28.3954 43.4148 27.9559 43.8481 27.4155 43.8481Z" fill="#333333"/>
<path d="M13.2817 34.5609C12.7413 34.5609 12.3018 34.1277 12.3018 33.5949C12.3018 33.0622 12.7413 32.6289 13.2817 32.6289C13.8221 32.6289 14.2616 33.0622 14.2616 33.5949C14.2616 34.1277 13.8221 34.5609 13.2817 34.5609Z" fill="#333333"/>
<path d="M10.9253 34.5609C10.3848 34.5609 9.94531 34.1277 9.94531 33.5949C9.94531 33.0622 10.3848 32.6289 10.9253 32.6289C11.4657 32.6289 11.9052 33.0622 11.9052 33.5949C11.9052 34.1277 11.4657 34.5609 10.9253 34.5609Z" fill="#333333"/>
<path d="M8.56881 34.5609C8.0284 34.5609 7.58887 34.1277 7.58887 33.5949C7.58887 33.0622 8.0284 32.6289 8.56881 32.6289C9.10922 32.6289 9.54875 33.0622 9.54875 33.5949C9.54875 34.1277 9.10922 34.5609 8.56881 34.5609Z" fill="#333333"/>
<path d="M6.21334 34.5609C5.67293 34.5609 5.2334 34.1277 5.2334 33.5949C5.2334 33.0622 5.67293 32.6289 6.21334 32.6289C6.75375 32.6289 7.19328 33.0622 7.19328 33.5949C7.19328 34.1277 6.75375 34.5609 6.21334 34.5609Z" fill="#333333"/>
<path d="M3.8608 34.5609C3.32039 34.5609 2.88086 34.1277 2.88086 33.5949C2.88086 33.0622 3.32039 32.6289 3.8608 32.6289C4.40121 32.6289 4.84074 33.0622 4.84074 33.5949C4.84074 34.1277 4.40121 34.5609 3.8608 34.5609Z" fill="#333333"/>
<path d="M8.56881 36.8832C8.0284 36.8832 7.58887 36.4499 7.58887 35.9172C7.58887 35.3845 8.0284 34.9512 8.56881 34.9512C9.10922 34.9512 9.54875 35.3845 9.54875 35.9172C9.54875 36.4499 9.10922 36.8832 8.56881 36.8832Z" fill="#333333"/>
<path d="M6.21334 36.8832C5.67293 36.8832 5.2334 36.4499 5.2334 35.9172C5.2334 35.3845 5.67293 34.9512 6.21334 34.9512C6.75375 34.9512 7.19328 35.3845 7.19328 35.9172C7.19328 36.4499 6.75375 36.8832 6.21334 36.8832Z" fill="#333333"/>
<path d="M3.8608 36.8832C3.32039 36.8832 2.88086 36.4499 2.88086 35.9172C2.88086 35.3845 3.32039 34.9512 3.8608 34.9512C4.40121 34.9512 4.84074 35.3845 4.84074 35.9172C4.84074 36.4499 4.40121 36.8832 3.8608 36.8832Z" fill="#333333"/>
<path d="M1.50435 36.8832C0.963946 36.8832 0.524414 36.4499 0.524414 35.9172C0.524414 35.3845 0.963946 34.9512 1.50435 34.9512C2.04476 34.9512 2.48429 35.3845 2.48429 35.9172C2.48429 36.4499 2.04476 36.8832 1.50435 36.8832Z" fill="#333333"/>
<path d="M15.6381 34.5609C15.0977 34.5609 14.6582 34.1277 14.6582 33.5949C14.6582 33.0622 15.0977 32.6289 15.6381 32.6289C16.1786 32.6289 16.6181 33.0622 16.6181 33.5949C16.6181 34.1277 16.1786 34.5609 15.6381 34.5609Z" fill="#333333"/>
<path d="M17.9936 34.5609C17.4532 34.5609 17.0137 34.1277 17.0137 33.5949C17.0137 33.0622 17.4532 32.6289 17.9936 32.6289C18.534 32.6289 18.9736 33.0622 18.9736 33.5949C18.9736 34.1277 18.534 34.5609 17.9936 34.5609Z" fill="#333333"/>
<path d="M29.771 15.9828C29.2305 15.9828 28.791 15.5495 28.791 15.0168C28.791 14.4841 29.2305 14.0508 29.771 14.0508C30.3114 14.0508 30.7509 14.4841 30.7509 15.0168C30.7509 15.5495 30.3114 15.9828 29.771 15.9828Z" fill="#333333"/>
<path d="M15.6381 11.3402C15.0977 11.3402 14.6582 10.907 14.6582 10.3742C14.6582 9.84149 15.0977 9.4082 15.6381 9.4082C16.1786 9.4082 16.6181 9.84149 16.6181 10.3742C16.6181 10.907 16.1786 11.3402 15.6381 11.3402Z" fill="#333333"/>
<path d="M22.7026 11.3402C22.1622 11.3402 21.7227 10.907 21.7227 10.3742C21.7227 9.84149 22.1622 9.4082 22.7026 9.4082C23.243 9.4082 23.6825 9.84149 23.6825 10.3742C23.6825 10.907 23.243 11.3402 22.7026 11.3402Z" fill="#333333"/>
<path d="M25.059 11.3402C24.5186 11.3402 24.0791 10.907 24.0791 10.3742C24.0791 9.84149 24.5186 9.4082 25.059 9.4082C25.5995 9.4082 26.039 9.84149 26.039 10.3742C26.039 10.907 25.5995 11.3402 25.059 11.3402Z" fill="#333333"/>
<path d="M27.4155 11.3402C26.8751 11.3402 26.4355 10.907 26.4355 10.3742C26.4355 9.84149 26.8751 9.4082 27.4155 9.4082C27.9559 9.4082 28.3954 9.84149 28.3954 10.3742C28.3954 10.907 27.9559 11.3402 27.4155 11.3402Z" fill="#333333"/>
<path d="M29.771 11.3402C29.2305 11.3402 28.791 10.907 28.791 10.3742C28.791 9.84149 29.2305 9.4082 29.771 9.4082C30.3114 9.4082 30.7509 9.84149 30.7509 10.3742C30.7509 10.907 30.3114 11.3402 29.771 11.3402Z" fill="#333333"/>
<path d="M22.7026 9.01797C22.1622 9.01797 21.7227 8.58469 21.7227 8.05196C21.7227 7.51922 22.1622 7.08594 22.7026 7.08594C23.243 7.08594 23.6825 7.51922 23.6825 8.05196C23.6825 8.58469 23.243 9.01797 22.7026 9.01797Z" fill="#333333"/>
<path d="M20.3462 11.3402C19.8057 11.3402 19.3662 10.907 19.3662 10.3742C19.3662 9.84149 19.8057 9.4082 20.3462 9.4082C20.8866 9.4082 21.3261 9.84149 21.3261 10.3742C21.3261 10.907 20.8866 11.3402 20.3462 11.3402Z" fill="#333333"/>
<path d="M20.3462 9.01797C19.8057 9.01797 19.3662 8.58469 19.3662 8.05196C19.3662 7.51922 19.8057 7.08594 20.3462 7.08594C20.8866 7.08594 21.3261 7.51922 21.3261 8.05196C21.3261 8.58469 20.8866 9.01797 20.3462 9.01797Z" fill="#333333"/>
<path d="M15.6381 6.69571C15.0977 6.69571 14.6582 6.26242 14.6582 5.72969C14.6582 5.19696 15.0977 4.76367 15.6381 4.76367C16.1786 4.76367 16.6181 5.19696 16.6181 5.72969C16.6181 6.26242 16.1786 6.69571 15.6381 6.69571Z" fill="#333333"/>
<path d="M17.9936 4.37149C17.4532 4.37149 17.0137 3.9382 17.0137 3.40547C17.0137 2.87274 17.4532 2.43945 17.9936 2.43945C18.534 2.43945 18.9736 2.87274 18.9736 3.40547C18.9736 3.9382 18.534 4.37149 17.9936 4.37149Z" fill="#333333"/>
<path d="M20.3393 2.04922C19.7989 2.04922 19.3594 1.61594 19.3594 1.08321C19.3594 0.550475 19.7989 0.117188 20.3393 0.117188C20.8797 0.117188 21.3193 0.550475 21.3193 1.08321C21.3193 1.61594 20.8797 2.04922 20.3393 2.04922Z" fill="#333333"/>
<path d="M25.059 9.01797C24.5186 9.01797 24.0791 8.58469 24.0791 8.05196C24.0791 7.51922 24.5186 7.08594 25.059 7.08594C25.5995 7.08594 26.039 7.51922 26.039 8.05196C26.039 8.58469 25.5995 9.01797 25.059 9.01797Z" fill="#333333"/>
<path d="M27.4155 9.01797C26.8751 9.01797 26.4355 8.58469 26.4355 8.05196C26.4355 7.51922 26.8751 7.08594 27.4155 7.08594C27.9559 7.08594 28.3954 7.51922 28.3954 8.05196C28.3954 8.58469 27.9559 9.01797 27.4155 9.01797Z" fill="#333333"/>
<path d="M29.771 9.01797C29.2305 9.01797 28.791 8.58469 28.791 8.05196C28.791 7.51922 29.2305 7.08594 29.771 7.08594C30.3114 7.08594 30.7509 7.51922 30.7509 8.05196C30.7509 8.58469 30.3114 9.01797 29.771 9.01797Z" fill="#333333"/>
<path d="M22.7026 6.70281C22.1622 6.70281 21.7227 6.26952 21.7227 5.73324C21.7227 5.19696 22.1622 4.76367 22.7026 4.76367C23.243 4.76367 23.6825 5.19696 23.6825 5.73324C23.6825 6.26952 23.243 6.70281 22.7026 6.70281Z" fill="#333333"/>
<path d="M25.059 6.69571C24.5186 6.69571 24.0791 6.26242 24.0791 5.72969C24.0791 5.19696 24.5186 4.76367 25.059 4.76367C25.5995 4.76367 26.039 5.19696 26.039 5.72969C26.039 6.26242 25.5995 6.69571 25.059 6.69571Z" fill="#333333"/>
<path d="M27.4155 6.69571C26.8751 6.69571 26.4355 6.26242 26.4355 5.72969C26.4355 5.19696 26.8751 4.76367 27.4155 4.76367C27.9559 4.76367 28.3954 5.19696 28.3954 5.72969C28.3954 6.26242 27.9559 6.69571 27.4155 6.69571Z" fill="#333333"/>
<path d="M29.771 6.69571C29.2305 6.69571 28.791 6.26242 28.791 5.72969C28.791 5.19696 29.2305 4.76367 29.771 4.76367C30.3114 4.76367 30.7509 5.19696 30.7509 5.72969C30.7509 6.26242 30.3114 6.69571 29.771 6.69571Z" fill="#333333"/>
<path d="M32.1274 11.3402C31.587 11.3402 31.1475 10.907 31.1475 10.3742C31.1475 9.84149 31.587 9.4082 32.1274 9.4082C32.6678 9.4082 33.1073 9.84149 33.1073 10.3742C33.1073 10.907 32.6678 11.3402 32.1274 11.3402Z" fill="#333333"/>
<path d="M32.1274 9.01797C31.587 9.01797 31.1475 8.58469 31.1475 8.05196C31.1475 7.51922 31.587 7.08594 32.1274 7.08594C32.6678 7.08594 33.1073 7.51922 33.1073 8.05196C33.1073 8.58469 32.6678 9.01797 32.1274 9.01797Z" fill="#333333"/>
<path d="M32.1274 6.69571C31.587 6.69571 31.1475 6.26242 31.1475 5.72969C31.1475 5.19696 31.587 4.76367 32.1274 4.76367C32.6678 4.76367 33.1073 5.19696 33.1073 5.72969C33.1073 6.26242 32.6678 6.69571 32.1274 6.69571Z" fill="#333333"/>
<path d="M25.059 4.37184C24.5186 4.37184 24.0791 3.93856 24.0791 3.40938C24.0791 2.8802 24.5186 2.44336 25.059 2.44336C25.5995 2.44336 26.039 2.87665 26.039 3.40938C26.039 3.94211 25.5995 4.37184 25.059 4.37184Z" fill="#333333"/>
<path d="M27.4155 4.37149C26.8751 4.37149 26.4355 3.9382 26.4355 3.40547C26.4355 2.87274 26.8751 2.43945 27.4155 2.43945C27.9559 2.43945 28.3954 2.87274 28.3954 3.40547C28.3954 3.9382 27.9559 4.37149 27.4155 4.37149Z" fill="#333333"/>
<path d="M29.771 4.37149C29.2305 4.37149 28.791 3.9382 28.791 3.40547C28.791 2.87274 29.2305 2.43945 29.771 2.43945C30.3114 2.43945 30.7509 2.87274 30.7509 3.40547C30.7509 3.9382 30.3114 4.37149 29.771 4.37149Z" fill="#333333"/>
<path d="M32.131 4.37149C31.5906 4.37149 31.1475 3.9382 31.1475 3.40547C31.1475 2.87274 31.587 2.43945 32.131 2.43945C32.675 2.43945 33.1145 2.87274 33.1145 3.40547C33.1145 3.9382 32.675 4.37149 32.131 4.37149Z" fill="#333333"/>
<path d="M34.4799 9.01797C33.9395 9.01797 33.5 8.58469 33.5 8.05196C33.5 7.51922 33.9395 7.08594 34.4799 7.08594C35.0203 7.08594 35.4599 7.51922 35.4599 8.05196C35.4599 8.58469 35.0203 9.01797 34.4799 9.01797Z" fill="#333333"/>
<path d="M34.4799 6.69571C33.9395 6.69571 33.5 6.26242 33.5 5.72969C33.5 5.19696 33.9395 4.76367 34.4799 4.76367C35.0203 4.76367 35.4599 5.19696 35.4599 5.72969C35.4599 6.26242 35.0203 6.69571 34.4799 6.69571Z" fill="#333333"/>
<path d="M49.1967 20.9441V22.006C49.1967 22.006 49.1967 23.0643 48.1231 23.0679H43.8142V26.7579C43.8142 26.7579 43.8142 26.7579 43.8178 26.7579V27.312C43.8178 27.3511 43.807 27.3795 43.807 27.415C43.807 27.4363 43.7998 27.4576 43.7962 27.486C43.7638 27.724 43.6773 27.898 43.562 28.0258C43.5548 28.0365 43.544 28.0472 43.5368 28.0578C43.5044 28.0898 43.472 28.1217 43.436 28.1466C43.3207 28.2425 43.1657 28.3135 42.9676 28.3455C42.8379 28.3739 42.7478 28.3774 42.7478 28.3774H41.6634C41.6634 28.3774 41.5697 28.3774 41.4436 28.3455C41.2455 28.3135 41.0906 28.2425 40.9753 28.1466C40.9393 28.1217 40.9068 28.0898 40.8744 28.0578C40.8636 28.0472 40.8564 28.0365 40.8492 28.0258C40.7303 27.898 40.6438 27.724 40.615 27.486C40.6114 27.4576 40.6078 27.4398 40.6042 27.415C40.6042 27.3795 40.5898 27.3511 40.5898 27.312V26.7579C40.5898 26.7579 40.5898 26.7579 40.5934 26.7579V23.0679H36.2845C35.2109 23.0679 35.2109 22.006 35.2109 22.006V20.9441C35.2109 19.8822 36.2882 19.8822 36.2882 19.8822H40.5934V16.2809C40.5934 16.2809 40.5934 16.2809 40.5898 16.2809V15.6381C40.5898 15.6381 40.5934 15.5244 40.6294 15.3788C40.6655 15.2012 40.7339 15.0663 40.824 14.9562C40.8528 14.9207 40.8852 14.8887 40.9177 14.8532C40.9285 14.8425 40.9393 14.8319 40.9501 14.8212C41.0726 14.7147 41.2383 14.633 41.4581 14.601C41.5697 14.5797 41.6454 14.5762 41.6598 14.5762H42.755C42.755 14.5762 42.8487 14.5797 42.9604 14.601C43.1802 14.633 43.3459 14.7147 43.4684 14.8212C43.4792 14.8319 43.49 14.8425 43.5008 14.8532C43.5368 14.8887 43.5693 14.9207 43.5945 14.9562C43.6845 15.0627 43.753 15.2012 43.789 15.3788C43.825 15.5244 43.8286 15.6381 43.8286 15.6381V16.2809C43.8286 16.2809 43.8286 16.2809 43.825 16.2809V19.8822H48.1303C48.1303 19.8822 49.2075 19.8822 49.2075 20.9441" fill="#F7736C"/>
<path d="M48.1167 29.9146C43.4332 33.1003 36.9951 31.9389 33.7635 27.3219C30.5318 22.7049 31.7099 16.3583 36.3935 13.1726C41.077 9.98689 47.5151 11.1482 50.7467 15.7652C53.9784 20.3822 52.8003 26.7288 48.1167 29.9146ZM54.281 13.3609C49.6947 6.81537 40.5979 5.17101 33.9544 9.68856C27.3146 14.2097 25.6466 23.1809 30.2292 29.7263C34.2967 35.5367 41.9237 37.4829 48.2284 34.6878L53.9063 42.7498C54.7421 43.9112 56.3706 44.1989 57.5667 43.3856C58.7592 42.5723 59.0654 40.9705 58.2584 39.7878L52.5805 31.7259C57.4802 26.9029 58.3449 19.1783 54.2738 13.3609" fill="#F7736C"/>
<path d="M62.6641 16.6007V14.9705L69.448 5.76495V5.74364H63.2225V3.86133H72.3266V5.49148L65.694 14.6971V14.7184H72.7589V16.6007H62.6677H62.6641Z" fill="#333333"/>
<path d="M79.3665 16.835C76.1673 16.835 74.9424 14.5691 74.9424 11.6071C74.9424 8.64514 76.4231 6.42188 79.3665 6.42188C82.5657 6.42188 83.7907 8.62383 83.7907 11.6071C83.7907 14.5904 82.3099 16.835 79.3665 16.835ZM79.3665 8.28288C77.9074 8.28288 77.1328 9.27731 77.1328 11.5645C77.1328 13.8517 77.8822 14.9491 79.3665 14.9491C80.8508 14.9491 81.6002 13.9334 81.6002 11.6462C81.6002 9.359 80.8508 8.27933 79.3665 8.27933V8.28288Z" fill="#333333"/>
<path d="M92.098 8.453C90.8947 8.453 90.0589 8.70871 89.3059 9.44743V16.6002H87.137V9.08517L86.8164 6.75537L88.942 6.46059L89.1149 7.83503H89.1366C89.7598 7.075 90.6389 6.41797 92.098 6.41797V8.44945V8.453Z" fill="#333333"/>
<path d="M101.397 8.0737C101.678 8.58157 101.804 9.15337 101.804 9.76778C101.804 11.6927 100.41 13.1737 98.1328 13.1737C97.7257 13.1737 97.3834 13.1098 97.0376 13.0459C96.9295 13.1098 96.8214 13.195 96.7565 13.2803C96.6052 13.4507 96.4972 13.6816 96.4972 14.0012C96.4972 14.573 96.9259 14.7009 97.5059 14.7009H100.511C102.316 14.7009 103.281 15.294 103.281 16.8176C103.281 18.8278 101.35 21.1363 97.5708 21.1363C95.3155 21.1363 94.0293 20.1844 94.0293 18.4051C94.0293 17.5812 94.3499 17.0307 94.6742 16.6258C94.8687 16.3914 95.0813 16.2032 95.3407 16.054C94.8903 15.7344 94.5913 15.2904 94.5913 14.5517C94.5913 13.8947 94.912 13.4081 95.2362 13.0707C95.4308 12.8789 95.6433 12.7333 95.9027 12.5842C94.9588 11.991 94.4436 10.9753 94.4436 9.77133C94.4436 7.82509 95.8595 6.38672 98.1364 6.38672C98.9506 6.38672 99.6387 6.55719 100.219 6.87328L103.375 6.40803V8.0808H101.4L101.397 8.0737ZM100.064 16.5157H96.9511C96.7998 16.5157 96.6737 16.4944 96.5224 16.4731C96.3927 16.5796 96.2846 16.6862 96.2017 16.8318C96.0288 17.0662 95.8811 17.4462 95.8811 17.8901C95.8811 18.9272 96.5476 19.4564 97.8986 19.4564C100.132 19.4564 101.397 18.2275 101.397 17.2331C101.397 16.6613 100.903 16.5122 100.067 16.5122L100.064 16.5157ZM98.1328 7.94584C97.1889 7.94584 96.4575 8.60288 96.4575 9.78909C96.4575 10.9753 97.124 11.6075 98.1328 11.6075C99.1416 11.6075 99.8081 10.9718 99.8081 9.78909C99.8081 8.60643 99.1416 7.94584 98.1328 7.94584Z" fill="#333333"/>
<path d="M106.272 16.6011V4.74959L105.947 2.44109L108.437 2.125V16.6011H106.268H106.272ZM112.735 16.9633L108.484 11.3341L112.003 6.65676H114.406L110.991 11.1033L115.005 16.2672L112.728 16.9669L112.735 16.9633Z" fill="#333333"/>
<path d="M122.48 16.7922L122.307 15.6486H122.285C121.619 16.263 120.848 16.8561 119.645 16.8561C118.013 16.8561 117.004 15.8617 117.004 14.2528C117.004 12.3883 118.42 11.5856 120.481 11.3512L122.134 11.1808V10.3781C122.134 9.17059 121.684 8.32532 120.203 8.32532C119.367 8.32532 118.83 8.55617 118.207 8.87581L117.415 7.37351C118.359 6.78041 119.302 6.40039 120.7 6.40039C122.934 6.40039 124.263 7.65053 124.263 9.68201V14.1676L124.606 16.4761L122.48 16.7922ZM122.138 12.4948L120.852 12.644C119.756 12.7932 119.133 13.1519 119.133 13.9758C119.133 14.7145 119.583 15.226 120.336 15.226C121.172 15.226 121.687 14.8673 122.141 14.505V12.4948H122.138Z" fill="#333333"/>
<path d="M133.112 16.7922L132.939 15.6486H132.917C132.251 16.263 131.48 16.8561 130.277 16.8561C128.644 16.8561 127.636 15.8617 127.636 14.2528C127.636 12.3883 129.052 11.5856 131.112 11.3512L132.766 11.1808V10.3781C132.766 9.17059 132.316 8.32532 130.835 8.32532C129.999 8.32532 129.462 8.55617 128.839 8.87581L128.046 7.37351C128.99 6.78041 129.934 6.40039 131.332 6.40039C133.566 6.40039 134.895 7.65053 134.895 9.68201V14.1676L135.237 16.4761L133.112 16.7922ZM132.766 12.4948L131.48 12.644C130.385 12.7932 129.761 13.1519 129.761 13.9758C129.761 14.7145 130.212 15.226 130.965 15.226C131.8 15.226 132.316 14.8673 132.77 14.505V12.4948H132.766Z" fill="#333333"/>
<path d="M143.887 8.453C142.684 8.453 141.848 8.70871 141.095 9.44743V16.6002H138.926V9.08517L138.605 6.75537L140.731 6.46059L140.904 7.83503H140.926C141.549 7.075 142.428 6.41797 143.887 6.41797V8.44945V8.453Z" fill="#333333"/>
<path d="M152.671 16.1575C151.922 16.5589 151.299 16.8146 150.074 16.8146C148.29 16.8146 147.325 15.6923 147.325 13.8526V8.37258H145.801V6.9342L147.325 6.61812V4.92403L149.494 4.67188V6.66074H152.286V8.37613H149.494V13.224C149.494 14.5558 149.836 14.9181 150.783 14.9181C151.299 14.9181 151.619 14.7476 152.03 14.5594L152.675 16.1682L152.671 16.1575Z" fill="#333333"/>
<path d="M71.4439 33.8903L65.0455 22.9693H65.0239L65.132 33.7198H63.7773V20.9805H65.4958L71.7213 31.5427H71.743L71.6349 20.9805H72.9859V33.6168L71.4403 33.8903H71.4439Z" fill="#333333"/>
<path d="M83.297 33.2145C82.4179 33.7011 81.4091 33.9568 80.2275 33.9568C77.3921 33.9568 75.8682 32.0105 75.8682 28.7715C75.8682 25.5325 77.4353 23.6289 79.9248 23.6289C82.2017 23.6289 83.2105 25.0886 83.2105 27.184V28.3915H77.2192C77.2192 31.3322 78.1847 32.7315 80.5913 32.7315C81.3839 32.7315 82.0721 32.4971 82.7818 32.1384L83.297 33.2181V33.2145ZM81.8811 27.3296C81.8811 25.7208 81.3011 24.705 79.842 24.705C78.4693 24.705 77.565 25.7421 77.3093 27.3296H81.8811Z" fill="#333333"/>
<path d="M91.8208 33.8909L91.6478 32.8964H91.6262C90.8553 33.5535 89.9726 33.9548 88.8557 33.9548C86.7517 33.9548 85.1846 32.2607 85.1846 29.2774C85.1846 25.9141 86.8815 23.7335 89.951 23.7335C90.4013 23.7335 90.7868 23.7548 91.0678 23.8187C91.2191 23.84 91.3668 23.8826 91.4965 23.9039V21.6167L91.1975 19.5213L92.8512 19.2656V31.6037L93.1538 33.6778L91.8208 33.8909ZM91.4965 25.1931L91.0462 25.044C90.7256 24.9587 90.3148 24.8735 89.778 24.8735C87.6308 24.8735 86.6221 26.7168 86.6221 28.6843C86.6221 31.2023 87.3102 32.7686 89.3709 32.7686C90.2932 32.7686 90.8949 32.4099 91.4965 31.9233V25.1931Z" fill="#333333"/>
<path d="M103.115 33.2145C102.236 33.7011 101.228 33.9568 100.046 33.9568C97.2105 33.9568 95.6865 32.0105 95.6865 28.7715C95.6865 25.5325 97.2537 23.6289 99.7432 23.6289C102.02 23.6289 103.029 25.0886 103.029 27.184V28.3915H97.0375C97.0375 31.3322 98.0031 32.7315 100.41 32.7315C101.202 32.7315 101.89 32.4971 102.6 32.1384L103.115 33.2181V33.2145ZM101.696 27.3296C101.696 25.7208 101.116 24.705 99.6567 24.705C98.2841 24.705 97.3798 25.7421 97.124 27.3296H101.696Z" fill="#333333"/>
<path d="M109.899 25.0635C108.804 25.0635 107.86 25.4009 107.085 26.058V33.7186H105.734V26.0367L105.432 23.9413L106.826 23.6891L106.999 25.0209H107.02C107.73 24.2609 108.631 23.6465 109.899 23.6465V25.0635Z" fill="#333333"/>
<path d="M112.003 33.7239V21.6167L111.704 19.5213L113.358 19.2656V33.7204H112.007L112.003 33.7239Z" fill="#333333"/>
<path d="M121.796 33.8909L121.623 32.7047H121.601C120.826 33.4434 120.034 33.9761 118.831 33.9761C117.112 33.9761 116.146 32.9817 116.146 31.4368C116.146 29.7214 117.541 28.8761 119.58 28.6417L121.533 28.4286V27.4555C121.533 25.9532 121.104 24.8949 119.32 24.8949C118.463 24.8949 117.861 25.1506 117.173 25.4666L116.68 24.4296C117.537 23.943 118.441 23.627 119.641 23.627C121.507 23.627 122.884 24.7279 122.884 26.6529V31.5433L123.186 33.6387L121.792 33.8909H121.796ZM121.536 29.4479L119.731 29.6823C118.272 29.8741 117.519 30.2967 117.519 31.2912C117.519 32.2004 118.099 32.7722 119.021 32.7722C120.16 32.7722 120.87 32.2856 121.533 31.7138V29.4479H121.536Z" fill="#333333"/>
<path d="M132.381 33.7224V27.2657C132.381 25.6568 131.801 24.8329 130.277 24.8329C129.225 24.8329 128.515 25.2555 127.809 25.8699V33.7224H126.458V26.0404L126.155 23.945L127.55 23.6928L127.722 24.879H127.744C128.537 24.119 129.527 23.6289 130.727 23.6289C132.424 23.6289 133.732 24.7299 133.732 26.6974V33.7259H132.381V33.7224Z" fill="#333333"/>
<path d="M143.156 33.8909L142.983 32.8964H142.961C142.19 33.5535 141.308 33.9548 140.191 33.9548C138.087 33.9548 136.52 32.2607 136.52 29.2774C136.52 25.9141 138.216 23.7335 141.286 23.7335C141.736 23.7335 142.122 23.7548 142.403 23.8187C142.554 23.84 142.702 23.8826 142.831 23.9039V21.6167L142.532 19.5213L144.186 19.2656V31.6037L144.489 33.6778L143.156 33.8909ZM142.835 25.1931L142.385 25.044C142.064 24.9587 141.653 24.8735 141.117 24.8735C138.969 24.8735 137.961 26.7168 137.961 28.6843C137.961 31.2023 138.649 32.7686 140.709 32.7686C141.632 32.7686 142.233 32.4099 142.835 31.9233V25.1931Z" fill="#333333"/>
<path d="M64.48 41.8693H64.3431V44.0145H63.5938V38.7014C63.7198 38.6907 63.864 38.6729 64.0189 38.6587C64.2819 38.6303 64.6241 38.6055 64.9844 38.6055C66.04 38.6055 66.7281 39.0956 66.7281 39.9835C66.7281 41.2301 65.6905 41.8693 64.48 41.8693ZM64.8619 39.1666C64.7178 39.1666 64.5917 39.1773 64.4908 39.1844C64.4368 39.195 64.39 39.195 64.3467 39.2021V41.3011H64.4656C65.269 41.3011 65.9932 40.9459 65.9932 40.1184C65.9932 39.4507 65.55 39.1666 64.8655 39.1666H64.8619Z" fill="#333333"/>
<path d="M69.5276 44.0848L69.4628 43.5947H69.4556C69.1385 43.8788 68.8143 44.1203 68.3099 44.1203C67.5966 44.1203 67.1895 43.7119 67.1895 43.0442C67.1895 42.2984 67.7767 41.9397 68.6414 41.8438L69.4015 41.7621V41.3892C69.4015 40.8103 69.2106 40.4019 68.5261 40.4019C68.173 40.4019 67.928 40.5084 67.6506 40.6434L67.3876 40.1178C67.7767 39.894 68.155 39.752 68.6954 39.752C69.5528 39.752 70.1113 40.2421 70.1113 41.0696V43.0549L70.2482 43.9712L69.5276 44.0884V44.0848ZM69.4015 42.2451L68.7422 42.3339C68.2018 42.405 67.9028 42.5754 67.9028 42.9554C67.9028 43.3035 68.119 43.5343 68.4792 43.5343C68.9043 43.5343 69.1565 43.3568 69.4015 43.1508V42.2416V42.2451Z" fill="#333333"/>
<path d="M73.5917 43.8473C73.3287 43.9894 73.0873 44.1066 72.6262 44.1066C71.9741 44.1066 71.5598 43.6875 71.5598 42.9772V40.4307H70.9365V39.9584L71.5598 39.8341V39.1415L72.2731 39.0527V39.8518H73.4548V40.4307H72.2731V42.7357C72.2731 43.3039 72.4064 43.4744 72.8316 43.4744C73.0585 43.4744 73.2206 43.3856 73.3539 43.3039L73.5881 43.8473H73.5917Z" fill="#333333"/>
<path d="M74.8593 39.2799C74.5711 39.2799 74.3369 39.0562 74.3369 38.765C74.3369 38.4737 74.5711 38.25 74.8593 38.25C75.1475 38.25 75.3745 38.4737 75.3745 38.765C75.3745 39.0562 75.1403 39.2799 74.8593 39.2799ZM74.4882 44.0141V40.8107L74.3621 39.8944L75.2124 39.7772V44.0141H74.4918H74.4882Z" fill="#333333"/>
<path d="M79.4998 43.7927C79.0927 44.0164 78.6784 44.1123 78.1632 44.1123C76.9095 44.1123 76.2754 43.2919 76.2754 41.9033C76.2754 40.6141 76.9599 39.751 78.0263 39.751C79.0927 39.751 79.4638 40.4187 79.4638 41.335V41.8322H76.9815C76.9887 42.9439 77.3886 43.4802 78.3181 43.4802C78.6712 43.4802 78.9306 43.3807 79.2476 43.2316L79.4998 43.7927ZM77.1148 39.2787C76.8518 39.2787 76.6357 39.0834 76.6357 38.8063C76.6357 38.5293 76.8518 38.334 77.1148 38.334C77.3778 38.334 77.5832 38.5293 77.5832 38.8063C77.5832 39.0834 77.3742 39.2787 77.1148 39.2787ZM78.7865 41.335C78.7865 40.7029 78.5595 40.3193 77.9903 40.3193C77.4211 40.3193 77.1148 40.7277 77.0139 41.335H78.7829H78.7865ZM78.5955 39.2787C78.3325 39.2787 78.1164 39.0834 78.1164 38.8063C78.1164 38.5293 78.3325 38.334 78.5955 38.334C78.8585 38.334 79.0639 38.5293 79.0639 38.8063C79.0639 39.0834 78.8549 39.2787 78.5955 39.2787Z" fill="#333333"/>
<path d="M82.9655 44.0134V41.3072C82.9655 40.6928 82.7385 40.3802 82.1621 40.3802C81.755 40.3802 81.4668 40.54 81.2038 40.7815V44.0134H80.4796V40.81L80.3535 39.8937L81.0669 39.7765L81.1389 40.2666H81.1497C81.4668 39.954 81.8703 39.748 82.4035 39.748C83.1168 39.748 83.686 40.2026 83.686 41.0586V44.0134H82.9619H82.9655Z" fill="#333333"/>
<path d="M87.1376 43.8473C86.8746 43.9894 86.6332 44.1066 86.1721 44.1066C85.52 44.1066 85.1057 43.6875 85.1057 42.9772V40.4307H84.4824V39.9584L85.1057 39.8341V39.1415L85.819 39.0527V39.8518H87.0007V40.4307H85.819V42.7357C85.819 43.3039 85.9523 43.4744 86.3775 43.4744C86.6044 43.4744 86.7666 43.3856 86.8999 43.3039L87.134 43.8473H87.1376Z" fill="#333333"/>
<path d="M90.8231 43.7936C90.416 44.0174 90.0016 44.1132 89.4865 44.1132C88.2327 44.1132 87.5986 43.2928 87.5986 41.9042C87.5986 40.615 88.2832 39.752 89.3496 39.752C90.416 39.752 90.787 40.4196 90.787 41.3359V41.8332H88.3048C88.312 42.9448 88.7119 43.4811 89.6414 43.4811C89.9944 43.4811 90.2538 43.3816 90.5709 43.2325L90.8231 43.7936ZM90.1097 41.3359C90.1097 40.7038 89.8828 40.3202 89.3135 40.3202C88.7443 40.3202 88.4381 40.7286 88.3372 41.3359H90.1061H90.1097Z" fill="#333333"/>
<path d="M94.2887 44.0134V41.3072C94.2887 40.6928 94.0618 40.3802 93.4853 40.3802C93.0782 40.3802 92.79 40.54 92.527 40.7815V44.0134H91.8029V40.81L91.6768 39.8937L92.3901 39.7765L92.4622 40.2666H92.473C92.79 39.954 93.1935 39.748 93.7267 39.748C94.4401 39.748 95.0093 40.2026 95.0093 41.0586V44.0134H94.2851H94.2887Z" fill="#333333"/>
<path d="M98.2738 38.6288C98.1369 38.5826 98.0288 38.5578 97.8487 38.5578C97.4416 38.5578 97.1462 38.8064 97.1462 39.3391V39.847H98.3099V40.4259H97.1462V44.0129H96.4328V40.4365H95.8096V39.9571L96.4328 39.8328V39.3959C96.4328 38.5045 97.0453 37.9434 97.8847 37.9434C98.1117 37.9434 98.263 37.9789 98.4359 38.025L98.2738 38.6288Z" fill="#333333"/>
<path d="M101.811 43.7936C101.404 44.0174 100.99 44.1132 100.475 44.1132C99.221 44.1132 98.5869 43.2928 98.5869 41.9042C98.5869 40.615 99.2714 39.752 100.338 39.752C101.404 39.752 101.775 40.4196 101.775 41.3359V41.8332H99.293C99.3002 42.9448 99.7001 43.4811 100.63 43.4811C100.983 43.4811 101.242 43.3816 101.559 43.2325L101.811 43.7936ZM101.098 41.3359C101.098 40.7038 100.871 40.3202 100.302 40.3202C99.7326 40.3202 99.4263 40.7286 99.3255 41.3359H101.094H101.098Z" fill="#333333"/>
<path d="M105.274 44.0849L105.209 43.6658H105.202C104.921 43.8895 104.572 44.1097 104.064 44.1097C103.123 44.1097 102.511 43.3603 102.511 42.1173C102.511 40.686 103.249 39.8017 104.543 39.8017C104.788 39.8017 104.975 39.8195 105.13 39.8656V38.9671L104.993 38.0508L105.843 37.9336V43.0691L105.969 43.9854L105.274 44.0849ZM105.126 40.5156C104.946 40.4445 104.791 40.3984 104.474 40.3984C103.653 40.3984 103.246 41.1016 103.246 41.8936C103.246 42.8986 103.516 43.4846 104.312 43.4846C104.665 43.4846 104.907 43.3426 105.126 43.1721V40.512V40.5156Z" fill="#333333"/>
<path d="M110.13 43.7936C109.723 44.0174 109.308 44.1132 108.793 44.1132C107.539 44.1132 106.905 43.2928 106.905 41.9042C106.905 40.615 107.59 39.752 108.656 39.752C109.723 39.752 110.094 40.4196 110.094 41.3359V41.8332H107.611C107.619 42.9448 108.019 43.4811 108.948 43.4811C109.301 43.4811 109.56 43.3816 109.878 43.2325L110.13 43.7936ZM109.416 41.3359C109.416 40.7038 109.189 40.3202 108.62 40.3202C108.051 40.3202 107.745 40.7286 107.644 41.3359H109.413H109.416Z" fill="#333333"/>
<path d="M113.012 40.463C112.515 40.463 112.162 40.5873 111.838 40.8821V44.0145H111.113V40.811L110.987 39.8947L111.701 39.7775L111.773 40.3458H111.784C112.072 40.0261 112.443 39.7598 113.012 39.7598V40.463Z" fill="#333333"/>
<path d="M115.722 44.0848L115.657 43.5947H115.65C115.333 43.8788 115.009 44.1203 114.504 44.1203C113.791 44.1203 113.384 43.7119 113.384 43.0442C113.384 42.2984 113.971 41.9397 114.836 41.8438L115.596 41.7621V41.3892C115.596 40.8103 115.405 40.4019 114.72 40.4019C114.367 40.4019 114.122 40.5084 113.845 40.6434L113.582 40.1178C113.971 39.894 114.349 39.752 114.89 39.752C115.747 39.752 116.306 40.2421 116.306 41.0696V43.0549L116.442 43.9712L115.722 44.0884V44.0848ZM115.596 42.2451L114.937 42.3339C114.396 42.405 114.097 42.5754 114.097 42.9554C114.097 43.3035 114.313 43.5343 114.674 43.5343C115.099 43.5343 115.351 43.3568 115.596 43.1508V42.2416V42.2451Z" fill="#333333"/>
<path d="M119.785 43.8473C119.522 43.9894 119.281 44.1066 118.82 44.1066C118.167 44.1066 117.753 43.6875 117.753 42.9772V40.4307H117.13V39.9584L117.753 39.8341V39.1415L118.466 39.0527V39.8518H119.648V40.4307H118.466V42.7357C118.466 43.3039 118.6 43.4744 119.025 43.4744C119.252 43.4744 119.414 43.3856 119.547 43.3039L119.781 43.8473H119.785Z" fill="#333333"/>
<path d="M121.05 39.2799C120.762 39.2799 120.527 39.0562 120.527 38.765C120.527 38.4737 120.762 38.25 121.05 38.25C121.338 38.25 121.565 38.4737 121.565 38.765C121.565 39.0562 121.331 39.2799 121.05 39.2799ZM120.679 44.0141V40.8107L120.553 39.8944L121.403 39.7772V44.0141H120.682H120.679Z" fill="#333333"/>
<path d="M125.69 43.7936C125.283 44.0174 124.869 44.1132 124.354 44.1132C123.1 44.1132 122.466 43.2928 122.466 41.9042C122.466 40.615 123.15 39.752 124.217 39.752C125.283 39.752 125.654 40.4196 125.654 41.3359V41.8332H123.172C123.179 42.9448 123.579 43.4811 124.509 43.4811C124.862 43.4811 125.121 43.3816 125.438 43.2325L125.69 43.7936ZM124.977 41.3359C124.977 40.7038 124.75 40.3202 124.181 40.3202C123.611 40.3202 123.305 40.7286 123.204 41.3359H124.973H124.977Z" fill="#333333"/>
<path d="M131.75 44.0953L129.178 39.805H129.167L129.21 44.0136H128.508V38.6543H129.293L131.793 42.7918H131.804L131.761 38.6543H132.464V43.9603L131.75 44.0953Z" fill="#333333"/>
<path d="M136.779 43.7936C136.372 44.0174 135.958 44.1132 135.443 44.1132C134.189 44.1132 133.555 43.2928 133.555 41.9042C133.555 40.615 134.239 39.752 135.306 39.752C136.372 39.752 136.743 40.4196 136.743 41.3359V41.8332H134.261C134.268 42.9448 134.668 43.4811 135.597 43.4811C135.951 43.4811 136.21 43.3816 136.527 43.2325L136.779 43.7936ZM136.066 41.3359C136.066 40.7038 135.839 40.3202 135.27 40.3202C134.7 40.3202 134.394 40.7286 134.293 41.3359H136.062H136.066Z" fill="#333333"/>
<path d="M140.238 44.0849L140.173 43.6658H140.166C139.885 43.8895 139.535 44.1097 139.027 44.1097C138.087 44.1097 137.475 43.3603 137.475 42.1173C137.475 40.686 138.213 39.8017 139.507 39.8017C139.752 39.8017 139.939 39.8195 140.094 39.8656V38.9671L139.957 38.0508L140.807 37.9336V43.0691L140.933 43.9854L140.238 44.0849ZM140.094 40.5156C139.914 40.4445 139.759 40.3984 139.442 40.3984C138.62 40.3984 138.213 41.1016 138.213 41.8936C138.213 42.8986 138.483 43.4846 139.28 43.4846C139.633 43.4846 139.874 43.3426 140.094 43.1721V40.512V40.5156Z" fill="#333333"/>
<path d="M145.095 43.7936C144.687 44.0174 144.273 44.1132 143.758 44.1132C142.504 44.1132 141.87 43.2928 141.87 41.9042C141.87 40.615 142.555 39.752 143.621 39.752C144.687 39.752 145.059 40.4196 145.059 41.3359V41.8332H142.576C142.583 42.9448 142.983 43.4811 143.913 43.4811C144.266 43.4811 144.525 43.3816 144.842 43.2325L145.095 43.7936ZM144.385 41.3359C144.385 40.7038 144.158 40.3202 143.589 40.3202C143.019 40.3202 142.713 40.7286 142.612 41.3359H144.381H144.385Z" fill="#333333"/>
<path d="M147.977 40.463C147.48 40.463 147.127 40.5873 146.803 40.8821V44.0145H146.082V40.811L145.956 39.8947L146.669 39.7775L146.741 40.3458H146.752C147.04 40.0261 147.412 39.7598 147.981 39.7598V40.463H147.977Z" fill="#333333"/>
<path d="M148.755 44.0138V38.9671L148.629 38.0508L149.479 37.9336V44.0138H148.759H148.755Z" fill="#333333"/>
<path d="M152.862 44.0848L152.797 43.5947H152.79C152.473 43.8788 152.148 44.1203 151.644 44.1203C150.931 44.1203 150.523 43.7119 150.523 43.0442C150.523 42.2984 151.111 41.9397 151.975 41.8438L152.736 41.7621V41.3892C152.736 40.8103 152.545 40.4019 151.86 40.4019C151.507 40.4019 151.262 40.5084 150.985 40.6434L150.722 40.1178C151.111 39.894 151.489 39.752 152.029 39.752C152.887 39.752 153.445 40.2421 153.445 41.0696V43.0549L153.582 43.9712L152.862 44.0884V44.0848ZM152.736 42.2451L152.076 42.3339C151.536 42.405 151.237 42.5754 151.237 42.9554C151.237 43.3035 151.453 43.5343 151.813 43.5343C152.238 43.5343 152.491 43.3568 152.736 43.1508V42.2416V42.2451Z" fill="#333333"/>
<path d="M157.297 44.0134V41.3072C157.297 40.6928 157.07 40.3802 156.493 40.3802C156.086 40.3802 155.798 40.54 155.535 40.7815V44.0134H154.815V40.81L154.688 39.8937L155.402 39.7765L155.474 40.2666H155.485C155.802 39.954 156.205 39.748 156.738 39.748C157.452 39.748 158.021 40.2026 158.021 41.0586V44.0134H157.297Z" fill="#333333"/>
<path d="M161.829 44.0849L161.764 43.6658H161.757C161.476 43.8895 161.126 44.1097 160.618 44.1097C159.678 44.1097 159.065 43.3603 159.065 42.1173C159.065 40.686 159.804 39.8017 161.097 39.8017C161.342 39.8017 161.53 39.8195 161.685 39.8656V38.9671L161.548 38.0508L162.398 37.9336V43.0691L162.524 43.9854L161.829 44.0849ZM161.685 40.5156C161.504 40.4445 161.35 40.3984 161.033 40.3984C160.211 40.3984 159.804 41.1016 159.804 41.8936C159.804 42.8986 160.074 43.4846 160.87 43.4846C161.223 43.4846 161.465 43.3426 161.685 43.1721V40.512V40.5156Z" fill="#333333"/>
</g>
<defs>
<clipPath id="clip0_685_1352">
<rect width="162" height="44" fill="white" transform="translate(0.524414 0.121094)"/>
</clipPath>
</defs>
</svg>
