<?xml version="1.0" encoding="UTF-8"?>
<!DOCTYPE svg PUBLIC "-//W3C//DTD SVG 1.1//EN" "http://www.w3.org/Graphics/SVG/1.1/DTD/svg11.dtd">
<svg xmlns="http://www.w3.org/2000/svg" xmlns:xlink="http://www.w3.org/1999/xlink">
	<defs>
    <clipPath id="a">
      <path transform="translate(.512 .5)" d="M0 0h33v34H0z"/>
    </clipPath>
  
    <clipPath id="a">
      <path fill="#fff" transform="translate(11.201 7.2)" d="M0 0h8.501v14.877H0z"/>
    </clipPath>
  
    <clipPath id="a">
      <path fill="#fff" transform="translate(20.502 17.371)" d="M0 0h60v78H0z"/>
    </clipPath>
  
    <filter id="a">
      <feColorMatrix values="0 0 0 0 1 0 0 0 0 1 0 0 0 0 1 0 0 0 1 0"/>
    </filter>
  </defs>
<symbol id="ambulance" viewBox="0 0 41 41">
  <path d="M26.679 10.917a.833.833 0 1 0 1.666 0v-1.25a.833.833 0 0 0-1.666 0v1.25ZM13.345 20.5V23h1.666v-2.5h2.5v-1.666h-2.5v-2.5h-1.666v2.5h-2.5v1.667h2.5Z"/>
  <path fill-rule="evenodd" d="M3.345 14.666a2.5 2.5 0 0 1 2.5-2.5H22.51a2.5 2.5 0 0 1 2.5 2.5v1.667h.834v-.834h.833v-.833a.833.833 0 1 1 1.667 0v.833h.833v.834h.598a2.5 2.5 0 0 1 1.696.663l4.402 4.063a2.5 2.5 0 0 1 .804 1.837v6.77h-4.272a3.335 3.335 0 0 1-6.456 0H13.24a3.335 3.335 0 0 1-6.457 0H3.345v-15ZM25.95 27.999a3.335 3.335 0 0 1 6.456 0h2.605v-4.166h-10v4.166h.939Zm-.939-5.833h9.605l-4.274-3.946a.834.834 0 0 0-.566-.22h-4.765v4.166Zm-2.5-8.333c.46 0 .834.373.834.833v13.333H13.24a3.335 3.335 0 0 0-6.457 0H5.011V14.666c0-.46.373-.833.834-.833H22.51Zm-12.5 16.666a1.667 1.667 0 1 0 0-3.333 1.667 1.667 0 0 0 0 3.333Zm20.834-1.666a1.667 1.667 0 1 1-3.333 0 1.667 1.667 0 0 1 3.333 0Z" clip-rule="evenodd"/>
  <path d="M30.429 14.667c0-.46.373-.833.833-.833h1.25a.833.833 0 1 1 0 1.667h-1.25a.833.833 0 0 1-.833-.834Zm-.56-3.534a.833.833 0 1 0 1.119 1.235l.762-.69a.833.833 0 1 0-1.12-1.236l-.761.69Z"/>
</symbol>
<symbol id="arrow-right-square" viewBox="0 0 41 40"><g fill="none">
  <rect x=".778" width="40" height="40" rx="5" fill="currentColor"/>
  <path d="M12.144 19a1 1 0 1 0 0 2v-2Zm15.976 1.707a1 1 0 0 0 0-1.414l-6.364-6.364a1 1 0 0 0-1.414 1.414L25.999 20l-5.657 5.657a1 1 0 0 0 1.414 1.414l6.364-6.364ZM12.144 20v1h15.27v-2h-15.27v1Z" fill="#fff"/>
</g></symbol>
<symbol id="arrow-right" viewBox="0 0 16.63 13.322"><g fill="none">
  <path d="M1 5.661h14.624v2H1v-2Zm.02 1.98-.02.02c-.56 0-1-.44-1-1s.44-1 1-1l.02.02v1.96Zm13.19-.98-4.95-4.95a.99.99 0 0 1 0-1.414.99.99 0 0 1 1.415 0l5.657 5.657a.99.99 0 0 1 0 1.414l-5.657 5.657a.99.99 0 0 1-1.414 0 .99.99 0 0 1 0-1.414l4.95-4.95Z" fill="currentColor"/>
</g></symbol>
<symbol id="brain" viewBox="0 0 34 35">
  <g clip-path="url(#a)">
    <path d="M30.812 12.557a.149.149 0 0 1-.065-.181c.967-2.532-.094-5.625-2.366-6.895-.363-.204-1.123-.412-1.678-.563-.576-.157-.785-.219-.872-.29-.115-.096-.174-.287-.26-.592-.05-.184-.105-.376-.17-.486C24.125 1.379 22.026.282 19.648.536c-.443.048-1.178.356-1.767.605-.555.233-.83.344-.971.334-.214-.018-.414-.159-.609-.294-.145-.101-.297-.206-.443-.253C13.052.04 10.572.746 9.057 2.865c-.174.244-.418.801-.597 1.208-.189.43-.227.51-.28.553-.086.072-.297.133-.874.292-.584.16-1.311.359-1.675.561-1.53.855-2.747 2.918-2.771 4.695-.005.294.104.73.198 1.115.12.483.192.789.154.982-.028.136-.228.35-.796.926-.449.457-1.007 1.024-1.19 1.342C.48 15.853.303 17.655.77 19.242c.387 1.316 1.173 2.346 2.216 2.9a.148.148 0 0 1 .068.187c-1.273 3.12.092 6.136 3.395 7.504.107.045.244.056.39.068.244.02.52.042.727.24.145.141.241.432.352.769.076.227.153.464.238.61.832 1.433 2.047 2.394 3.512 2.779 1.665.437 3.555.115 5.323-.909a.158.158 0 0 1 .078-.021.16.16 0 0 1 .085.026c1.476.977 3.276 1.327 4.935.96a5.624 5.624 0 0 0 3.629-2.597c.11-.18.224-.486.335-.781.165-.439.273-.714.4-.834.123-.118.442-.227.996-.409.56-.184 1.255-.411 1.618-.663 2.153-1.495 2.95-4.33 1.895-6.74a.147.147 0 0 1 .061-.188c1.568-.928 2.498-2.676 2.489-4.676-.01-2.073-1.044-3.955-2.698-4.913l-.002.002Zm-14.416-4.07c-.054.456-.31.772-.745.911-.979.316-2.56-.341-3.108-.924-.176-.187-.277-.423-.36-.613-.054-.126-.105-.246-.156-.295a.705.705 0 0 0-.939-.051c-.282.224-.436.691-.023 1.33.978 1.508 3.372 2.372 5.125 1.85a.16.16 0 0 1 .135.022c.038.028.06.073.06.12l-.002 20.461c0 .01 0 .02-.003.029-.058.298-.25.557-.57.768-.696.46-1.878.62-2.784.622-.375 0-.701-.027-.927-.073-1.234-.247-2.565-1.349-2.756-3.248-.155-1.54.596-2.85 1.962-3.418.24-.1.57-.16.92-.223.707-.129 1.508-.274 1.552-.757.018-.2-.024-.35-.127-.457-.286-.295-1.019-.262-1.553-.238-.185.01-.36.017-.5.01a.152.152 0 0 1-.11-.052.145.145 0 0 1-.035-.115c.094-.783-.059-2.42-.702-2.904-.216-.162-.47-.18-.776-.056-.341.138-.22.86-.092 1.622.133.796.283 1.697-.019 2.326-.107.223-.305.36-.478.479-.129.088-.252.172-.33.281l-.06.086c-.472.664-.96 1.35-.906 2.17a.147.147 0 0 1-.045.117.158.158 0 0 1-.12.042c-1.597-.148-2.806-1.017-3.32-2.379-.535-1.422-.168-3.104.933-4.353-1.227-.362-2.208-1.091-2.782-2.07-.568-.97-.69-2.102-.355-3.275.419-1.466 1.733-2.592 3.346-2.867 1.548-.265 2.988.292 3.853 1.49.012.016.02.034.025.053.053.234-.216.45-.664.809-.587.471-1.387 1.113-1.244 1.758l.437.427c.432.1.85-.29 1.33-.742.388-.366.826-.779 1.352-.98.344-.134.814-.185 1.27-.236 1.044-.115 1.724-.233 1.672-.802a.583.583 0 0 0-.203-.42c-.339-.278-1.052-.212-1.572-.162-.298.028-.532.049-.682.013-.297-.073-.554-.428-.827-.802-.149-.206-.303-.418-.438-.536-1.503-1.322-3.363-1.407-4.984-1.316a.152.152 0 0 1-.154-.106c-.482-1.57-.247-2.999.664-4.029.934-1.056 2.434-1.528 4.134-1.306.006-1.378.493-2.547 1.382-3.306.883-.754 2.119-1.042 3.478-.813.472.08 1.471.493 1.7.996.204.447.193 4.54.123 5.131h-.002ZM31.618 18.63c-.413 1.438-1.522 2.479-3.137 2.952 1.099 1.247 1.466 2.93.932 4.351-.513 1.363-1.723 2.23-3.32 2.38a.152.152 0 0 1-.139-.061.149.149 0 0 1-.015-.148c.311-.681-.67-1.786-1.256-2.446-.313-.352-.453-.514-.474-.636-.017-.098.038-.207.213-.54.26-.493.748-1.414.535-1.908-.067-.156-.202-.262-.411-.323-.672-.198-.865.242-1.152 1.037-.147.41-.299.834-.573 1.168-.471.573-1.025.814-1.515 1.027-.5.217-.935.405-1.24.893.094.38.25.62.466.713.448.192 1.146-.219 1.707-.548.361-.213.647-.38.864-.4.179-.016.356.05.53.2.617.53 1.042 1.986 1.063 2.484.07 1.595-.7 2.883-2.115 3.536a4.435 4.435 0 0 1-1.86.403 4.577 4.577 0 0 1-3.047-1.154.149.149 0 0 1-.05-.111v-11.9c0-.04.017-.077.046-.106a.172.172 0 0 1 .107-.043l2.29.026c.069 0 .128.046.145.11.297 1.098.648 1.436.887 1.527.169.064.351.032.556-.1.457-.292.296-.86-.024-1.76-.175-.489-.355-.996-.357-1.462 0-.224.056-.449.11-.666.13-.509.19-.835-.206-1.105-.327-.116-.57-.125-.743-.025-.313.181-.4.73-.483 1.262-.035.218-.07.443-.121.647a.152.152 0 0 1-.147.113l-1.595-.006a.152.152 0 0 1-.125-.064l-.317-.449a.147.147 0 0 1-.027-.085l.004-13.703c0-.026.008-.051.02-.075.59-1.02 1.762-1.523 3.132-1.344 1.594.208 2.946 1.257 3.289 2.55.044.168.058.274-.005.358-.057.08-.145.084-.197.087a.192.192 0 0 0-.09.018l-.092.05c-2.002 1.092-2.45 1.742-2.472 2.094-.01.161.071.303.25.434.518.374.792.136 1.198-.282.14-.146.288-.298.452-.396 1.62-.982 3.445-.966 4.757.041 1.325 1.018 1.796 2.77 1.225 4.572a.15.15 0 0 1-.126.103c-.4.05-.809.035-1.205.018-.388-.015-.79-.031-1.17.018-.202.026-.516.15-.792.26-.393.155-.643.25-.809.231-.102-.01-.229-.095-.536-.305-.499-.341-1.43-.975-1.927-.798-.16.057-.268.2-.335.433-.149.528.493.923 1.173 1.342.4.247.815.502 1.058.797.3.365.468.874.632 1.365.307.928.53 1.486 1.224 1.283a.572.572 0 0 0 .358-.289c.194-.394-.053-1.075-.25-1.624-.18-.496-.309-.853-.16-1.051a.148.148 0 0 1 .085-.055c1.703-.427 3.222-.075 4.275.992 1.035 1.048 1.437 2.656 1.024 4.096l.008-.003Z"/>
  </g>
  
</symbol>
<symbol id="calendar" viewBox="0 0 37 36">
  <path fill-rule="evenodd" clip-rule="evenodd" d="M6.405 15a2 2 0 0 0-2 2v2a2 2 0 0 0 2 2h2a2 2 0 0 0 2-2v-2a2 2 0 0 0-2-2h-2Zm0 2v2h2v-2h-2ZM12.405 17a2 2 0 0 1 2-2h2a2 2 0 0 1 2 2v2a2 2 0 0 1-2 2h-2a2 2 0 0 1-2-2v-2Zm2 0h2v2h-2v-2ZM22.405 15a2 2 0 0 0-2 2v2a2 2 0 0 0 2 2h2a2 2 0 0 0 2-2v-2a2 2 0 0 0-2-2h-2Zm0 2v2h2v-2h-2ZM4.405 25a2 2 0 0 1 2-2h2a2 2 0 0 1 2 2v2a2 2 0 0 1-2 2h-2a2 2 0 0 1-2-2v-2Zm4 0v2h-2v-2h2ZM14.405 23a2 2 0 0 0-2 2v2a2 2 0 0 0 2 2h2a2 2 0 0 0 2-2v-2a2 2 0 0 0-2-2h-2Zm2 2h-2v2h2v-2Z"/>
  <path d="M30.405 26.5a1 1 0 1 0-2 0v2.914l1.293 1.293a1 1 0 0 0 1.414-1.414l-.707-.707V26.5Z"/>
  <path fill-rule="evenodd" clip-rule="evenodd" d="M6.405 1a1 1 0 1 1 2 0v5a1 1 0 1 0 2 0V3h10V1a1 1 0 1 1 2 0v5a1 1 0 1 0 2 0V3h3a3 3 0 0 1 3 3v16.07a7.001 7.001 0 0 1-1 13.93 6.992 6.992 0 0 1-5.745-3H3.405a3 3 0 0 1-3-3V6a3 3 0 0 1 3-3h3V1Zm16 28a7.001 7.001 0 0 1 6-6.93V12h-26v18a1 1 0 0 0 1 1h19.29a7.001 7.001 0 0 1-.29-2Zm12 0a5 5 0 1 1-10 0 5 5 0 0 1 10 0Z"/>
</symbol>
<symbol id="chevron-down" viewBox="0 0 17 9"><g fill="none">
  <path d="m1.884 1.896 6.524 5.708 6.707-5.708" stroke="currentColor" stroke-width="2" stroke-linecap="round"/>
</g></symbol>
<symbol id="chevron-left" viewBox="0 0 11 17"><g fill="none">
  <path d="M9.362 15.393 2.564 8.75l6.798-6.642" stroke="currentColor" stroke-width="3" stroke-linecap="round"/>
</g></symbol>
<symbol id="chevron-right" viewBox="0 0 11 17"><g fill="none">
  <path d="M1.822 15.393 8.62 8.75 1.822 2.109" stroke="currentColor" stroke-width="3" stroke-linecap="round"/>
</g></symbol>
<symbol id="clinical-f" viewBox="0 0 37 37">
  <path d="M15.043 11.337v2.25h-2.25v1.5h2.25v2.25h1.5v-2.25h2.25v-1.5h-2.25v-2.25h-1.5ZM13.543 19.587a.75.75 0 1 0 0 1.5h10.5a.75.75 0 0 0 0-1.5h-10.5ZM12.793 24.087a.75.75 0 0 1 .75-.75h10.5a.75.75 0 0 1 0 1.5h-10.5a.75.75 0 0 1-.75-.75ZM13.543 27.087a.75.75 0 1 0 0 1.5h10.5a.75.75 0 0 0 0-1.5h-10.5Z"/>
  <path fill-rule="evenodd" clip-rule="evenodd" d="M13.543 5.337a2.25 2.25 0 0 1 2.25-2.25h6a2.25 2.25 0 0 1 2.25 2.25h3a2.25 2.25 0 0 1 2.25 2.25v23.25a2.25 2.25 0 0 1-2.25 2.25h-16.5a2.25 2.25 0 0 1-2.25-2.25V7.587a2.25 2.25 0 0 1 2.25-2.25h3Zm8.25 3.75a2.25 2.25 0 0 0 2.25-2.25h3a.75.75 0 0 1 .75.75v23.25a.75.75 0 0 1-.75.75h-16.5a.75.75 0 0 1-.75-.75V7.587a.75.75 0 0 1 .75-.75h3a2.25 2.25 0 0 0 2.25 2.25h6Zm-6-4.5a.75.75 0 0 0-.75.75v1.5c0 .414.336.75.75.75h6a.75.75 0 0 0 .75-.75v-1.5a.75.75 0 0 0-.75-.75h-6Z"/>
</symbol>
<symbol id="coins" viewBox="0 0 37 38">
  <path d="M29.002 21.685c.9-1.465 1.425-3.16 1.5-5.01v-.386c0-5.55-4.35-10.02-9.75-10.02s-3.75.539-5.25 1.54c-1.05 0-2.025.232-3 .54a10.19 10.19 0 0 1 2.4-2.004h.075a10.967 10.967 0 0 1 5.7-1.618c6.225 0 11.25 5.164 11.25 11.562v.308c0 2.005-.6 3.777-1.425 5.396 0 0 0 .077-.075.154-.525.925-1.2 1.85-2.025 2.544.3-1.002.45-2.004.525-3.083l.075.077Z"/>
  <path fill-rule="evenodd" clip-rule="evenodd" d="M27.502 20.914c0 6.398-5.025 11.563-11.25 11.563s-11.25-5.165-11.25-11.563c0-6.398 5.025-11.562 11.25-11.562s11.25 5.164 11.25 11.562Zm-1.5 0c0 5.55-4.35 10.02-9.75 10.02s-9.75-4.47-9.75-10.02 4.35-10.02 9.75-10.02 9.75 4.47 9.75 10.02Z"/>
  <path d="M18.802 19.45c0-.848-.225-1.465-.675-1.85-.45-.386-1.125-.617-2.1-.617-.975 0-1.5.154-1.95.54-.45.385-.825.925-.975 1.618h4.2v1.157h-4.35v1.233h4.35v1.156h-4.2c.15.77.525 1.31.975 1.619.45.308 1.125.54 1.95.54s1.65-.232 2.1-.617c.45-.386.675-1.002.675-1.773 0-.077 1.8-.077 1.8-.077 0 1.31-.375 2.235-1.2 3.006-.825.77-1.875 1.08-3.3 1.08-1.425 0-2.25-.31-3.15-1.003-.825-.694-1.35-1.619-1.65-2.852h-1.2v-1.156h1.05V20.22h-1.05v-1.156h1.2c.3-1.233.825-2.158 1.65-2.852s1.875-1.002 3.15-1.002 2.475.385 3.3 1.08c.825.77 1.2 1.695 1.2 2.928 0 .077-1.8.077-1.8.077v.154Z"/>
</symbol>
<symbol id="colon" viewBox="0 0 41 41">
  <path d="M5.012 10.662a5.162 5.162 0 0 1 8.31-4.091A5.142 5.142 0 0 1 16.47 5.5c1.372 0 2.618.535 3.542 1.407A5.145 5.145 0 0 1 23.553 5.5c1.185 0 2.278.4 3.149 1.07a5.162 5.162 0 0 1 7.244 7.233 5.81 5.81 0 0 1 1.066 3.364 5.81 5.81 0 0 1-1.209 3.555 5.162 5.162 0 0 1-7.102 7.41c-.213.165-.44.314-.678.444a3.682 3.682 0 0 0-.178.654v6.27h-1.667v-6.346c0-.05.005-.099.014-.148.061-.342.142-.685.253-.975a2.19 2.19 0 0 1 .226-.444 1.28 1.28 0 0 1 .47-.43 3.51 3.51 0 0 0 .955-.716.833.833 0 0 1 1.212 0 3.495 3.495 0 1 0 4.814-5.056.834.834 0 0 1-.04-1.23 4.152 4.152 0 0 0 1.263-2.988c0-1.09-.417-2.081-1.103-2.824a.833.833 0 0 1 .034-1.165 3.496 3.496 0 0 0-2.24-6.006v.024c-.793 0-1.609.393-2.138 1.036-.513.622-.748 1.464-.429 2.421a.833.833 0 1 1-1.581.527c-.365-1.095-.275-2.135.111-3.015a3.482 3.482 0 0 0-2.445-.998 3.49 3.49 0 0 0-2.86 1.485.833.833 0 0 1-1.364 0 3.49 3.49 0 0 0-2.86-1.485c-1.002 0-1.904.42-2.542 1.096a.833.833 0 0 1-1.212 0 3.495 3.495 0 1 0-4.941 4.941.834.834 0 0 1 0 1.212 3.483 3.483 0 0 0-1.097 2.542 3.49 3.49 0 0 0 1.486 2.86.833.833 0 0 1 0 1.363 3.497 3.497 0 0 0 1.205 6.263.833.833 0 0 1 .643.811v1.69a.74.74 0 0 0 1.481 0v-2.147c0-.298.16-.574.418-.723a3.494 3.494 0 0 0 1.758-3.033 3.49 3.49 0 0 0-1.486-2.86.84.84 0 0 1-.128-.112c-.571-.376-1.254-.57-2.043-.57a.833.833 0 0 1 0-1.667c.942 0 1.823.208 2.6.63a3.483 3.483 0 0 0 1.057-2.505c0-1.001-.42-1.903-1.096-2.542a.834.834 0 0 1 0-1.212c.049-.046.097-.094.143-.143a.833.833 0 0 1 1.212 0 3.483 3.483 0 0 0 2.542 1.096 3.49 3.49 0 0 0 2.86-1.485.833.833 0 0 1 1.363 0 3.49 3.49 0 0 0 3.837 1.347.833.833 0 0 1 .968 1.192 4.144 4.144 0 0 0-.486 1.956c0 .753.2 1.458.548 2.067.95.534 1.57 1.06 1.937 1.67.433.722.432 1.448.431 2.032V23a.833.833 0 1 1-1.666 0c0-.656-.018-.944-.194-1.238-.144-.24-.443-.552-1.125-.959a.832.832 0 0 1-.188-.045 3.495 3.495 0 0 0-2.79 6.398c.088.046.167.099.238.156a.833.833 0 0 1 .309.647V35.5h-1.667v-7.063a5.162 5.162 0 0 1 2.708-9.557h.048a5.833 5.833 0 0 1-.1-3.056 5.145 5.145 0 0 1-3.49-1.407 5.17 5.17 0 0 1-4.841 1.242c.108.415.166.85.166 1.3a5.146 5.146 0 0 1-1.407 3.541 5.145 5.145 0 0 1 1.407 3.542c0 1.739-.86 3.276-2.176 4.21v1.693a2.407 2.407 0 1 1-4.815 0V28.87a5.163 5.163 0 0 1-1.927-8.37 5.146 5.146 0 0 1-1.406-3.542c0-1.184.4-2.277 1.07-3.148a5.142 5.142 0 0 1-1.07-3.148Z"/>
</symbol>
<symbol id="download" viewBox="0 0 41 41"><g fill="none">
  <path d="M20.377 20.244v10m0 0 5.094-3.333m-5.094 3.333-5.094-3.333m6.792-21.665c-.162-.002-.344-.002-.552-.002h-7.598c-1.902 0-2.854 0-3.58.363-.64.32-1.159.83-1.485 1.457-.37.713-.37 1.647-.37 3.514V29.91c0 1.867 0 2.8.37 3.513a3.366 3.366 0 0 0 1.484 1.457c.726.363 1.677.363 3.575.363h12.916c1.898 0 2.848 0 3.573-.363a3.37 3.37 0 0 0 1.486-1.457c.37-.712.37-1.644.37-3.507v-14.13c0-.205 0-.384-.002-.543M22.075 5.246c.485.004.792.021 1.085.09.346.082.677.217.981.4.343.206.637.495 1.224 1.07l5.308 5.21c.587.576.88.864 1.09 1.2.185.298.323.624.406.964.07.287.089.588.093 1.064M22.075 5.246V9.91c0 1.867 0 2.8.37 3.513a3.367 3.367 0 0 0 1.484 1.457c.726.363 1.677.363 3.575.363h4.758m0 0h.002" stroke="currentColor" stroke-width="2" stroke-linecap="round" stroke-linejoin="round"/>
</g></symbol>
<symbol id="ear-nose-throat" viewBox="0 0 41 41">
  <path d="M13.553 13.834c-1.319 0-2.338.405-3.023 1.123-.676.706-.935 1.62-.935 2.465 0 1.307.808 2.485 1.54 3.302.76.847 1.598 1.482 1.956 1.72l.693.462.925-1.386-.694-.463a9.721 9.721 0 0 1-1.638-1.445c-.674-.752-1.116-1.53-1.116-2.19 0-.52.159-.985.474-1.314.304-.318.848-.607 1.818-.607h.833v-1.667h-.833ZM25.03 20.084c2.148 0 3.554.491 4.462 1.195.915.709 1.227 1.56 1.33 2.082.139.71-.373 1.23-.89 1.358l-1.564.39v.808a2.919 2.919 0 0 1-2.921 2.917h-3.715a3.793 3.793 0 0 0-3.797 3.791v1.026s-.126.06-.84.138c-.714.077-.8.038-.8.038l-.03-1.202a5.46 5.46 0 0 1 5.466-5.458h3.716a1.25 1.25 0 0 0 1.252-1.25v-.567c-.821.083-1.928.15-3.354.15a.833.833 0 1 1 0-1.666c1.72 0 2.935-.102 3.709-.202.387-.05.664-.098.839-.134a5.421 5.421 0 0 0 .226-.05l.005-.001a.859.859 0 0 1 .116-.023l.779-.195a2.019 2.019 0 0 0-.55-.634c-.53-.41-1.537-.844-3.44-.844h-2.921c-3.688 0-6.677 2.984-6.677 6.666v5.33s-.318-.042-.836-.171a4.706 4.706 0 0 1-.899-.323l.066-4.836c0-4.602 3.736-8.333 8.346-8.333h2.921Z"/>
  <path fill-rule="evenodd" clip-rule="evenodd" d="M33.107 21.638s2.164 1.947 1.879 3.509c-.285 1.562-3.103 1.992-3.103 1.992 0 6.31-6.027 5.909-9.034 5.315-1-.197-1.667-.416-1.667-.416v1.186s-.063.199-.256.478c-.46.665-1.655 1.786-4.5 1.786-1.904.15-5.162-1.096-6.025-2.852v-5.374c-3.044-2.275-5.39-5.34-5.39-9.312 0-3.302 1.379-6.469 3.831-8.803C11.295 6.811 14.622 5.5 18.09 5.5a18.942 18.942 0 0 1 7.67 1.607 11.982 11.982 0 0 1 4.815 3.509 9.854 9.854 0 0 1 1.843 5.478c.01.45.004.876-.002 1.288-.022 1.456-.04 2.74.691 4.256Zm-1.358 1.02c-.921-1.909-1.031-3.976-1.003-5.477.007-.365.013-.715.005-1.047a8.184 8.184 0 0 0-1.501-4.505c-1.078-1.299-2.543-2.348-4.164-2.997a17.275 17.275 0 0 0-6.994-1.465c-3.052 0-5.966 1.155-8.1 3.187-2.132 2.029-3.314 4.763-3.314 7.596 0 3.235 1.893 5.864 4.72 7.977l.67.5v5.725c.278.33.818.742 1.628 1.1.995.44 2.15.581 2.598.574 1.69 0 2.62-.47 2.963-.754.118-.098.202-.19.258-.263v-.773a1.666 1.666 0 0 1 2.185-1.582 16.1 16.1 0 0 0 1.476.366c.927.183 2.109.333 3.248.259 1.158-.075 2.087-.37 2.707-.896.557-.475 1.085-1.325 1.085-3.044v-1.432l1.72-.28c.216-.052.491-.131.76-.241.28-.114.525-.273.645-.376a1.099 1.099 0 0 0-.073-.245 3.67 3.67 0 0 0-.453-.766 7.2 7.2 0 0 0-.577-.679l-.49-.462Z"/>
</symbol>
<symbol id="facebook" viewBox="0 0 30 30">
  <path d="M15.452 29.185c8.035 0 14.549-6.513 14.549-14.548S23.487.087 15.452.087.903 6.603.903 14.638s6.514 14.548 14.549 14.548Z"/>
  <g clip-path="url(#a)">
    <path d="m19.698 13.76-.204 1.514c-.034.252-.266.442-.54.442H16.3v6.326a10.233 10.233 0 0 1-2.72-.137v-6.189h-2.04c-.187 0-.34-.141-.34-.315v-1.893c0-.174.153-.315.34-.315h2.04v-2.84c0-1.742 1.522-3.154 3.4-3.154h2.38c.188 0 .34.142.34.316v1.893c0 .173-.152.315-.34.315h-1.7c-.75 0-1.36.565-1.36 1.262v2.208h2.857c.327 0 .58.267.54.568Z" fill="#fff"/>
  </g>
  
</symbol>
<symbol id="forum" viewBox="0 0 37 37">
  <path fill-rule="evenodd" clip-rule="evenodd" d="M18.244 22.642a7.626 7.626 0 0 1-.857.048H12.94v3.646s-.605-.122-1.5-.467c-2.56-.985-7.5-3.785-7.5-10.731a7.552 7.552 0 0 1 7.552-7.552h5.895a7.555 7.555 0 0 1 7.393 6h3.118a6.042 6.042 0 0 1 6.042 6.042c0 5.459-4.371 7.717-6.75 8.542-.89.308-1.5.416-1.5.416v-2.917H23.48a6.035 6.035 0 0 1-5.237-3.027ZM11.44 21.19v3.057a11.666 11.666 0 0 1-2.121-1.21c-1.942-1.404-3.88-3.786-3.88-7.899a6.052 6.052 0 0 1 6.053-6.052h5.895a6.052 6.052 0 0 1 6.042 5.698 7.537 7.537 0 0 1-2.703 5.403 6.025 6.025 0 0 1-3.339 1.003H11.44Zm10.18.203a9.072 9.072 0 0 1-1.673 1.087 4.535 4.535 0 0 0 3.534 1.69h3.709v2.4a11.073 11.073 0 0 0 1.824-.92c1.775-1.12 3.426-2.94 3.426-6.022a4.542 4.542 0 0 0-4.542-4.542H24.94v.052a7.545 7.545 0 0 1-3.318 6.255Z"/>
</symbol>
<symbol id="gynecology" viewBox="0 0 41 41">
  <path fill-rule="evenodd" clip-rule="evenodd" d="M5.225 13.107c-.409-.656-.2-1.396.467-2.003.325-.296.702-.494 1.028-.57.333-.077.5-.009.569.046 1.505 1.207 2.48 1.52 3.329 1.593.241.021.424.027.572.032.371.012.532.017.873.236l.9-1.404c-.762-.487-1.445-.502-1.915-.512-.107-.003-.202-.005-.285-.012-.444-.039-1.116-.178-2.432-1.233-.603-.484-1.359-.515-1.99-.369-.637.149-1.264.499-1.77.96-.996.906-1.761 2.513-.76 4.118.518.83 1.092 1.542 1.621 2.118.076-.142.174-.273.294-.388.303-.292.71-.452 1.17-.49a13.03 13.03 0 0 1-1.67-2.122ZM10.384 19.74c-.08-.359-.336-.845-.827-1.297-.49-.453-1.012-.684-1.395-.75-.212-.038-.323-.02-.372-.006-.014.046-.03.152.014.35.08.36.336.846.827 1.298.49.453 1.012.683 1.395.75.212.037.324.02.372.006.014-.046.03-.152-.014-.35Zm.001.38.005-.008a.031.031 0 0 1-.005.007Zm.036-.038.007-.004-.008.004ZM7.803 17.66l-.004.007a.033.033 0 0 1 .004-.007Zm-.035.037-.008.004.008-.005Zm3.862 3.53c.918-.885.528-2.65-.873-3.94-1.4-1.29-3.28-1.62-4.198-.734-.919.885-.528 2.65.872 3.94s3.28 1.62 4.199.734ZM34.798 13.107c.41-.656.2-1.396-.467-2.003-.324-.296-.702-.494-1.027-.57-.333-.077-.501-.009-.569.046-1.505 1.207-2.48 1.52-3.329 1.593-.241.021-.424.027-.573.032-.37.012-.531.017-.872.236l-.9-1.404c.762-.487 1.445-.502 1.915-.512.106-.003.202-.005.285-.012.444-.039 1.115-.178 2.432-1.233.603-.484 1.358-.515 1.989-.369.638.149 1.264.499 1.771.96.996.906 1.76 2.513.76 4.118a14.524 14.524 0 0 1-1.655 2.154 1.552 1.552 0 0 0-.312-.425c-.292-.28-.681-.44-1.122-.484a13.035 13.035 0 0 0 1.674-2.127ZM29.587 19.74c.08-.359.336-.845.827-1.297.49-.453 1.013-.684 1.395-.75.212-.038.324-.02.372-.006.015.046.03.152-.014.35-.08.36-.336.846-.827 1.298-.49.453-1.012.683-1.394.75-.212.037-.324.02-.373.006-.014-.046-.03-.152.014-.35Zm0 .38-.005-.008a.031.031 0 0 0 .004.007Zm-.036-.038-.007-.004.007.004Zm2.617-2.423.005.007-.005-.007Zm.036.037a.034.034 0 0 0 .007.004l-.007-.005Zm-3.862 3.53c-.919-.885-.528-2.65.872-3.94s3.28-1.62 4.199-.734c.918.885.528 2.65-.872 3.94s-3.28 1.62-4.2.734ZM15.563 16.51c.36.793.82 1.442 1.159 1.782.62.624.908 1.627 1.077 2.603.177 1.02.257 2.228.321 3.44l.037.716c.05.99.1 1.974.19 2.9.08.82.188 1.558.343 2.179.108-.094.225-.193.325-.27.11-.085.243-.179.39-.255.14-.072.356-.16.615-.16.264 0 .48.092.626.17.149.083.279.184.382.272l.102.091c.1-.557.157-1.198.186-1.905.03-.743.03-1.512.03-2.302 0-.393 0-.792.004-1.196.01-1.185.055-2.392.25-3.458.193-1.055.553-2.088 1.286-2.825a8.617 8.617 0 0 0 1.473-2.05c.424-.822.673-1.655.651-2.367-.02-.667-.275-1.245-.937-1.69-.709-.478-1.957-.852-4.053-.852-2.084 0-3.318.403-4.023.912-.668.484-.943 1.121-.981 1.851-.04.762.186 1.62.547 2.413Zm-.542-5.615c1.103-.797 2.738-1.229 4.999-1.229 2.248 0 3.882.393 4.985 1.137 1.15.775 1.635 1.872 1.67 3.02.035 1.103-.34 2.225-.835 3.184a10.281 10.281 0 0 1-1.773 2.46c-.382.386-.658 1.024-.828 1.95-.167.914-.212 1.998-.223 3.173-.003.369-.003.75-.003 1.134 0 .811 0 1.64-.032 2.418-.047 1.148-.166 2.292-.494 3.249a1.16 1.16 0 0 1-.48.628 1.025 1.025 0 0 1-.87.089 1.54 1.54 0 0 1-.453-.256 3.766 3.766 0 0 1-.294-.264 16.22 16.22 0 0 1-.18-.18c-.077-.077-.142-.143-.209-.204a6.218 6.218 0 0 0-.254.216c-.07.061-.148.13-.243.21-.164.138-.467.39-.81.489-.203.058-.509.09-.818-.074a1.156 1.156 0 0 1-.533-.632c-.355-.945-.54-2.112-.655-3.302-.093-.967-.146-2-.196-2.993a231.65 231.65 0 0 0-.036-.695c-.065-1.217-.141-2.333-.3-3.243-.165-.955-.392-1.487-.616-1.712-.505-.508-1.069-1.332-1.495-2.269-.425-.936-.752-2.068-.694-3.19.06-1.152.531-2.292 1.67-3.114Zm4.824 20.183c-.002-.001-.003-.002 0 0Z"/>
</symbol>
<symbol id="health-data" viewBox="0 0 37 37">
  <path fill-rule="evenodd" clip-rule="evenodd" d="M15.646 3.086a2.25 2.25 0 0 0-2.25 2.25h-2.25a2.25 2.25 0 0 0-2.25 2.25v21a2.25 2.25 0 0 0 2.25 2.25h9v-1.5h-9a.75.75 0 0 1-.75-.75v-21a.75.75 0 0 1 .75-.75h2.25a2.25 2.25 0 0 0 2.25 2.25h6a2.25 2.25 0 0 0 2.25-2.25h2.25a.75.75 0 0 1 .75.75v11.25h1.5V7.586a2.25 2.25 0 0 0-2.25-2.25h-2.25a2.25 2.25 0 0 0-2.25-2.25h-6Zm-.75 2.25a.75.75 0 0 1 .75-.75h6a.75.75 0 0 1 .75.75v1.5a.75.75 0 0 1-.75.75h-6a.75.75 0 0 1-.75-.75v-1.5Zm3 9v-2.25h1.5v2.25h2.25v1.5h-2.25v2.25h-1.5v-2.25h-2.25v-1.5h2.25Zm3 6.75a.75.75 0 0 1 .75-.75h9a.75.75 0 0 1 .75.75v5.092a5.25 5.25 0 0 1-2.337 4.368l-2.497 1.664a.75.75 0 0 1-.832 0l-2.496-1.664a5.25 5.25 0 0 1-2.338-4.368v-5.092Zm1.5.75v4.342a3.75 3.75 0 0 0 1.67 3.12l2.08 1.387 2.08-1.387a3.75 3.75 0 0 0 1.67-3.12v-4.342h-7.5Zm3.53 5.78 3-3-1.06-1.06-2.47 2.47-.97-.97-1.06 1.06 1.5 1.5a.75.75 0 0 0 1.06 0Z"/>
</symbol>
<symbol id="health-worker" viewBox="0 0 37 37">
  <path fill-rule="evenodd" clip-rule="evenodd" d="M14.752 22.851s-1.123-1.576-1.5-1.49c-4.053.923-8.25 3.586-8.25 6.418v4.072h27V27.78c0-2.832-4.197-5.495-8.25-6.418-.377-.086-1.5 1.49-1.5 1.49h-7.5Zm5.014 1.5H13.979l-.449-.63-.007-.01-.03-.041a12.106 12.106 0 0 0-.546-.686c-1.638.452-3.242 1.196-4.456 2.082-1.442 1.052-1.989 2.036-1.989 2.713v2.572h24V27.78c0-.677-.547-1.661-1.99-2.713-1.213-.886-2.817-1.63-4.455-2.082l-.056.065a10.533 10.533 0 0 0-.49.621l-.03.041-.007.01-.449.63h-3.26Z"/>
  <path fill-rule="evenodd" clip-rule="evenodd" d="M24.502 28.852v-4.5h1.5v4.5h-1.5Z"/>
  <path fill-rule="evenodd" clip-rule="evenodd" d="M27.502 27.352h-4.5v-1.5h4.5v1.5ZM18.502 18.352a6 6 0 1 0 0-12 6 6 0 0 0 0 12Zm0 1.5a7.5 7.5 0 1 0 0-15 7.5 7.5 0 0 0 0 15Z"/>
</symbol>
<symbol id="healthcare-it" viewBox="0 0 37 37">
  <path d="M17.168 15.46v-2.624h1.5v2.625h2.625v1.5h-2.625v2.625h-1.5V16.96h-2.625v-1.5h2.625Z"/>
  <path fill-rule="evenodd" clip-rule="evenodd" d="M5.586 23.693a1.503 1.503 0 0 1-.043-.357V9.086a1.5 1.5 0 0 1 1.5-1.5h22.5a1.5 1.5 0 0 1 1.5 1.5v14.25c0 .183-.032.358-.092.52l2.333 3.57a.75.75 0 0 1-.627 1.16H3.893a.75.75 0 0 1-.637-1.146l2.33-3.747ZM7.043 9.086h22.5v14.25h-22.5V9.086Z"/>
</symbol>
<symbol id="heart" viewBox="0 0 51 44">
  <path d="M25.592 10.109c3.054-5.904 6.107-8.861 12.204-8.861 6.734 0 12.16 5.295 12.205 11.817.081 11.945-20.865 20.75-24.609 28.183C21.876 34.125.094 25.956 1.184 13.065 1.738 6.57 6.654 1.248 13.388 1.248c6.107 0 9.151 2.957 12.204 8.86Z" stroke="currentColor" stroke-width="2"/>
</symbol>
<symbol id="hospital" viewBox="0 0 36 37">
  <path d="M15 15.336h-3v2.25h3v-2.25ZM12 19.086h3v2.25h-3v-2.25ZM15 22.836h-3v2.25h3v-2.25ZM16.5 15.336h3v2.25h-3v-2.25ZM19.5 19.086h-3v2.25h3v-2.25ZM16.5 22.836h3v2.25h-3v-2.25ZM24 15.336h-3v2.25h3v-2.25ZM21 19.086h3v2.25h-3v-2.25ZM24 22.836h-3v2.25h3v-2.25ZM18.75 11.586v-2.25H21v-1.5h-2.25v-2.25h-1.5v2.25H15v1.5h2.25v2.25h1.5Z"/>
  <path fill-rule="evenodd" clip-rule="evenodd" d="M12.75 4.836a1.5 1.5 0 0 1 1.5-1.5h7.5a1.5 1.5 0 0 1 1.5 1.5h6v1.5h-1.5v25.5h1.5a.75.75 0 0 1 0 1.5H6.75a.75.75 0 1 1 0-1.5h1.5v-25.5H7.5v-1.5h5.25Zm0 3.75h-3v23.25h3v-3H12v-1.5h12v1.5h-.75v3h3V8.586h-3v3.75a1.5 1.5 0 0 1-1.5 1.5h-7.5a1.5 1.5 0 0 1-1.5-1.5v-3.75Zm0-1.5h-3v-.75h3v.75Zm1.5-2.25h7.5v7.5h-7.5v-7.5Zm3 27h-3v-3h3v3Zm4.5 0v-3h-3v3h3Zm4.5-24.75v-.75h-3v.75h3Z"/>
</symbol>
<symbol id="joints" viewBox="0 0 41 41">
  <path fill-rule="evenodd" clip-rule="evenodd" d="M16.678 3.834c.46 0 .834.373.834.833v6.953a4.167 4.167 0 0 1-1.22 2.946l-.42.42a1.906 1.906 0 0 0 2.2 3.053l.202-.101a3.886 3.886 0 0 1 3.476 0l.202.1a1.906 1.906 0 0 0 2.2-3.052l-.42-.42a4.167 4.167 0 0 1-1.22-2.946V4.667a.833.833 0 0 1 1.666 0v1.42c6.258 1.806 10.834 7.575 10.834 14.414 0 6.838-4.576 12.608-10.834 14.413v1.42a.833.833 0 0 1-1.666 0v-6.953c0-1.105.439-2.165 1.22-2.946l.42-.42a1.906 1.906 0 0 0-2.2-3.053l-.202.101a3.886 3.886 0 0 1-3.476 0l-.202-.1a1.906 1.906 0 0 0-2.2 3.052l.42.42a4.167 4.167 0 0 1 1.22 2.946v6.953a.833.833 0 0 1-1.667 0v-1.42C9.588 33.11 5.012 27.34 5.012 20.501c0-6.839 4.576-12.608 10.833-14.414v-1.42c0-.46.373-.833.833-.833Zm-.833 3.997c-5.323 1.75-9.167 6.761-9.167 12.67 0 5.908 3.844 10.92 9.167 12.67v-3.79a2.5 2.5 0 0 0-.732-1.767l-.42-.42a3.573 3.573 0 0 1 4.124-5.722l.202.1a2.22 2.22 0 0 0 1.985 0l.202-.1a3.573 3.573 0 0 1 4.125 5.722l-.42.42a2.5 2.5 0 0 0-.733 1.767v3.79c5.324-1.75 9.167-6.762 9.167-12.67 0-5.909-3.843-10.92-9.167-12.67v3.789a2.5 2.5 0 0 0 .733 1.768l.42.42a3.573 3.573 0 0 1-4.125 5.722l-.202-.101a2.22 2.22 0 0 0-1.985 0l-.202.1a3.573 3.573 0 0 1-4.124-5.721l.42-.42a2.5 2.5 0 0 0 .732-1.768V7.83Z"/>
</symbol>
<symbol id="linkedin" viewBox="0 0 30 30">
  <path d="M14.975 29.185c8.034 0 14.548-6.513 14.548-14.548S23.01.087 14.975.087C6.939.088.425 6.603.425 14.638s6.514 14.548 14.55 14.548Z"/>
  <path d="M21.614 16.072v4.911h-2.847v-4.584c0-1.152-.413-1.937-1.444-1.937-.785 0-1.256.53-1.463 1.04-.076.184-.094.436-.094.696v4.78h-2.848s.04-7.758 0-8.561h2.848v1.215l-.018.027h.018v-.027c.377-.583 1.054-1.412 2.566-1.412 1.874 0 3.278 1.224 3.278 3.852h.005ZM9.945 8.291c-.973 0-1.61.641-1.61 1.48s.619 1.48 1.574 1.48h.018c.991 0 1.61-.66 1.61-1.48-.018-.839-.619-1.48-1.592-1.48Zm-1.44 12.692h2.848v-8.566H8.505v8.566Z" fill="#fff"/>
</symbol>
<symbol id="lungs" viewBox="0 0 41 41">
  <path fill-rule="evenodd" clip-rule="evenodd" d="M19.178 5.5H20.845v12.083c0 1.165.47 1.619.837 1.833.04.023.082.045.123.065l-.003-.313v-.001c-.032-2.94-.093-8.667 4.44-8.667 6.208 0 10.643 21.672 7.982 23.883-2.661 2.212-7.983.885-10.644-1.769-2.148-2.142-1.962-7.149-1.829-10.743l.023-.64a3.557 3.557 0 0 1-.932-.376 3.178 3.178 0 0 1-.83-.695 3.176 3.176 0 0 1-.83.695 3.557 3.557 0 0 1-.933.376l.023.64c.134 3.594.32 8.6-1.829 10.743-2.66 2.654-7.983 3.98-10.643 1.77C3.139 32.171 7.573 10.5 13.782 10.5c4.533 0 4.471 5.726 4.44 8.667v.04l-.003.274c.04-.02.082-.042.123-.065.366-.214.836-.668.836-1.833V5.5Zm7.063 6.666c-.795 0-1.242.25-1.555.573-.362.372-.663.97-.875 1.815-.37 1.479-.355 3.18-.342 4.554.002.237.004.465.004.68 0 .633-.028 1.391-.057 2.18-.012.311-.024.626-.034.94-.037 1.147-.059 2.347-.003 3.507.055 1.167.186 2.238.43 3.135.247.907.578 1.515.948 1.884 1.065 1.062 2.747 1.92 4.462 2.253 1.696.329 3.061.085 3.86-.523l.015-.033c.049-.123.109-.335.157-.657.098-.646.123-1.547.058-2.657-.131-2.208-.607-5.01-1.358-7.767-.755-2.767-1.758-5.384-2.896-7.268-.57-.944-1.13-1.633-1.651-2.07-.516-.434-.898-.546-1.163-.546Zm-12.459 0c.795 0 1.243.251 1.556.573.361.372.663.97.874 1.815.371 1.48.356 3.181.343 4.554-.002.238-.005.465-.005.68 0 .633.029 1.392.058 2.18l.034.941c.037 1.146.058 2.346.003 3.506-.056 1.167-.187 2.238-.431 3.135-.247.907-.578 1.516-.948 1.884-1.065 1.062-2.746 1.92-4.462 2.253-1.696.329-3.06.086-3.86-.523a3.09 3.09 0 0 1-.172-.69c-.097-.646-.123-1.547-.057-2.657.13-2.208.606-5.01 1.358-7.766.754-2.768 1.758-5.384 2.895-7.269.57-.943 1.131-1.633 1.652-2.07.515-.434.897-.545 1.162-.545Z"/>
</symbol>
<symbol id="newsletter" viewBox="0 0 37 36">
  <path fill-rule="evenodd" clip-rule="evenodd" d="M7.384 6.375c-1.315 0-2.382 1.08-2.382 2.41V23.25c0 1.331 1.067 2.41 2.382 2.41h7.941v1.608H12.15v1.607h12.706v-1.607h-3.177V25.66h7.942c1.315 0 2.382-1.08 2.382-2.411V8.786c0-1.332-1.067-2.411-2.382-2.411H7.384Zm9.53 20.893h3.176V25.66h-3.176v1.607ZM6.59 8.786c0-.444.356-.804.794-.804H29.62c.438 0 .794.36.794.804V23.25a.799.799 0 0 1-.794.804H7.384a.799.799 0 0 1-.794-.804V8.786Zm5.559.803H10.56v1.607H8.972v1.607h1.589v1.608h1.588v-1.607h1.588v-1.607H12.15V9.588Zm-2.382 6.429a.799.799 0 0 0-.795.803v3.215c0 .444.356.803.795.803h3.176c.439 0 .794-.36.794-.803V16.82a.799.799 0 0 0-.794-.803H9.767Zm.794 3.214v-1.607h1.588v1.607H10.56Zm5.559-8.84c0-.443.355-.803.794-.803h3.176c.439 0 .794.36.794.804v3.214a.799.799 0 0 1-.794.804h-3.176a.799.799 0 0 1-.794-.804v-3.214Zm1.588.805v1.607h1.588v-1.607h-1.588Zm-.794 4.82a.799.799 0 0 0-.794.805v3.214c0 .444.355.803.794.803h3.176c.439 0 .794-.36.794-.803V16.82a.799.799 0 0 0-.794-.803h-3.176Zm.794 3.215v-1.607h1.588v1.607h-1.588Zm5.559-8.84c0-.443.355-.803.794-.803h3.176c.439 0 .795.36.795.804v3.214a.799.799 0 0 1-.795.804h-3.176a.799.799 0 0 1-.794-.804v-3.214Zm1.588.805v1.607h1.588v-1.607h-1.588Z"/>
</symbol>
<symbol id="phone" viewBox="0 0 35 36">
  <path fill-rule="evenodd" clip-rule="evenodd" d="M2.835 2.492a.865.865 0 0 0-.863.863c0 16.658 13.507 30.164 30.165 30.164a.865.865 0 0 0 .863-.863v-6.39a.865.865 0 0 0-.863-.862c-2.376 0-4.693-.378-6.846-1.096h-.01a.847.847 0 0 0-.872.204l-4.528 4.528-.63-.32c-5.362-2.744-9.764-7.127-12.489-12.489l-.32-.63 4.528-4.528a.863.863 0 0 0 .223-.882 21.754 21.754 0 0 1-1.086-6.836.865.865 0 0 0-.863-.863H2.835Zm-2.802.863A2.81 2.81 0 0 1 2.835.553h6.41a2.81 2.81 0 0 1 2.802 2.802c0 2.181.349 4.276.998 6.234v.01c.3.97.078 2.065-.698 2.841l-3.52 3.52a26.836 26.836 0 0 0 10.695 10.694l3.52-3.52a2.778 2.778 0 0 1 2.86-.668c1.95.64 4.063.989 6.225.989a2.81 2.81 0 0 1 2.802 2.802v6.39a2.81 2.81 0 0 1-2.802 2.802C14.403 35.459.033 21.089.033 3.355Z"/>
</symbol>
<symbol id="question" viewBox="0 0 37 37">
  <path fill-rule="evenodd" clip-rule="evenodd" d="M19.102 25.648h2.025a9.375 9.375 0 1 0 0-18.75h-5.25a9.375 9.375 0 0 0-9.375 9.375c0 6.046 3.447 9.661 7.073 11.84 1.82 1.093 3.652 1.8 5.037 2.233.17.053.334.102.49.147v-4.845Zm1.5 6.75s-.573-.096-1.5-.347c-3.908-1.059-14.1-4.865-14.1-15.778 0-6.006 4.869-10.875 10.875-10.875h5.25c6.006 0 10.875 4.87 10.875 10.875 0 6.006-4.869 10.875-10.875 10.875h-.525v5.25Z"/>
  <path fill-rule="evenodd" clip-rule="evenodd" d="M21.27 10.26c.773.513 1.355 1.345 1.355 2.46 0 1.183-.477 2.053-1.25 2.586-.321.221-.666.365-.998.46v1.15a1.125 1.125 0 0 1-2.25 0v-2.099c0-.592.459-1.082 1.05-1.122.415-.028.73-.11.92-.242a.523.523 0 0 0 .181-.204c.045-.09.097-.25.097-.53 0-.234-.092-.414-.35-.586-.295-.196-.767-.34-1.335-.358-.561-.018-1.106.092-1.507.286-.402.196-.55.414-.591.576a1.125 1.125 0 1 1-2.18-.56c.259-1.006 1.011-1.663 1.79-2.04.78-.378 1.697-.538 2.56-.51.857.027 1.772.243 2.508.733Z"/>
  <path d="M20.752 21.148a1.5 1.5 0 1 1-3 0 1.5 1.5 0 0 1 3 0Z"/>
</symbol>
<symbol id="scroll" viewBox="0 0 15 16"><g fill="none">
  <path d="m11.025 8.932 2.714 2.714m0 0-2.714 2.714m2.714-2.714H1.072m2.715-4.524L1.072 4.408m0 0 2.715-2.715M1.072 4.408H13.74" stroke="#fff" stroke-width="2" stroke-linecap="round" stroke-linejoin="round"/>
</g></symbol>
<symbol id="search" viewBox="0 0 20 20">
  <path fill-rule="evenodd" clip-rule="evenodd" d="M19.128 8.417a7.92 7.92 0 0 1-7.917 7.916 7.878 7.878 0 0 1-5.161-1.915l-.713.712-.084.739L1.622 19.5.128 18.006l3.657-3.657.903-.063.612-.613a7.88 7.88 0 0 1-2-5.262C3.295 4.047 6.84.5 11.21.5a7.92 7.92 0 0 1 7.917 7.917Zm-1.056 0a6.861 6.861 0 1 1-13.722 0 6.861 6.861 0 0 1 13.722 0Z"/>
</symbol>
<symbol id="skin-cancer" viewBox="0 0 41 41">
  <path d="M16.345 8.563V5.5h1.667v3.128l-.003.03a2.655 2.655 0 0 1-.206.85c.406.147.433.625.446.86.003.039.004.07.007.093.597.278.94.978.778 1.652-.16.675-.77 1.09-1.41.999-.196.279-.43.528-.698.739.087.677-.305 1.32-.943 1.491-.637.171-1.299-.19-1.562-.82a3.448 3.448 0 0 1-.973-.291c-.51.4-1.245.344-1.721-.16a1.478 1.478 0 0 1-.362-1.351c-.89.19-2.006.594-2.92 1.337-.986.8-1.767 2.014-1.767 3.912v9.244H5.012v-9.244c0-2.442 1.04-4.116 2.382-5.206 1.31-1.065 2.878-1.551 3.975-1.742 2.44-.423 3.69-1.002 4.321-1.487.557-.428.637-.784.655-.971ZM24.488 5.5v3.317c.037.23.159.574.642.95.547.429 1.584.918 3.524 1.255 1.098.19 2.665.676 3.976 1.741 1.341 1.09 2.382 2.764 2.382 5.206v9.244h-1.667v-9.244c0-1.898-.78-3.112-1.766-3.912-1.017-.826-2.283-1.233-3.21-1.393-2.08-.361-3.417-.92-4.266-1.583-.882-.689-1.196-1.46-1.275-2.104l-.007-.05V5.5h1.667Z"/>
  <path d="M28.916 14.945c-1.16 0-2.071.935-2.071 2.08v.64c-.604-.528-1.572-.662-2.355-.275-.846.416-1.184 1.296-.831 2.047-.304.33-.554.697-.74 1.092-.938.116-1.66.805-1.66 1.639 0 .833.722 1.523 1.66 1.638.186.395.436.762.74 1.092-.353.752-.015 1.63.83 2.048.784.386 1.752.252 2.356-.276v8.83h1.667V17.026c0-.24.18-.413.404-.413.195 0 .322.037.402.073a.51.51 0 0 1 .277.306v10.223h1.667V16.949c0-.337-.157-.819-.503-1.22-.385-.447-.994-.784-1.843-.784ZM9.264 15.729c.386-.447.994-.784 1.843-.784 1.363 0 2.238 1.148 2.238 2.348V27.35a.954.954 0 0 1 1.01-.072c.39.208.546.648.383 1.023.14.165.255.349.34.547.434.057.767.402.767.819 0 .416-.333.761-.766.819-.086.197-.201.381-.341.546.163.376.007.815-.384 1.024a.954.954 0 0 1-1.009-.073v3.517h-1.667V17.293c0-.447-.288-.681-.571-.681a.955.955 0 0 0-.402.073.51.51 0 0 0-.277.306v10.223H8.762V16.949c0-.337.157-.819.502-1.22ZM20.845 13a.833.833 0 1 0 0-1.666.833.833 0 0 0 0 1.667ZM19.178 15.5a.833.833 0 1 0 0-1.666.833.833 0 0 0 0 1.667Z"/>
  <path d="M17.095 27.355a.833.833 0 1 1-1.666 0 .833.833 0 0 1 1.666 0ZM17.512 30.5a.833.833 0 1 0 0-1.666.833.833 0 0 0 0 1.667ZM23.227 27.315a.833.833 0 1 1-.305 1.639.833.833 0 0 1 .305-1.639ZM21.97 24.963a.833.833 0 1 1-.305 1.639.833.833 0 0 1 .304-1.639ZM21.678 18a.833.833 0 1 1 0 1.667.833.833 0 0 1 0-1.667Z"/>
</symbol>
<symbol id="snz2" viewBox="0 0 105 111"><g fill="none">
  <g clip-path="url(#a)">
    <path d="m20.502 85.97 7.97-13.165c7.161 6.327 16.453 7.347 22.578 7.347 7.265 0 11.348-3.059 11.348-7.152 0-4.903-7.46-7.347-13.18-8.982-12.354-3.464-26.464-8.262-26.464-23.99 0-13.78 10.418-22.657 28.31-22.657 10.434 0 18.6 1.934 26.781 7.347L71.51 37.583c-7.566-3.778-14.516-5.008-20.445-5.008-5.93 0-10.223 2.354-10.223 6.028 0 4.798 6.545 6.837 12.58 8.577 13.39 3.883 27.08 9.296 27.08 24.395 0 14.185-10.223 23.781-29.437 23.781-9.502 0-21.766-1.74-30.563-9.386Z" fill="#F7A212"/>
  </g>
  
</g></symbol>
<symbol id="snz3" viewBox="0 0 104 111">
  <path d="M55.733 0a9.063 9.063 0 0 1 9.063 9.063v18.855l15.44-10.81a9.062 9.062 0 0 1 12.621 2.225l6.003 8.573a9.062 9.062 0 0 1-2.225 12.62L75.429 55.374l21.209 14.85a9.062 9.062 0 0 1 2.225 12.62l-6.004 8.574a9.061 9.061 0 0 1-12.62 2.226L64.796 82.829v18.852a9.063 9.063 0 0 1-9.063 9.062H45.268a9.062 9.062 0 0 1-9.062-9.062V82.839L20.766 93.65a9.062 9.062 0 0 1-12.621-2.225l-6.003-8.572A9.062 9.062 0 0 1 4.367 70.23l21.218-14.857L4.37 40.519A9.062 9.062 0 0 1 2.145 27.9l6.002-8.573a9.062 9.062 0 0 1 12.622-2.225l15.437 10.808V9.063A9.062 9.062 0 0 1 45.268 0h10.465Z"/>
</symbol>
<symbol id="surgery" viewBox="0 0 41 41">
  <g clip-path="url(#clip0_685_3170)">
    <path d="m23.537 23.312 10.277-10.338a3.673 3.673 0 0 1 2.575-1.05c.94 0 1.851.35 2.576 1.05a3.698 3.698 0 0 1 1.046 2.584c0 .942-.349 1.858-1.046 2.558l-9.633 9.666c-.242.242-.537.35-.832.35-.268 0-.536-.08-.777-.242-.86-.27-1.53-.296-2.12-.081-.564.188-1.1.619-1.61 1.238.08 1.454-.27 2.961-.967 4.388a11.203 11.203 0 0 1-3.058 3.688c-1.288.996-2.817 1.67-4.454 1.804-1.369.134-2.79-.135-4.24-.835a2.821 2.821 0 0 1-.294-.242l-.027-.053c-.054-.108-.108-.19-.108-.296a.687.687 0 0 1 .027-.404c.027-.108.108-.216.188-.324l12.155-12.168c-.053-.135-.053-.243-.053-.377 0-.243.08-.512.214-.727.054-.054.108-.135.161-.189Zm7.245-.673c.269.161.322.512.161.78-.161.27-.537.323-.778.162l-1.932-1.293a.54.54 0 0 1-.16-.78c.16-.27.51-.35.777-.162l1.932 1.293Zm-1.583 1.588a.571.571 0 0 1 .16.78c-.187.27-.536.351-.804.162l-1.932-1.292a.556.556 0 0 1-.134-.78c.161-.27.51-.324.778-.163l1.932 1.293Zm-4.803.08h.027l3.864 2.585.027.027c.08.054.134.054.188.054h.027l9.633-9.638a2.557 2.557 0 0 0 .725-1.777c0-.645-.242-1.292-.725-1.777a2.493 2.493 0 0 0-1.77-.727c-.644 0-1.289.242-1.77.727L24.344 24.12h-.027c-.027.027-.027.08-.027.108l.107.054v.027h-.002Zm-.376 1.105L12.187 37.257c1.1.485 2.2.62 3.22.539 1.422-.135 2.764-.7 3.891-1.589a9.717 9.717 0 0 0 2.71-3.284c.645-1.265.94-2.639.832-3.904 0-.108.027-.215.053-.323.027-.081.08-.189.134-.27.698-.808 1.369-1.4 2.2-1.696.161-.081.35-.108.537-.162l-1.744-1.157ZM7.975 22.314a4.281 4.281 0 0 1 3.032-1.265c1.1 0 2.2.43 3.031 1.265a4.31 4.31 0 0 1 1.261 3.042c0 1.104-.43 2.208-1.26 3.069a4.253 4.253 0 0 1-3.032 1.238c-1.1 0-2.2-.404-3.032-1.238v-.027c-.859-.834-1.261-1.938-1.261-3.042 0-1.104.402-2.208 1.261-3.042Zm.805.808a3.17 3.17 0 0 0-.939 2.235c0 .808.322 1.642.94 2.261a3.12 3.12 0 0 0 2.226.915 3.12 3.12 0 0 0 2.228-.915c.617-.62.939-1.454.939-2.261 0-.807-.322-1.616-.94-2.235a3.12 3.12 0 0 0-2.227-.915 3.12 3.12 0 0 0-2.227.915Z"/>
    <path d="M7.975 22.315 20.96 9.285l-1.26-2.423 5.338-5.357L38.35.051c.214-.027.43 0 .617.108.188.108.349.242.456.457l.322.593c.08.134.134.296.134.458a.698.698 0 0 1-.08.457 1.01 1.01 0 0 1-.242.404 1.006 1.006 0 0 1-.403.242L29.28 6.243 16.534 19.004l-1.315 6.112-.912.915-.188-1.131a2.693 2.693 0 0 0-.295-.97c-.134-.296-.349-.565-.59-.808a3.15 3.15 0 0 0-2.227-.942c-.805 0-1.556.296-2.173.862l-.053.053-.806-.78ZM22.062 9.77 10.82 21.05h.188c1.1 0 2.2.431 3.031 1.265.188.19.35.377.484.593l.992-4.469c4.373-4.388 8.747-8.776 13.12-13.192l10.09-3.553-.27-.512-12.878 1.4-4.481 4.495 1.261 2.397-.295.296ZM6.177 20.108a3.208 3.208 0 0 0 1.261-2.074c.108-.807-.053-1.669-.59-2.369A3.194 3.194 0 0 0 4.782 14.4a3.3 3.3 0 0 0-2.361.592 3.068 3.068 0 0 0-1.234 2.073c-.134.808.053 1.67.563 2.37.537.699 1.289 1.13 2.093 1.237a3.091 3.091 0 0 0 2.334-.565Zm2.388-1.912c-.188 1.076-.75 2.127-1.717 2.827-.939.7-2.092.942-3.192.78-1.073-.161-2.093-.753-2.818-1.696a4.367 4.367 0 0 1-.778-3.203 4.229 4.229 0 0 1 1.717-2.826c.939-.7 2.092-.97 3.166-.781 1.1.161 2.12.727 2.817 1.696.725.97.966 2.127.805 3.204v-.001Z"/>
    <path d="M6.204 20.082c.698-.512 1.1-1.265 1.234-2.073a3.26 3.26 0 0 0-.59-2.342 3.332 3.332 0 0 0-.67-.7h-.054a2.45 2.45 0 0 0-.831-.431.575.575 0 0 1-.456-.566c0-.323.241-.565.564-.565L11.41 13l8.694-6.408.053-.027a.567.567 0 0 1 .778.215l1.208 2.316a.557.557 0 0 1-.134.753L6.877 20.996a.584.584 0 0 1-.805-.108.573.573 0 0 1 .134-.808l-.002.002Zm2.308-1.697 12.423-9.18-.698-1.293-8.291 6.112a.403.403 0 0 1-.295.108l-4.4.296c.188.161.375.35.51.565.697.97.966 2.1.805 3.204l-.053.188h-.001ZM35.558 2.877l2.898.404c.214.027.402.134.563.27.162.134.27.323.323.538l.188.672c.027.162.027.324 0 .485-.028.134-.08.296-.188.431-.081.108-.189.215-.322.296a.901.901 0 0 1-.457.135L26.704 7.21l1.932-1.965c2.28-.78 4.534-1.588 6.788-2.37h.134Zm2.71 1.535-2.736-.377-4.722 1.67 7.593-.7-.134-.593ZM24.074 7.778a.583.583 0 0 1-.805 0c-.214-.242-.214-.593 0-.808l.859-.861c.214-.216.563-.216.805 0a.588.588 0 0 1 0 .807l-.859.862Z"/>
  </g>
</symbol>
<symbol id="theme-btn" viewBox="0 0 22.033 22.033"><g fill="none">
  
  <mask id="b" width="22.033" height="22.033" x="0" y="0" maskUnits="objectBoundingBox">
    <g filter="url(#a)" transform="rotate(-180 11.017 11.017)">
      <circle cx="11.017" cy="11.017" r="11.017" fill="#000"/>
      <circle cx="11.017" cy="11.017" r="10.517" stroke="#000"/>
    </g>
  </mask>
  <path d="M0 0h22.033v22.033H0z"/>
  <circle cx="11.017" cy="11.017" r="11.017"/>
  <circle cx="11.017" cy="11.017" r="10.017" stroke="currentColor" stroke-width="2"/>
  <g mask="url(#b)">
    <path fill="currentColor" d="M11.03 22.033H0V0h11.03z"/>
  </g>
</g></symbol>
<symbol id="urology" viewBox="0 0 41 41">
  <path fill-rule="evenodd" clip-rule="evenodd" d="M25.114 8.325a3.948 3.948 0 0 0-1.031 3.782h-.121a2.961 2.961 0 0 0-2.963 2.96v6.986a6.825 6.825 0 0 0-1.975 0v-6.986a2.96 2.96 0 0 0-2.962-2.96h-.121a3.95 3.95 0 0 0-6.618-3.782c-1.242 1.242-2.153 2.96-2.148 4.769-.005 1.808.906 3.514 2.148 4.756a3.95 3.95 0 0 0 6.621-3.769h.118c.546 0 .987.442.987.986v7.636c-.102.058-.203.12-.3.184-.969.646-1.675 1.673-1.675 3.044a4.939 4.939 0 0 0 3.95 4.838v2.074a.987.987 0 1 0 1.975 0V30.77a4.94 4.94 0 0 0 3.95-4.838c0-1.37-.706-2.398-1.674-3.043a4.557 4.557 0 0 0-.301-.185v-7.636c0-.544.441-.986.988-.986h.117A3.95 3.95 0 0 0 30.7 17.85c1.243-1.242 2.153-2.948 2.149-4.756.005-1.808-.906-3.527-2.149-4.77a3.95 3.95 0 0 0-5.585 0Zm4.19 1.396a1.975 1.975 0 0 0-3.132 2.341.993.993 0 0 0 .757-.964.987.987 0 0 1 1.975 0c0 .76-.286 1.455-.757 1.98.47.525.757 1.22.757 1.98a.987.987 0 1 1-1.975 0 .993.993 0 0 0-.747-.962 1.976 1.976 0 0 0 3.122 2.358c.972-.973 1.573-2.206 1.57-3.36.003-1.155-.598-2.4-1.57-3.373ZM22.64 24.944a1.997 1.997 0 0 0-.46-.413c-.543-.362-1.327-.575-2.168-.575-.841 0-1.626.213-2.168.575a2 2 0 0 0-.46.413h5.256Zm.165 1.974a2.964 2.964 0 0 1-5.587 0h5.587ZM13.512 9.721a1.975 1.975 0 0 0-2.793 0c-.972.973-1.572 2.218-1.57 3.373-.002 1.154.599 2.387 1.57 3.36a1.975 1.975 0 0 0 3.123-2.358.993.993 0 0 0-.748.962.987.987 0 1 1-1.975 0c0-.76.287-1.455.758-1.98a2.957 2.957 0 0 1-.758-1.98.987.987 0 0 1 1.975 0c0 .467.323.858.757.964a1.976 1.976 0 0 0-.339-2.34Z"/>
</symbol>
<symbol id="zorgdomein" viewBox="0 0 22 34"><g fill="none">
  <circle cx="8.755" cy="8.871" r="7.503" stroke="#B1B3B4" stroke-width="1.5"/>
  <circle cx="17.009" cy="19.156" r="4.209" stroke="#B1B3B4" stroke-width="1.5"/>
  <circle cx="11.665" cy="27.942" r="4.593" stroke="#B1B3B4" stroke-width="1.5"/>
</g></symbol>
</svg>